<?xml version="1.0" standalone="no"?>
<svg xmlns="http://www.w3.org/2000/svg" version="1.1" width="252" height="252">
	<!-- Created with https://api.qrserver.com (QR Code API, see goQR.me/api for information) -->
	<title>QR Code</title>
	<desc>BEGIN:VCARD
VERSION:2.1
FN:Jakub Šindelář
N:Šindelář;Jakub
TEL;CELL:+420 734 300 346
TEL;WORK;VOICE:+420 724 148 107
EMAIL;HOME;INTERNET:j.sindelar01@gmail.com
EMAIL;WORK;INTERNET:j.sindelar01@gmail.com
URL:http://profi-technika.cz/
ADR:;;Hekova 114;Praha;;16300;Česká Republika
ORG:Profi-technika.cz
END:VCARD
</desc>
	<rect style="fill:rgb(255, 255, 255);fill-opacity:1" x="0" y="0" width="252" height="252" />
	<g id="elements">
		<path style="fill:rgb(0, 0, 0)" d="M 4,4 l 4,0 0,4 -4,0 z M 8,4 l 4,0 0,4 -4,0 z M 12,4 l 4,0 0,4 -4,0 z M 16,4 l 4,0 0,4 -4,0 z M 20,4 l 4,0 0,4 -4,0 z M 24,4 l 4,0 0,4 -4,0 z M 28,4 l 4,0 0,4 -4,0 z M 40,4 l 4,0 0,4 -4,0 z M 44,4 l 4,0 0,4 -4,0 z M 52,4 l 4,0 0,4 -4,0 z M 72,4 l 4,0 0,4 -4,0 z M 76,4 l 4,0 0,4 -4,0 z M 92,4 l 4,0 0,4 -4,0 z M 108,4 l 4,0 0,4 -4,0 z M 116,4 l 4,0 0,4 -4,0 z M 124,4 l 4,0 0,4 -4,0 z M 128,4 l 4,0 0,4 -4,0 z M 136,4 l 4,0 0,4 -4,0 z M 140,4 l 4,0 0,4 -4,0 z M 144,4 l 4,0 0,4 -4,0 z M 148,4 l 4,0 0,4 -4,0 z M 156,4 l 4,0 0,4 -4,0 z M 160,4 l 4,0 0,4 -4,0 z M 164,4 l 4,0 0,4 -4,0 z M 172,4 l 4,0 0,4 -4,0 z M 176,4 l 4,0 0,4 -4,0 z M 180,4 l 4,0 0,4 -4,0 z M 192,4 l 4,0 0,4 -4,0 z M 196,4 l 4,0 0,4 -4,0 z M 208,4 l 4,0 0,4 -4,0 z M 212,4 l 4,0 0,4 -4,0 z M 220,4 l 4,0 0,4 -4,0 z M 224,4 l 4,0 0,4 -4,0 z M 228,4 l 4,0 0,4 -4,0 z M 232,4 l 4,0 0,4 -4,0 z M 236,4 l 4,0 0,4 -4,0 z M 240,4 l 4,0 0,4 -4,0 z M 244,4 l 4,0 0,4 -4,0 z M 4,8 l 4,0 0,4 -4,0 z M 28,8 l 4,0 0,4 -4,0 z M 36,8 l 4,0 0,4 -4,0 z M 44,8 l 4,0 0,4 -4,0 z M 52,8 l 4,0 0,4 -4,0 z M 60,8 l 4,0 0,4 -4,0 z M 76,8 l 4,0 0,4 -4,0 z M 80,8 l 4,0 0,4 -4,0 z M 84,8 l 4,0 0,4 -4,0 z M 100,8 l 4,0 0,4 -4,0 z M 104,8 l 4,0 0,4 -4,0 z M 112,8 l 4,0 0,4 -4,0 z M 124,8 l 4,0 0,4 -4,0 z M 132,8 l 4,0 0,4 -4,0 z M 140,8 l 4,0 0,4 -4,0 z M 148,8 l 4,0 0,4 -4,0 z M 152,8 l 4,0 0,4 -4,0 z M 168,8 l 4,0 0,4 -4,0 z M 176,8 l 4,0 0,4 -4,0 z M 184,8 l 4,0 0,4 -4,0 z M 196,8 l 4,0 0,4 -4,0 z M 208,8 l 4,0 0,4 -4,0 z M 212,8 l 4,0 0,4 -4,0 z M 220,8 l 4,0 0,4 -4,0 z M 244,8 l 4,0 0,4 -4,0 z M 4,12 l 4,0 0,4 -4,0 z M 12,12 l 4,0 0,4 -4,0 z M 16,12 l 4,0 0,4 -4,0 z M 20,12 l 4,0 0,4 -4,0 z M 28,12 l 4,0 0,4 -4,0 z M 44,12 l 4,0 0,4 -4,0 z M 56,12 l 4,0 0,4 -4,0 z M 64,12 l 4,0 0,4 -4,0 z M 76,12 l 4,0 0,4 -4,0 z M 88,12 l 4,0 0,4 -4,0 z M 92,12 l 4,0 0,4 -4,0 z M 96,12 l 4,0 0,4 -4,0 z M 100,12 l 4,0 0,4 -4,0 z M 104,12 l 4,0 0,4 -4,0 z M 108,12 l 4,0 0,4 -4,0 z M 124,12 l 4,0 0,4 -4,0 z M 132,12 l 4,0 0,4 -4,0 z M 140,12 l 4,0 0,4 -4,0 z M 144,12 l 4,0 0,4 -4,0 z M 160,12 l 4,0 0,4 -4,0 z M 172,12 l 4,0 0,4 -4,0 z M 176,12 l 4,0 0,4 -4,0 z M 180,12 l 4,0 0,4 -4,0 z M 184,12 l 4,0 0,4 -4,0 z M 188,12 l 4,0 0,4 -4,0 z M 196,12 l 4,0 0,4 -4,0 z M 204,12 l 4,0 0,4 -4,0 z M 208,12 l 4,0 0,4 -4,0 z M 212,12 l 4,0 0,4 -4,0 z M 220,12 l 4,0 0,4 -4,0 z M 228,12 l 4,0 0,4 -4,0 z M 232,12 l 4,0 0,4 -4,0 z M 236,12 l 4,0 0,4 -4,0 z M 244,12 l 4,0 0,4 -4,0 z M 4,16 l 4,0 0,4 -4,0 z M 12,16 l 4,0 0,4 -4,0 z M 16,16 l 4,0 0,4 -4,0 z M 20,16 l 4,0 0,4 -4,0 z M 28,16 l 4,0 0,4 -4,0 z M 36,16 l 4,0 0,4 -4,0 z M 44,16 l 4,0 0,4 -4,0 z M 48,16 l 4,0 0,4 -4,0 z M 52,16 l 4,0 0,4 -4,0 z M 56,16 l 4,0 0,4 -4,0 z M 60,16 l 4,0 0,4 -4,0 z M 64,16 l 4,0 0,4 -4,0 z M 68,16 l 4,0 0,4 -4,0 z M 84,16 l 4,0 0,4 -4,0 z M 88,16 l 4,0 0,4 -4,0 z M 96,16 l 4,0 0,4 -4,0 z M 108,16 l 4,0 0,4 -4,0 z M 128,16 l 4,0 0,4 -4,0 z M 144,16 l 4,0 0,4 -4,0 z M 148,16 l 4,0 0,4 -4,0 z M 180,16 l 4,0 0,4 -4,0 z M 188,16 l 4,0 0,4 -4,0 z M 196,16 l 4,0 0,4 -4,0 z M 204,16 l 4,0 0,4 -4,0 z M 212,16 l 4,0 0,4 -4,0 z M 220,16 l 4,0 0,4 -4,0 z M 228,16 l 4,0 0,4 -4,0 z M 232,16 l 4,0 0,4 -4,0 z M 236,16 l 4,0 0,4 -4,0 z M 244,16 l 4,0 0,4 -4,0 z M 4,20 l 4,0 0,4 -4,0 z M 12,20 l 4,0 0,4 -4,0 z M 16,20 l 4,0 0,4 -4,0 z M 20,20 l 4,0 0,4 -4,0 z M 28,20 l 4,0 0,4 -4,0 z M 40,20 l 4,0 0,4 -4,0 z M 44,20 l 4,0 0,4 -4,0 z M 48,20 l 4,0 0,4 -4,0 z M 52,20 l 4,0 0,4 -4,0 z M 56,20 l 4,0 0,4 -4,0 z M 60,20 l 4,0 0,4 -4,0 z M 64,20 l 4,0 0,4 -4,0 z M 72,20 l 4,0 0,4 -4,0 z M 76,20 l 4,0 0,4 -4,0 z M 84,20 l 4,0 0,4 -4,0 z M 88,20 l 4,0 0,4 -4,0 z M 92,20 l 4,0 0,4 -4,0 z M 104,20 l 4,0 0,4 -4,0 z M 112,20 l 4,0 0,4 -4,0 z M 116,20 l 4,0 0,4 -4,0 z M 120,20 l 4,0 0,4 -4,0 z M 124,20 l 4,0 0,4 -4,0 z M 128,20 l 4,0 0,4 -4,0 z M 132,20 l 4,0 0,4 -4,0 z M 136,20 l 4,0 0,4 -4,0 z M 140,20 l 4,0 0,4 -4,0 z M 148,20 l 4,0 0,4 -4,0 z M 172,20 l 4,0 0,4 -4,0 z M 184,20 l 4,0 0,4 -4,0 z M 196,20 l 4,0 0,4 -4,0 z M 200,20 l 4,0 0,4 -4,0 z M 204,20 l 4,0 0,4 -4,0 z M 208,20 l 4,0 0,4 -4,0 z M 220,20 l 4,0 0,4 -4,0 z M 228,20 l 4,0 0,4 -4,0 z M 232,20 l 4,0 0,4 -4,0 z M 236,20 l 4,0 0,4 -4,0 z M 244,20 l 4,0 0,4 -4,0 z M 4,24 l 4,0 0,4 -4,0 z M 28,24 l 4,0 0,4 -4,0 z M 36,24 l 4,0 0,4 -4,0 z M 44,24 l 4,0 0,4 -4,0 z M 52,24 l 4,0 0,4 -4,0 z M 56,24 l 4,0 0,4 -4,0 z M 64,24 l 4,0 0,4 -4,0 z M 68,24 l 4,0 0,4 -4,0 z M 72,24 l 4,0 0,4 -4,0 z M 84,24 l 4,0 0,4 -4,0 z M 112,24 l 4,0 0,4 -4,0 z M 116,24 l 4,0 0,4 -4,0 z M 132,24 l 4,0 0,4 -4,0 z M 136,24 l 4,0 0,4 -4,0 z M 152,24 l 4,0 0,4 -4,0 z M 160,24 l 4,0 0,4 -4,0 z M 168,24 l 4,0 0,4 -4,0 z M 188,24 l 4,0 0,4 -4,0 z M 200,24 l 4,0 0,4 -4,0 z M 204,24 l 4,0 0,4 -4,0 z M 220,24 l 4,0 0,4 -4,0 z M 244,24 l 4,0 0,4 -4,0 z M 4,28 l 4,0 0,4 -4,0 z M 8,28 l 4,0 0,4 -4,0 z M 12,28 l 4,0 0,4 -4,0 z M 16,28 l 4,0 0,4 -4,0 z M 20,28 l 4,0 0,4 -4,0 z M 24,28 l 4,0 0,4 -4,0 z M 28,28 l 4,0 0,4 -4,0 z M 36,28 l 4,0 0,4 -4,0 z M 44,28 l 4,0 0,4 -4,0 z M 52,28 l 4,0 0,4 -4,0 z M 60,28 l 4,0 0,4 -4,0 z M 68,28 l 4,0 0,4 -4,0 z M 76,28 l 4,0 0,4 -4,0 z M 84,28 l 4,0 0,4 -4,0 z M 92,28 l 4,0 0,4 -4,0 z M 100,28 l 4,0 0,4 -4,0 z M 108,28 l 4,0 0,4 -4,0 z M 116,28 l 4,0 0,4 -4,0 z M 124,28 l 4,0 0,4 -4,0 z M 132,28 l 4,0 0,4 -4,0 z M 140,28 l 4,0 0,4 -4,0 z M 148,28 l 4,0 0,4 -4,0 z M 156,28 l 4,0 0,4 -4,0 z M 164,28 l 4,0 0,4 -4,0 z M 172,28 l 4,0 0,4 -4,0 z M 180,28 l 4,0 0,4 -4,0 z M 188,28 l 4,0 0,4 -4,0 z M 196,28 l 4,0 0,4 -4,0 z M 204,28 l 4,0 0,4 -4,0 z M 212,28 l 4,0 0,4 -4,0 z M 220,28 l 4,0 0,4 -4,0 z M 224,28 l 4,0 0,4 -4,0 z M 228,28 l 4,0 0,4 -4,0 z M 232,28 l 4,0 0,4 -4,0 z M 236,28 l 4,0 0,4 -4,0 z M 240,28 l 4,0 0,4 -4,0 z M 244,28 l 4,0 0,4 -4,0 z M 60,32 l 4,0 0,4 -4,0 z M 64,32 l 4,0 0,4 -4,0 z M 88,32 l 4,0 0,4 -4,0 z M 92,32 l 4,0 0,4 -4,0 z M 96,32 l 4,0 0,4 -4,0 z M 100,32 l 4,0 0,4 -4,0 z M 104,32 l 4,0 0,4 -4,0 z M 112,32 l 4,0 0,4 -4,0 z M 116,32 l 4,0 0,4 -4,0 z M 132,32 l 4,0 0,4 -4,0 z M 136,32 l 4,0 0,4 -4,0 z M 140,32 l 4,0 0,4 -4,0 z M 144,32 l 4,0 0,4 -4,0 z M 148,32 l 4,0 0,4 -4,0 z M 160,32 l 4,0 0,4 -4,0 z M 164,32 l 4,0 0,4 -4,0 z M 168,32 l 4,0 0,4 -4,0 z M 172,32 l 4,0 0,4 -4,0 z M 180,32 l 4,0 0,4 -4,0 z M 184,32 l 4,0 0,4 -4,0 z M 200,32 l 4,0 0,4 -4,0 z M 208,32 l 4,0 0,4 -4,0 z M 212,32 l 4,0 0,4 -4,0 z M 4,36 l 4,0 0,4 -4,0 z M 8,36 l 4,0 0,4 -4,0 z M 12,36 l 4,0 0,4 -4,0 z M 16,36 l 4,0 0,4 -4,0 z M 20,36 l 4,0 0,4 -4,0 z M 28,36 l 4,0 0,4 -4,0 z M 32,36 l 4,0 0,4 -4,0 z M 36,36 l 4,0 0,4 -4,0 z M 48,36 l 4,0 0,4 -4,0 z M 52,36 l 4,0 0,4 -4,0 z M 64,36 l 4,0 0,4 -4,0 z M 68,36 l 4,0 0,4 -4,0 z M 92,36 l 4,0 0,4 -4,0 z M 96,36 l 4,0 0,4 -4,0 z M 100,36 l 4,0 0,4 -4,0 z M 108,36 l 4,0 0,4 -4,0 z M 116,36 l 4,0 0,4 -4,0 z M 120,36 l 4,0 0,4 -4,0 z M 124,36 l 4,0 0,4 -4,0 z M 128,36 l 4,0 0,4 -4,0 z M 132,36 l 4,0 0,4 -4,0 z M 144,36 l 4,0 0,4 -4,0 z M 148,36 l 4,0 0,4 -4,0 z M 160,36 l 4,0 0,4 -4,0 z M 164,36 l 4,0 0,4 -4,0 z M 180,36 l 4,0 0,4 -4,0 z M 184,36 l 4,0 0,4 -4,0 z M 188,36 l 4,0 0,4 -4,0 z M 192,36 l 4,0 0,4 -4,0 z M 196,36 l 4,0 0,4 -4,0 z M 204,36 l 4,0 0,4 -4,0 z M 208,36 l 4,0 0,4 -4,0 z M 216,36 l 4,0 0,4 -4,0 z M 224,36 l 4,0 0,4 -4,0 z M 232,36 l 4,0 0,4 -4,0 z M 240,36 l 4,0 0,4 -4,0 z M 12,40 l 4,0 0,4 -4,0 z M 32,40 l 4,0 0,4 -4,0 z M 40,40 l 4,0 0,4 -4,0 z M 44,40 l 4,0 0,4 -4,0 z M 56,40 l 4,0 0,4 -4,0 z M 60,40 l 4,0 0,4 -4,0 z M 68,40 l 4,0 0,4 -4,0 z M 72,40 l 4,0 0,4 -4,0 z M 80,40 l 4,0 0,4 -4,0 z M 88,40 l 4,0 0,4 -4,0 z M 92,40 l 4,0 0,4 -4,0 z M 104,40 l 4,0 0,4 -4,0 z M 112,40 l 4,0 0,4 -4,0 z M 116,40 l 4,0 0,4 -4,0 z M 120,40 l 4,0 0,4 -4,0 z M 136,40 l 4,0 0,4 -4,0 z M 140,40 l 4,0 0,4 -4,0 z M 148,40 l 4,0 0,4 -4,0 z M 160,40 l 4,0 0,4 -4,0 z M 172,40 l 4,0 0,4 -4,0 z M 184,40 l 4,0 0,4 -4,0 z M 192,40 l 4,0 0,4 -4,0 z M 208,40 l 4,0 0,4 -4,0 z M 216,40 l 4,0 0,4 -4,0 z M 220,40 l 4,0 0,4 -4,0 z M 224,40 l 4,0 0,4 -4,0 z M 232,40 l 4,0 0,4 -4,0 z M 240,40 l 4,0 0,4 -4,0 z M 8,44 l 4,0 0,4 -4,0 z M 12,44 l 4,0 0,4 -4,0 z M 16,44 l 4,0 0,4 -4,0 z M 20,44 l 4,0 0,4 -4,0 z M 24,44 l 4,0 0,4 -4,0 z M 28,44 l 4,0 0,4 -4,0 z M 32,44 l 4,0 0,4 -4,0 z M 36,44 l 4,0 0,4 -4,0 z M 40,44 l 4,0 0,4 -4,0 z M 44,44 l 4,0 0,4 -4,0 z M 60,44 l 4,0 0,4 -4,0 z M 64,44 l 4,0 0,4 -4,0 z M 68,44 l 4,0 0,4 -4,0 z M 80,44 l 4,0 0,4 -4,0 z M 88,44 l 4,0 0,4 -4,0 z M 92,44 l 4,0 0,4 -4,0 z M 104,44 l 4,0 0,4 -4,0 z M 108,44 l 4,0 0,4 -4,0 z M 120,44 l 4,0 0,4 -4,0 z M 124,44 l 4,0 0,4 -4,0 z M 128,44 l 4,0 0,4 -4,0 z M 144,44 l 4,0 0,4 -4,0 z M 152,44 l 4,0 0,4 -4,0 z M 156,44 l 4,0 0,4 -4,0 z M 160,44 l 4,0 0,4 -4,0 z M 164,44 l 4,0 0,4 -4,0 z M 168,44 l 4,0 0,4 -4,0 z M 172,44 l 4,0 0,4 -4,0 z M 176,44 l 4,0 0,4 -4,0 z M 184,44 l 4,0 0,4 -4,0 z M 192,44 l 4,0 0,4 -4,0 z M 196,44 l 4,0 0,4 -4,0 z M 208,44 l 4,0 0,4 -4,0 z M 212,44 l 4,0 0,4 -4,0 z M 220,44 l 4,0 0,4 -4,0 z M 224,44 l 4,0 0,4 -4,0 z M 228,44 l 4,0 0,4 -4,0 z M 232,44 l 4,0 0,4 -4,0 z M 240,44 l 4,0 0,4 -4,0 z M 244,44 l 4,0 0,4 -4,0 z M 4,48 l 4,0 0,4 -4,0 z M 20,48 l 4,0 0,4 -4,0 z M 32,48 l 4,0 0,4 -4,0 z M 44,48 l 4,0 0,4 -4,0 z M 48,48 l 4,0 0,4 -4,0 z M 56,48 l 4,0 0,4 -4,0 z M 64,48 l 4,0 0,4 -4,0 z M 76,48 l 4,0 0,4 -4,0 z M 80,48 l 4,0 0,4 -4,0 z M 84,48 l 4,0 0,4 -4,0 z M 88,48 l 4,0 0,4 -4,0 z M 92,48 l 4,0 0,4 -4,0 z M 96,48 l 4,0 0,4 -4,0 z M 100,48 l 4,0 0,4 -4,0 z M 116,48 l 4,0 0,4 -4,0 z M 124,48 l 4,0 0,4 -4,0 z M 128,48 l 4,0 0,4 -4,0 z M 156,48 l 4,0 0,4 -4,0 z M 160,48 l 4,0 0,4 -4,0 z M 168,48 l 4,0 0,4 -4,0 z M 176,48 l 4,0 0,4 -4,0 z M 184,48 l 4,0 0,4 -4,0 z M 192,48 l 4,0 0,4 -4,0 z M 196,48 l 4,0 0,4 -4,0 z M 204,48 l 4,0 0,4 -4,0 z M 208,48 l 4,0 0,4 -4,0 z M 220,48 l 4,0 0,4 -4,0 z M 224,48 l 4,0 0,4 -4,0 z M 232,48 l 4,0 0,4 -4,0 z M 236,48 l 4,0 0,4 -4,0 z M 240,48 l 4,0 0,4 -4,0 z M 244,48 l 4,0 0,4 -4,0 z M 8,52 l 4,0 0,4 -4,0 z M 28,52 l 4,0 0,4 -4,0 z M 32,52 l 4,0 0,4 -4,0 z M 36,52 l 4,0 0,4 -4,0 z M 44,52 l 4,0 0,4 -4,0 z M 64,52 l 4,0 0,4 -4,0 z M 80,52 l 4,0 0,4 -4,0 z M 84,52 l 4,0 0,4 -4,0 z M 88,52 l 4,0 0,4 -4,0 z M 96,52 l 4,0 0,4 -4,0 z M 100,52 l 4,0 0,4 -4,0 z M 104,52 l 4,0 0,4 -4,0 z M 120,52 l 4,0 0,4 -4,0 z M 132,52 l 4,0 0,4 -4,0 z M 136,52 l 4,0 0,4 -4,0 z M 140,52 l 4,0 0,4 -4,0 z M 152,52 l 4,0 0,4 -4,0 z M 160,52 l 4,0 0,4 -4,0 z M 168,52 l 4,0 0,4 -4,0 z M 172,52 l 4,0 0,4 -4,0 z M 184,52 l 4,0 0,4 -4,0 z M 188,52 l 4,0 0,4 -4,0 z M 192,52 l 4,0 0,4 -4,0 z M 196,52 l 4,0 0,4 -4,0 z M 200,52 l 4,0 0,4 -4,0 z M 208,52 l 4,0 0,4 -4,0 z M 212,52 l 4,0 0,4 -4,0 z M 216,52 l 4,0 0,4 -4,0 z M 220,52 l 4,0 0,4 -4,0 z M 228,52 l 4,0 0,4 -4,0 z M 240,52 l 4,0 0,4 -4,0 z M 244,52 l 4,0 0,4 -4,0 z M 8,56 l 4,0 0,4 -4,0 z M 24,56 l 4,0 0,4 -4,0 z M 32,56 l 4,0 0,4 -4,0 z M 36,56 l 4,0 0,4 -4,0 z M 44,56 l 4,0 0,4 -4,0 z M 48,56 l 4,0 0,4 -4,0 z M 52,56 l 4,0 0,4 -4,0 z M 56,56 l 4,0 0,4 -4,0 z M 64,56 l 4,0 0,4 -4,0 z M 84,56 l 4,0 0,4 -4,0 z M 92,56 l 4,0 0,4 -4,0 z M 96,56 l 4,0 0,4 -4,0 z M 100,56 l 4,0 0,4 -4,0 z M 104,56 l 4,0 0,4 -4,0 z M 124,56 l 4,0 0,4 -4,0 z M 128,56 l 4,0 0,4 -4,0 z M 136,56 l 4,0 0,4 -4,0 z M 140,56 l 4,0 0,4 -4,0 z M 144,56 l 4,0 0,4 -4,0 z M 148,56 l 4,0 0,4 -4,0 z M 156,56 l 4,0 0,4 -4,0 z M 160,56 l 4,0 0,4 -4,0 z M 176,56 l 4,0 0,4 -4,0 z M 180,56 l 4,0 0,4 -4,0 z M 184,56 l 4,0 0,4 -4,0 z M 188,56 l 4,0 0,4 -4,0 z M 196,56 l 4,0 0,4 -4,0 z M 200,56 l 4,0 0,4 -4,0 z M 204,56 l 4,0 0,4 -4,0 z M 212,56 l 4,0 0,4 -4,0 z M 216,56 l 4,0 0,4 -4,0 z M 220,56 l 4,0 0,4 -4,0 z M 20,60 l 4,0 0,4 -4,0 z M 28,60 l 4,0 0,4 -4,0 z M 36,60 l 4,0 0,4 -4,0 z M 44,60 l 4,0 0,4 -4,0 z M 52,60 l 4,0 0,4 -4,0 z M 72,60 l 4,0 0,4 -4,0 z M 76,60 l 4,0 0,4 -4,0 z M 80,60 l 4,0 0,4 -4,0 z M 88,60 l 4,0 0,4 -4,0 z M 92,60 l 4,0 0,4 -4,0 z M 96,60 l 4,0 0,4 -4,0 z M 104,60 l 4,0 0,4 -4,0 z M 108,60 l 4,0 0,4 -4,0 z M 120,60 l 4,0 0,4 -4,0 z M 124,60 l 4,0 0,4 -4,0 z M 144,60 l 4,0 0,4 -4,0 z M 148,60 l 4,0 0,4 -4,0 z M 152,60 l 4,0 0,4 -4,0 z M 160,60 l 4,0 0,4 -4,0 z M 164,60 l 4,0 0,4 -4,0 z M 168,60 l 4,0 0,4 -4,0 z M 172,60 l 4,0 0,4 -4,0 z M 176,60 l 4,0 0,4 -4,0 z M 180,60 l 4,0 0,4 -4,0 z M 192,60 l 4,0 0,4 -4,0 z M 204,60 l 4,0 0,4 -4,0 z M 208,60 l 4,0 0,4 -4,0 z M 212,60 l 4,0 0,4 -4,0 z M 220,60 l 4,0 0,4 -4,0 z M 232,60 l 4,0 0,4 -4,0 z M 4,64 l 4,0 0,4 -4,0 z M 8,64 l 4,0 0,4 -4,0 z M 12,64 l 4,0 0,4 -4,0 z M 20,64 l 4,0 0,4 -4,0 z M 36,64 l 4,0 0,4 -4,0 z M 40,64 l 4,0 0,4 -4,0 z M 44,64 l 4,0 0,4 -4,0 z M 48,64 l 4,0 0,4 -4,0 z M 52,64 l 4,0 0,4 -4,0 z M 64,64 l 4,0 0,4 -4,0 z M 68,64 l 4,0 0,4 -4,0 z M 76,64 l 4,0 0,4 -4,0 z M 80,64 l 4,0 0,4 -4,0 z M 96,64 l 4,0 0,4 -4,0 z M 100,64 l 4,0 0,4 -4,0 z M 112,64 l 4,0 0,4 -4,0 z M 120,64 l 4,0 0,4 -4,0 z M 132,64 l 4,0 0,4 -4,0 z M 144,64 l 4,0 0,4 -4,0 z M 152,64 l 4,0 0,4 -4,0 z M 160,64 l 4,0 0,4 -4,0 z M 172,64 l 4,0 0,4 -4,0 z M 176,64 l 4,0 0,4 -4,0 z M 180,64 l 4,0 0,4 -4,0 z M 184,64 l 4,0 0,4 -4,0 z M 196,64 l 4,0 0,4 -4,0 z M 208,64 l 4,0 0,4 -4,0 z M 212,64 l 4,0 0,4 -4,0 z M 216,64 l 4,0 0,4 -4,0 z M 220,64 l 4,0 0,4 -4,0 z M 224,64 l 4,0 0,4 -4,0 z M 228,64 l 4,0 0,4 -4,0 z M 240,64 l 4,0 0,4 -4,0 z M 244,64 l 4,0 0,4 -4,0 z M 12,68 l 4,0 0,4 -4,0 z M 20,68 l 4,0 0,4 -4,0 z M 24,68 l 4,0 0,4 -4,0 z M 28,68 l 4,0 0,4 -4,0 z M 32,68 l 4,0 0,4 -4,0 z M 48,68 l 4,0 0,4 -4,0 z M 52,68 l 4,0 0,4 -4,0 z M 64,68 l 4,0 0,4 -4,0 z M 68,68 l 4,0 0,4 -4,0 z M 76,68 l 4,0 0,4 -4,0 z M 88,68 l 4,0 0,4 -4,0 z M 92,68 l 4,0 0,4 -4,0 z M 100,68 l 4,0 0,4 -4,0 z M 104,68 l 4,0 0,4 -4,0 z M 124,68 l 4,0 0,4 -4,0 z M 128,68 l 4,0 0,4 -4,0 z M 140,68 l 4,0 0,4 -4,0 z M 148,68 l 4,0 0,4 -4,0 z M 156,68 l 4,0 0,4 -4,0 z M 160,68 l 4,0 0,4 -4,0 z M 180,68 l 4,0 0,4 -4,0 z M 184,68 l 4,0 0,4 -4,0 z M 196,68 l 4,0 0,4 -4,0 z M 200,68 l 4,0 0,4 -4,0 z M 212,68 l 4,0 0,4 -4,0 z M 216,68 l 4,0 0,4 -4,0 z M 220,68 l 4,0 0,4 -4,0 z M 228,68 l 4,0 0,4 -4,0 z M 240,68 l 4,0 0,4 -4,0 z M 4,72 l 4,0 0,4 -4,0 z M 16,72 l 4,0 0,4 -4,0 z M 20,72 l 4,0 0,4 -4,0 z M 32,72 l 4,0 0,4 -4,0 z M 44,72 l 4,0 0,4 -4,0 z M 64,72 l 4,0 0,4 -4,0 z M 76,72 l 4,0 0,4 -4,0 z M 88,72 l 4,0 0,4 -4,0 z M 116,72 l 4,0 0,4 -4,0 z M 120,72 l 4,0 0,4 -4,0 z M 124,72 l 4,0 0,4 -4,0 z M 136,72 l 4,0 0,4 -4,0 z M 140,72 l 4,0 0,4 -4,0 z M 144,72 l 4,0 0,4 -4,0 z M 152,72 l 4,0 0,4 -4,0 z M 156,72 l 4,0 0,4 -4,0 z M 160,72 l 4,0 0,4 -4,0 z M 164,72 l 4,0 0,4 -4,0 z M 172,72 l 4,0 0,4 -4,0 z M 184,72 l 4,0 0,4 -4,0 z M 192,72 l 4,0 0,4 -4,0 z M 196,72 l 4,0 0,4 -4,0 z M 216,72 l 4,0 0,4 -4,0 z M 220,72 l 4,0 0,4 -4,0 z M 224,72 l 4,0 0,4 -4,0 z M 228,72 l 4,0 0,4 -4,0 z M 4,76 l 4,0 0,4 -4,0 z M 12,76 l 4,0 0,4 -4,0 z M 20,76 l 4,0 0,4 -4,0 z M 24,76 l 4,0 0,4 -4,0 z M 28,76 l 4,0 0,4 -4,0 z M 36,76 l 4,0 0,4 -4,0 z M 40,76 l 4,0 0,4 -4,0 z M 44,76 l 4,0 0,4 -4,0 z M 48,76 l 4,0 0,4 -4,0 z M 56,76 l 4,0 0,4 -4,0 z M 64,76 l 4,0 0,4 -4,0 z M 72,76 l 4,0 0,4 -4,0 z M 76,76 l 4,0 0,4 -4,0 z M 80,76 l 4,0 0,4 -4,0 z M 84,76 l 4,0 0,4 -4,0 z M 88,76 l 4,0 0,4 -4,0 z M 96,76 l 4,0 0,4 -4,0 z M 100,76 l 4,0 0,4 -4,0 z M 104,76 l 4,0 0,4 -4,0 z M 112,76 l 4,0 0,4 -4,0 z M 116,76 l 4,0 0,4 -4,0 z M 128,76 l 4,0 0,4 -4,0 z M 140,76 l 4,0 0,4 -4,0 z M 144,76 l 4,0 0,4 -4,0 z M 148,76 l 4,0 0,4 -4,0 z M 156,76 l 4,0 0,4 -4,0 z M 160,76 l 4,0 0,4 -4,0 z M 164,76 l 4,0 0,4 -4,0 z M 168,76 l 4,0 0,4 -4,0 z M 176,76 l 4,0 0,4 -4,0 z M 184,76 l 4,0 0,4 -4,0 z M 196,76 l 4,0 0,4 -4,0 z M 204,76 l 4,0 0,4 -4,0 z M 216,76 l 4,0 0,4 -4,0 z M 232,76 l 4,0 0,4 -4,0 z M 8,80 l 4,0 0,4 -4,0 z M 12,80 l 4,0 0,4 -4,0 z M 16,80 l 4,0 0,4 -4,0 z M 20,80 l 4,0 0,4 -4,0 z M 24,80 l 4,0 0,4 -4,0 z M 36,80 l 4,0 0,4 -4,0 z M 40,80 l 4,0 0,4 -4,0 z M 48,80 l 4,0 0,4 -4,0 z M 64,80 l 4,0 0,4 -4,0 z M 72,80 l 4,0 0,4 -4,0 z M 88,80 l 4,0 0,4 -4,0 z M 96,80 l 4,0 0,4 -4,0 z M 104,80 l 4,0 0,4 -4,0 z M 108,80 l 4,0 0,4 -4,0 z M 112,80 l 4,0 0,4 -4,0 z M 116,80 l 4,0 0,4 -4,0 z M 120,80 l 4,0 0,4 -4,0 z M 132,80 l 4,0 0,4 -4,0 z M 144,80 l 4,0 0,4 -4,0 z M 148,80 l 4,0 0,4 -4,0 z M 156,80 l 4,0 0,4 -4,0 z M 160,80 l 4,0 0,4 -4,0 z M 172,80 l 4,0 0,4 -4,0 z M 176,80 l 4,0 0,4 -4,0 z M 180,80 l 4,0 0,4 -4,0 z M 196,80 l 4,0 0,4 -4,0 z M 204,80 l 4,0 0,4 -4,0 z M 208,80 l 4,0 0,4 -4,0 z M 220,80 l 4,0 0,4 -4,0 z M 232,80 l 4,0 0,4 -4,0 z M 244,80 l 4,0 0,4 -4,0 z M 8,84 l 4,0 0,4 -4,0 z M 12,84 l 4,0 0,4 -4,0 z M 28,84 l 4,0 0,4 -4,0 z M 40,84 l 4,0 0,4 -4,0 z M 44,84 l 4,0 0,4 -4,0 z M 48,84 l 4,0 0,4 -4,0 z M 52,84 l 4,0 0,4 -4,0 z M 60,84 l 4,0 0,4 -4,0 z M 64,84 l 4,0 0,4 -4,0 z M 68,84 l 4,0 0,4 -4,0 z M 76,84 l 4,0 0,4 -4,0 z M 88,84 l 4,0 0,4 -4,0 z M 92,84 l 4,0 0,4 -4,0 z M 96,84 l 4,0 0,4 -4,0 z M 100,84 l 4,0 0,4 -4,0 z M 108,84 l 4,0 0,4 -4,0 z M 112,84 l 4,0 0,4 -4,0 z M 128,84 l 4,0 0,4 -4,0 z M 136,84 l 4,0 0,4 -4,0 z M 160,84 l 4,0 0,4 -4,0 z M 164,84 l 4,0 0,4 -4,0 z M 168,84 l 4,0 0,4 -4,0 z M 172,84 l 4,0 0,4 -4,0 z M 180,84 l 4,0 0,4 -4,0 z M 184,84 l 4,0 0,4 -4,0 z M 188,84 l 4,0 0,4 -4,0 z M 200,84 l 4,0 0,4 -4,0 z M 208,84 l 4,0 0,4 -4,0 z M 212,84 l 4,0 0,4 -4,0 z M 220,84 l 4,0 0,4 -4,0 z M 224,84 l 4,0 0,4 -4,0 z M 236,84 l 4,0 0,4 -4,0 z M 244,84 l 4,0 0,4 -4,0 z M 8,88 l 4,0 0,4 -4,0 z M 36,88 l 4,0 0,4 -4,0 z M 40,88 l 4,0 0,4 -4,0 z M 44,88 l 4,0 0,4 -4,0 z M 52,88 l 4,0 0,4 -4,0 z M 56,88 l 4,0 0,4 -4,0 z M 64,88 l 4,0 0,4 -4,0 z M 68,88 l 4,0 0,4 -4,0 z M 72,88 l 4,0 0,4 -4,0 z M 88,88 l 4,0 0,4 -4,0 z M 92,88 l 4,0 0,4 -4,0 z M 104,88 l 4,0 0,4 -4,0 z M 108,88 l 4,0 0,4 -4,0 z M 116,88 l 4,0 0,4 -4,0 z M 120,88 l 4,0 0,4 -4,0 z M 124,88 l 4,0 0,4 -4,0 z M 136,88 l 4,0 0,4 -4,0 z M 160,88 l 4,0 0,4 -4,0 z M 176,88 l 4,0 0,4 -4,0 z M 192,88 l 4,0 0,4 -4,0 z M 196,88 l 4,0 0,4 -4,0 z M 208,88 l 4,0 0,4 -4,0 z M 212,88 l 4,0 0,4 -4,0 z M 220,88 l 4,0 0,4 -4,0 z M 224,88 l 4,0 0,4 -4,0 z M 232,88 l 4,0 0,4 -4,0 z M 4,92 l 4,0 0,4 -4,0 z M 8,92 l 4,0 0,4 -4,0 z M 16,92 l 4,0 0,4 -4,0 z M 24,92 l 4,0 0,4 -4,0 z M 28,92 l 4,0 0,4 -4,0 z M 32,92 l 4,0 0,4 -4,0 z M 36,92 l 4,0 0,4 -4,0 z M 64,92 l 4,0 0,4 -4,0 z M 72,92 l 4,0 0,4 -4,0 z M 76,92 l 4,0 0,4 -4,0 z M 84,92 l 4,0 0,4 -4,0 z M 100,92 l 4,0 0,4 -4,0 z M 104,92 l 4,0 0,4 -4,0 z M 116,92 l 4,0 0,4 -4,0 z M 120,92 l 4,0 0,4 -4,0 z M 124,92 l 4,0 0,4 -4,0 z M 136,92 l 4,0 0,4 -4,0 z M 140,92 l 4,0 0,4 -4,0 z M 148,92 l 4,0 0,4 -4,0 z M 152,92 l 4,0 0,4 -4,0 z M 168,92 l 4,0 0,4 -4,0 z M 172,92 l 4,0 0,4 -4,0 z M 176,92 l 4,0 0,4 -4,0 z M 192,92 l 4,0 0,4 -4,0 z M 200,92 l 4,0 0,4 -4,0 z M 204,92 l 4,0 0,4 -4,0 z M 216,92 l 4,0 0,4 -4,0 z M 220,92 l 4,0 0,4 -4,0 z M 240,92 l 4,0 0,4 -4,0 z M 4,96 l 4,0 0,4 -4,0 z M 12,96 l 4,0 0,4 -4,0 z M 16,96 l 4,0 0,4 -4,0 z M 36,96 l 4,0 0,4 -4,0 z M 52,96 l 4,0 0,4 -4,0 z M 56,96 l 4,0 0,4 -4,0 z M 64,96 l 4,0 0,4 -4,0 z M 72,96 l 4,0 0,4 -4,0 z M 76,96 l 4,0 0,4 -4,0 z M 88,96 l 4,0 0,4 -4,0 z M 92,96 l 4,0 0,4 -4,0 z M 96,96 l 4,0 0,4 -4,0 z M 100,96 l 4,0 0,4 -4,0 z M 104,96 l 4,0 0,4 -4,0 z M 112,96 l 4,0 0,4 -4,0 z M 132,96 l 4,0 0,4 -4,0 z M 136,96 l 4,0 0,4 -4,0 z M 144,96 l 4,0 0,4 -4,0 z M 148,96 l 4,0 0,4 -4,0 z M 168,96 l 4,0 0,4 -4,0 z M 172,96 l 4,0 0,4 -4,0 z M 180,96 l 4,0 0,4 -4,0 z M 184,96 l 4,0 0,4 -4,0 z M 200,96 l 4,0 0,4 -4,0 z M 212,96 l 4,0 0,4 -4,0 z M 220,96 l 4,0 0,4 -4,0 z M 244,96 l 4,0 0,4 -4,0 z M 20,100 l 4,0 0,4 -4,0 z M 24,100 l 4,0 0,4 -4,0 z M 28,100 l 4,0 0,4 -4,0 z M 32,100 l 4,0 0,4 -4,0 z M 40,100 l 4,0 0,4 -4,0 z M 48,100 l 4,0 0,4 -4,0 z M 56,100 l 4,0 0,4 -4,0 z M 60,100 l 4,0 0,4 -4,0 z M 64,100 l 4,0 0,4 -4,0 z M 72,100 l 4,0 0,4 -4,0 z M 96,100 l 4,0 0,4 -4,0 z M 108,100 l 4,0 0,4 -4,0 z M 112,100 l 4,0 0,4 -4,0 z M 132,100 l 4,0 0,4 -4,0 z M 136,100 l 4,0 0,4 -4,0 z M 148,100 l 4,0 0,4 -4,0 z M 152,100 l 4,0 0,4 -4,0 z M 156,100 l 4,0 0,4 -4,0 z M 160,100 l 4,0 0,4 -4,0 z M 180,100 l 4,0 0,4 -4,0 z M 184,100 l 4,0 0,4 -4,0 z M 196,100 l 4,0 0,4 -4,0 z M 204,100 l 4,0 0,4 -4,0 z M 212,100 l 4,0 0,4 -4,0 z M 220,100 l 4,0 0,4 -4,0 z M 224,100 l 4,0 0,4 -4,0 z M 232,100 l 4,0 0,4 -4,0 z M 244,100 l 4,0 0,4 -4,0 z M 4,104 l 4,0 0,4 -4,0 z M 12,104 l 4,0 0,4 -4,0 z M 40,104 l 4,0 0,4 -4,0 z M 44,104 l 4,0 0,4 -4,0 z M 56,104 l 4,0 0,4 -4,0 z M 68,104 l 4,0 0,4 -4,0 z M 72,104 l 4,0 0,4 -4,0 z M 84,104 l 4,0 0,4 -4,0 z M 88,104 l 4,0 0,4 -4,0 z M 100,104 l 4,0 0,4 -4,0 z M 116,104 l 4,0 0,4 -4,0 z M 120,104 l 4,0 0,4 -4,0 z M 124,104 l 4,0 0,4 -4,0 z M 132,104 l 4,0 0,4 -4,0 z M 136,104 l 4,0 0,4 -4,0 z M 140,104 l 4,0 0,4 -4,0 z M 156,104 l 4,0 0,4 -4,0 z M 160,104 l 4,0 0,4 -4,0 z M 176,104 l 4,0 0,4 -4,0 z M 180,104 l 4,0 0,4 -4,0 z M 184,104 l 4,0 0,4 -4,0 z M 192,104 l 4,0 0,4 -4,0 z M 196,104 l 4,0 0,4 -4,0 z M 200,104 l 4,0 0,4 -4,0 z M 208,104 l 4,0 0,4 -4,0 z M 212,104 l 4,0 0,4 -4,0 z M 220,104 l 4,0 0,4 -4,0 z M 224,104 l 4,0 0,4 -4,0 z M 228,104 l 4,0 0,4 -4,0 z M 232,104 l 4,0 0,4 -4,0 z M 240,104 l 4,0 0,4 -4,0 z M 4,108 l 4,0 0,4 -4,0 z M 24,108 l 4,0 0,4 -4,0 z M 28,108 l 4,0 0,4 -4,0 z M 32,108 l 4,0 0,4 -4,0 z M 36,108 l 4,0 0,4 -4,0 z M 44,108 l 4,0 0,4 -4,0 z M 60,108 l 4,0 0,4 -4,0 z M 64,108 l 4,0 0,4 -4,0 z M 68,108 l 4,0 0,4 -4,0 z M 84,108 l 4,0 0,4 -4,0 z M 88,108 l 4,0 0,4 -4,0 z M 96,108 l 4,0 0,4 -4,0 z M 108,108 l 4,0 0,4 -4,0 z M 116,108 l 4,0 0,4 -4,0 z M 124,108 l 4,0 0,4 -4,0 z M 128,108 l 4,0 0,4 -4,0 z M 132,108 l 4,0 0,4 -4,0 z M 136,108 l 4,0 0,4 -4,0 z M 140,108 l 4,0 0,4 -4,0 z M 152,108 l 4,0 0,4 -4,0 z M 156,108 l 4,0 0,4 -4,0 z M 160,108 l 4,0 0,4 -4,0 z M 164,108 l 4,0 0,4 -4,0 z M 168,108 l 4,0 0,4 -4,0 z M 184,108 l 4,0 0,4 -4,0 z M 188,108 l 4,0 0,4 -4,0 z M 192,108 l 4,0 0,4 -4,0 z M 196,108 l 4,0 0,4 -4,0 z M 204,108 l 4,0 0,4 -4,0 z M 212,108 l 4,0 0,4 -4,0 z M 220,108 l 4,0 0,4 -4,0 z M 224,108 l 4,0 0,4 -4,0 z M 232,108 l 4,0 0,4 -4,0 z M 240,108 l 4,0 0,4 -4,0 z M 4,112 l 4,0 0,4 -4,0 z M 8,112 l 4,0 0,4 -4,0 z M 12,112 l 4,0 0,4 -4,0 z M 20,112 l 4,0 0,4 -4,0 z M 44,112 l 4,0 0,4 -4,0 z M 52,112 l 4,0 0,4 -4,0 z M 56,112 l 4,0 0,4 -4,0 z M 60,112 l 4,0 0,4 -4,0 z M 72,112 l 4,0 0,4 -4,0 z M 76,112 l 4,0 0,4 -4,0 z M 84,112 l 4,0 0,4 -4,0 z M 88,112 l 4,0 0,4 -4,0 z M 92,112 l 4,0 0,4 -4,0 z M 96,112 l 4,0 0,4 -4,0 z M 100,112 l 4,0 0,4 -4,0 z M 104,112 l 4,0 0,4 -4,0 z M 112,112 l 4,0 0,4 -4,0 z M 116,112 l 4,0 0,4 -4,0 z M 124,112 l 4,0 0,4 -4,0 z M 136,112 l 4,0 0,4 -4,0 z M 152,112 l 4,0 0,4 -4,0 z M 160,112 l 4,0 0,4 -4,0 z M 164,112 l 4,0 0,4 -4,0 z M 168,112 l 4,0 0,4 -4,0 z M 172,112 l 4,0 0,4 -4,0 z M 180,112 l 4,0 0,4 -4,0 z M 204,112 l 4,0 0,4 -4,0 z M 208,112 l 4,0 0,4 -4,0 z M 224,112 l 4,0 0,4 -4,0 z M 228,112 l 4,0 0,4 -4,0 z M 240,112 l 4,0 0,4 -4,0 z M 8,116 l 4,0 0,4 -4,0 z M 16,116 l 4,0 0,4 -4,0 z M 20,116 l 4,0 0,4 -4,0 z M 24,116 l 4,0 0,4 -4,0 z M 28,116 l 4,0 0,4 -4,0 z M 32,116 l 4,0 0,4 -4,0 z M 36,116 l 4,0 0,4 -4,0 z M 40,116 l 4,0 0,4 -4,0 z M 44,116 l 4,0 0,4 -4,0 z M 48,116 l 4,0 0,4 -4,0 z M 52,116 l 4,0 0,4 -4,0 z M 64,116 l 4,0 0,4 -4,0 z M 72,116 l 4,0 0,4 -4,0 z M 80,116 l 4,0 0,4 -4,0 z M 84,116 l 4,0 0,4 -4,0 z M 88,116 l 4,0 0,4 -4,0 z M 92,116 l 4,0 0,4 -4,0 z M 96,116 l 4,0 0,4 -4,0 z M 108,116 l 4,0 0,4 -4,0 z M 112,116 l 4,0 0,4 -4,0 z M 116,116 l 4,0 0,4 -4,0 z M 120,116 l 4,0 0,4 -4,0 z M 124,116 l 4,0 0,4 -4,0 z M 128,116 l 4,0 0,4 -4,0 z M 132,116 l 4,0 0,4 -4,0 z M 136,116 l 4,0 0,4 -4,0 z M 152,116 l 4,0 0,4 -4,0 z M 164,116 l 4,0 0,4 -4,0 z M 168,116 l 4,0 0,4 -4,0 z M 172,116 l 4,0 0,4 -4,0 z M 176,116 l 4,0 0,4 -4,0 z M 180,116 l 4,0 0,4 -4,0 z M 184,116 l 4,0 0,4 -4,0 z M 204,116 l 4,0 0,4 -4,0 z M 208,116 l 4,0 0,4 -4,0 z M 212,116 l 4,0 0,4 -4,0 z M 216,116 l 4,0 0,4 -4,0 z M 220,116 l 4,0 0,4 -4,0 z M 224,116 l 4,0 0,4 -4,0 z M 228,116 l 4,0 0,4 -4,0 z M 232,116 l 4,0 0,4 -4,0 z M 240,116 l 4,0 0,4 -4,0 z M 244,116 l 4,0 0,4 -4,0 z M 4,120 l 4,0 0,4 -4,0 z M 8,120 l 4,0 0,4 -4,0 z M 16,120 l 4,0 0,4 -4,0 z M 20,120 l 4,0 0,4 -4,0 z M 36,120 l 4,0 0,4 -4,0 z M 64,120 l 4,0 0,4 -4,0 z M 84,120 l 4,0 0,4 -4,0 z M 92,120 l 4,0 0,4 -4,0 z M 104,120 l 4,0 0,4 -4,0 z M 112,120 l 4,0 0,4 -4,0 z M 116,120 l 4,0 0,4 -4,0 z M 132,120 l 4,0 0,4 -4,0 z M 136,120 l 4,0 0,4 -4,0 z M 140,120 l 4,0 0,4 -4,0 z M 144,120 l 4,0 0,4 -4,0 z M 148,120 l 4,0 0,4 -4,0 z M 152,120 l 4,0 0,4 -4,0 z M 156,120 l 4,0 0,4 -4,0 z M 160,120 l 4,0 0,4 -4,0 z M 168,120 l 4,0 0,4 -4,0 z M 172,120 l 4,0 0,4 -4,0 z M 192,120 l 4,0 0,4 -4,0 z M 196,120 l 4,0 0,4 -4,0 z M 200,120 l 4,0 0,4 -4,0 z M 212,120 l 4,0 0,4 -4,0 z M 228,120 l 4,0 0,4 -4,0 z M 240,120 l 4,0 0,4 -4,0 z M 244,120 l 4,0 0,4 -4,0 z M 8,124 l 4,0 0,4 -4,0 z M 12,124 l 4,0 0,4 -4,0 z M 16,124 l 4,0 0,4 -4,0 z M 20,124 l 4,0 0,4 -4,0 z M 28,124 l 4,0 0,4 -4,0 z M 36,124 l 4,0 0,4 -4,0 z M 44,124 l 4,0 0,4 -4,0 z M 60,124 l 4,0 0,4 -4,0 z M 64,124 l 4,0 0,4 -4,0 z M 72,124 l 4,0 0,4 -4,0 z M 76,124 l 4,0 0,4 -4,0 z M 92,124 l 4,0 0,4 -4,0 z M 116,124 l 4,0 0,4 -4,0 z M 124,124 l 4,0 0,4 -4,0 z M 132,124 l 4,0 0,4 -4,0 z M 148,124 l 4,0 0,4 -4,0 z M 160,124 l 4,0 0,4 -4,0 z M 172,124 l 4,0 0,4 -4,0 z M 176,124 l 4,0 0,4 -4,0 z M 184,124 l 4,0 0,4 -4,0 z M 188,124 l 4,0 0,4 -4,0 z M 192,124 l 4,0 0,4 -4,0 z M 196,124 l 4,0 0,4 -4,0 z M 212,124 l 4,0 0,4 -4,0 z M 220,124 l 4,0 0,4 -4,0 z M 228,124 l 4,0 0,4 -4,0 z M 232,124 l 4,0 0,4 -4,0 z M 4,128 l 4,0 0,4 -4,0 z M 8,128 l 4,0 0,4 -4,0 z M 20,128 l 4,0 0,4 -4,0 z M 36,128 l 4,0 0,4 -4,0 z M 44,128 l 4,0 0,4 -4,0 z M 48,128 l 4,0 0,4 -4,0 z M 52,128 l 4,0 0,4 -4,0 z M 68,128 l 4,0 0,4 -4,0 z M 80,128 l 4,0 0,4 -4,0 z M 96,128 l 4,0 0,4 -4,0 z M 100,128 l 4,0 0,4 -4,0 z M 112,128 l 4,0 0,4 -4,0 z M 116,128 l 4,0 0,4 -4,0 z M 132,128 l 4,0 0,4 -4,0 z M 144,128 l 4,0 0,4 -4,0 z M 148,128 l 4,0 0,4 -4,0 z M 152,128 l 4,0 0,4 -4,0 z M 172,128 l 4,0 0,4 -4,0 z M 176,128 l 4,0 0,4 -4,0 z M 180,128 l 4,0 0,4 -4,0 z M 184,128 l 4,0 0,4 -4,0 z M 200,128 l 4,0 0,4 -4,0 z M 204,128 l 4,0 0,4 -4,0 z M 208,128 l 4,0 0,4 -4,0 z M 212,128 l 4,0 0,4 -4,0 z M 228,128 l 4,0 0,4 -4,0 z M 236,128 l 4,0 0,4 -4,0 z M 240,128 l 4,0 0,4 -4,0 z M 244,128 l 4,0 0,4 -4,0 z M 16,132 l 4,0 0,4 -4,0 z M 20,132 l 4,0 0,4 -4,0 z M 24,132 l 4,0 0,4 -4,0 z M 28,132 l 4,0 0,4 -4,0 z M 32,132 l 4,0 0,4 -4,0 z M 36,132 l 4,0 0,4 -4,0 z M 40,132 l 4,0 0,4 -4,0 z M 44,132 l 4,0 0,4 -4,0 z M 60,132 l 4,0 0,4 -4,0 z M 64,132 l 4,0 0,4 -4,0 z M 72,132 l 4,0 0,4 -4,0 z M 76,132 l 4,0 0,4 -4,0 z M 84,132 l 4,0 0,4 -4,0 z M 92,132 l 4,0 0,4 -4,0 z M 116,132 l 4,0 0,4 -4,0 z M 120,132 l 4,0 0,4 -4,0 z M 124,132 l 4,0 0,4 -4,0 z M 128,132 l 4,0 0,4 -4,0 z M 132,132 l 4,0 0,4 -4,0 z M 136,132 l 4,0 0,4 -4,0 z M 140,132 l 4,0 0,4 -4,0 z M 148,132 l 4,0 0,4 -4,0 z M 156,132 l 4,0 0,4 -4,0 z M 180,132 l 4,0 0,4 -4,0 z M 184,132 l 4,0 0,4 -4,0 z M 188,132 l 4,0 0,4 -4,0 z M 196,132 l 4,0 0,4 -4,0 z M 200,132 l 4,0 0,4 -4,0 z M 212,132 l 4,0 0,4 -4,0 z M 216,132 l 4,0 0,4 -4,0 z M 220,132 l 4,0 0,4 -4,0 z M 224,132 l 4,0 0,4 -4,0 z M 228,132 l 4,0 0,4 -4,0 z M 240,132 l 4,0 0,4 -4,0 z M 8,136 l 4,0 0,4 -4,0 z M 16,136 l 4,0 0,4 -4,0 z M 24,136 l 4,0 0,4 -4,0 z M 32,136 l 4,0 0,4 -4,0 z M 40,136 l 4,0 0,4 -4,0 z M 44,136 l 4,0 0,4 -4,0 z M 56,136 l 4,0 0,4 -4,0 z M 64,136 l 4,0 0,4 -4,0 z M 72,136 l 4,0 0,4 -4,0 z M 88,136 l 4,0 0,4 -4,0 z M 92,136 l 4,0 0,4 -4,0 z M 112,136 l 4,0 0,4 -4,0 z M 120,136 l 4,0 0,4 -4,0 z M 128,136 l 4,0 0,4 -4,0 z M 132,136 l 4,0 0,4 -4,0 z M 136,136 l 4,0 0,4 -4,0 z M 140,136 l 4,0 0,4 -4,0 z M 152,136 l 4,0 0,4 -4,0 z M 160,136 l 4,0 0,4 -4,0 z M 176,136 l 4,0 0,4 -4,0 z M 188,136 l 4,0 0,4 -4,0 z M 212,136 l 4,0 0,4 -4,0 z M 232,136 l 4,0 0,4 -4,0 z M 240,136 l 4,0 0,4 -4,0 z M 244,136 l 4,0 0,4 -4,0 z M 8,140 l 4,0 0,4 -4,0 z M 12,140 l 4,0 0,4 -4,0 z M 16,140 l 4,0 0,4 -4,0 z M 24,140 l 4,0 0,4 -4,0 z M 28,140 l 4,0 0,4 -4,0 z M 32,140 l 4,0 0,4 -4,0 z M 36,140 l 4,0 0,4 -4,0 z M 40,140 l 4,0 0,4 -4,0 z M 44,140 l 4,0 0,4 -4,0 z M 48,140 l 4,0 0,4 -4,0 z M 56,140 l 4,0 0,4 -4,0 z M 64,140 l 4,0 0,4 -4,0 z M 76,140 l 4,0 0,4 -4,0 z M 80,140 l 4,0 0,4 -4,0 z M 84,140 l 4,0 0,4 -4,0 z M 96,140 l 4,0 0,4 -4,0 z M 100,140 l 4,0 0,4 -4,0 z M 108,140 l 4,0 0,4 -4,0 z M 112,140 l 4,0 0,4 -4,0 z M 132,140 l 4,0 0,4 -4,0 z M 136,140 l 4,0 0,4 -4,0 z M 144,140 l 4,0 0,4 -4,0 z M 148,140 l 4,0 0,4 -4,0 z M 164,140 l 4,0 0,4 -4,0 z M 168,140 l 4,0 0,4 -4,0 z M 180,140 l 4,0 0,4 -4,0 z M 184,140 l 4,0 0,4 -4,0 z M 188,140 l 4,0 0,4 -4,0 z M 192,140 l 4,0 0,4 -4,0 z M 208,140 l 4,0 0,4 -4,0 z M 224,140 l 4,0 0,4 -4,0 z M 228,140 l 4,0 0,4 -4,0 z M 232,140 l 4,0 0,4 -4,0 z M 236,140 l 4,0 0,4 -4,0 z M 240,140 l 4,0 0,4 -4,0 z M 4,144 l 4,0 0,4 -4,0 z M 12,144 l 4,0 0,4 -4,0 z M 20,144 l 4,0 0,4 -4,0 z M 24,144 l 4,0 0,4 -4,0 z M 32,144 l 4,0 0,4 -4,0 z M 48,144 l 4,0 0,4 -4,0 z M 64,144 l 4,0 0,4 -4,0 z M 72,144 l 4,0 0,4 -4,0 z M 76,144 l 4,0 0,4 -4,0 z M 80,144 l 4,0 0,4 -4,0 z M 96,144 l 4,0 0,4 -4,0 z M 100,144 l 4,0 0,4 -4,0 z M 112,144 l 4,0 0,4 -4,0 z M 120,144 l 4,0 0,4 -4,0 z M 124,144 l 4,0 0,4 -4,0 z M 136,144 l 4,0 0,4 -4,0 z M 140,144 l 4,0 0,4 -4,0 z M 144,144 l 4,0 0,4 -4,0 z M 148,144 l 4,0 0,4 -4,0 z M 152,144 l 4,0 0,4 -4,0 z M 160,144 l 4,0 0,4 -4,0 z M 168,144 l 4,0 0,4 -4,0 z M 172,144 l 4,0 0,4 -4,0 z M 180,144 l 4,0 0,4 -4,0 z M 192,144 l 4,0 0,4 -4,0 z M 196,144 l 4,0 0,4 -4,0 z M 208,144 l 4,0 0,4 -4,0 z M 220,144 l 4,0 0,4 -4,0 z M 228,144 l 4,0 0,4 -4,0 z M 232,144 l 4,0 0,4 -4,0 z M 236,144 l 4,0 0,4 -4,0 z M 4,148 l 4,0 0,4 -4,0 z M 12,148 l 4,0 0,4 -4,0 z M 16,148 l 4,0 0,4 -4,0 z M 28,148 l 4,0 0,4 -4,0 z M 36,148 l 4,0 0,4 -4,0 z M 56,148 l 4,0 0,4 -4,0 z M 60,148 l 4,0 0,4 -4,0 z M 64,148 l 4,0 0,4 -4,0 z M 68,148 l 4,0 0,4 -4,0 z M 80,148 l 4,0 0,4 -4,0 z M 84,148 l 4,0 0,4 -4,0 z M 96,148 l 4,0 0,4 -4,0 z M 128,148 l 4,0 0,4 -4,0 z M 160,148 l 4,0 0,4 -4,0 z M 164,148 l 4,0 0,4 -4,0 z M 168,148 l 4,0 0,4 -4,0 z M 172,148 l 4,0 0,4 -4,0 z M 176,148 l 4,0 0,4 -4,0 z M 184,148 l 4,0 0,4 -4,0 z M 208,148 l 4,0 0,4 -4,0 z M 216,148 l 4,0 0,4 -4,0 z M 220,148 l 4,0 0,4 -4,0 z M 236,148 l 4,0 0,4 -4,0 z M 240,148 l 4,0 0,4 -4,0 z M 244,148 l 4,0 0,4 -4,0 z M 4,152 l 4,0 0,4 -4,0 z M 8,152 l 4,0 0,4 -4,0 z M 16,152 l 4,0 0,4 -4,0 z M 20,152 l 4,0 0,4 -4,0 z M 36,152 l 4,0 0,4 -4,0 z M 44,152 l 4,0 0,4 -4,0 z M 48,152 l 4,0 0,4 -4,0 z M 60,152 l 4,0 0,4 -4,0 z M 64,152 l 4,0 0,4 -4,0 z M 72,152 l 4,0 0,4 -4,0 z M 84,152 l 4,0 0,4 -4,0 z M 88,152 l 4,0 0,4 -4,0 z M 100,152 l 4,0 0,4 -4,0 z M 104,152 l 4,0 0,4 -4,0 z M 108,152 l 4,0 0,4 -4,0 z M 120,152 l 4,0 0,4 -4,0 z M 132,152 l 4,0 0,4 -4,0 z M 136,152 l 4,0 0,4 -4,0 z M 156,152 l 4,0 0,4 -4,0 z M 160,152 l 4,0 0,4 -4,0 z M 164,152 l 4,0 0,4 -4,0 z M 168,152 l 4,0 0,4 -4,0 z M 176,152 l 4,0 0,4 -4,0 z M 192,152 l 4,0 0,4 -4,0 z M 196,152 l 4,0 0,4 -4,0 z M 204,152 l 4,0 0,4 -4,0 z M 220,152 l 4,0 0,4 -4,0 z M 224,152 l 4,0 0,4 -4,0 z M 228,152 l 4,0 0,4 -4,0 z M 232,152 l 4,0 0,4 -4,0 z M 240,152 l 4,0 0,4 -4,0 z M 244,152 l 4,0 0,4 -4,0 z M 16,156 l 4,0 0,4 -4,0 z M 20,156 l 4,0 0,4 -4,0 z M 24,156 l 4,0 0,4 -4,0 z M 28,156 l 4,0 0,4 -4,0 z M 36,156 l 4,0 0,4 -4,0 z M 44,156 l 4,0 0,4 -4,0 z M 48,156 l 4,0 0,4 -4,0 z M 72,156 l 4,0 0,4 -4,0 z M 80,156 l 4,0 0,4 -4,0 z M 84,156 l 4,0 0,4 -4,0 z M 96,156 l 4,0 0,4 -4,0 z M 104,156 l 4,0 0,4 -4,0 z M 108,156 l 4,0 0,4 -4,0 z M 116,156 l 4,0 0,4 -4,0 z M 120,156 l 4,0 0,4 -4,0 z M 124,156 l 4,0 0,4 -4,0 z M 128,156 l 4,0 0,4 -4,0 z M 132,156 l 4,0 0,4 -4,0 z M 140,156 l 4,0 0,4 -4,0 z M 148,156 l 4,0 0,4 -4,0 z M 164,156 l 4,0 0,4 -4,0 z M 172,156 l 4,0 0,4 -4,0 z M 176,156 l 4,0 0,4 -4,0 z M 180,156 l 4,0 0,4 -4,0 z M 192,156 l 4,0 0,4 -4,0 z M 200,156 l 4,0 0,4 -4,0 z M 204,156 l 4,0 0,4 -4,0 z M 208,156 l 4,0 0,4 -4,0 z M 212,156 l 4,0 0,4 -4,0 z M 216,156 l 4,0 0,4 -4,0 z M 236,156 l 4,0 0,4 -4,0 z M 244,156 l 4,0 0,4 -4,0 z M 4,160 l 4,0 0,4 -4,0 z M 12,160 l 4,0 0,4 -4,0 z M 16,160 l 4,0 0,4 -4,0 z M 24,160 l 4,0 0,4 -4,0 z M 32,160 l 4,0 0,4 -4,0 z M 36,160 l 4,0 0,4 -4,0 z M 40,160 l 4,0 0,4 -4,0 z M 48,160 l 4,0 0,4 -4,0 z M 52,160 l 4,0 0,4 -4,0 z M 56,160 l 4,0 0,4 -4,0 z M 60,160 l 4,0 0,4 -4,0 z M 76,160 l 4,0 0,4 -4,0 z M 88,160 l 4,0 0,4 -4,0 z M 92,160 l 4,0 0,4 -4,0 z M 100,160 l 4,0 0,4 -4,0 z M 104,160 l 4,0 0,4 -4,0 z M 112,160 l 4,0 0,4 -4,0 z M 128,160 l 4,0 0,4 -4,0 z M 144,160 l 4,0 0,4 -4,0 z M 152,160 l 4,0 0,4 -4,0 z M 168,160 l 4,0 0,4 -4,0 z M 172,160 l 4,0 0,4 -4,0 z M 180,160 l 4,0 0,4 -4,0 z M 200,160 l 4,0 0,4 -4,0 z M 204,160 l 4,0 0,4 -4,0 z M 208,160 l 4,0 0,4 -4,0 z M 216,160 l 4,0 0,4 -4,0 z M 224,160 l 4,0 0,4 -4,0 z M 244,160 l 4,0 0,4 -4,0 z M 4,164 l 4,0 0,4 -4,0 z M 8,164 l 4,0 0,4 -4,0 z M 20,164 l 4,0 0,4 -4,0 z M 24,164 l 4,0 0,4 -4,0 z M 28,164 l 4,0 0,4 -4,0 z M 40,164 l 4,0 0,4 -4,0 z M 52,164 l 4,0 0,4 -4,0 z M 72,164 l 4,0 0,4 -4,0 z M 108,164 l 4,0 0,4 -4,0 z M 120,164 l 4,0 0,4 -4,0 z M 124,164 l 4,0 0,4 -4,0 z M 132,164 l 4,0 0,4 -4,0 z M 136,164 l 4,0 0,4 -4,0 z M 148,164 l 4,0 0,4 -4,0 z M 156,164 l 4,0 0,4 -4,0 z M 160,164 l 4,0 0,4 -4,0 z M 168,164 l 4,0 0,4 -4,0 z M 176,164 l 4,0 0,4 -4,0 z M 180,164 l 4,0 0,4 -4,0 z M 184,164 l 4,0 0,4 -4,0 z M 188,164 l 4,0 0,4 -4,0 z M 192,164 l 4,0 0,4 -4,0 z M 196,164 l 4,0 0,4 -4,0 z M 200,164 l 4,0 0,4 -4,0 z M 208,164 l 4,0 0,4 -4,0 z M 236,164 l 4,0 0,4 -4,0 z M 4,168 l 4,0 0,4 -4,0 z M 8,168 l 4,0 0,4 -4,0 z M 12,168 l 4,0 0,4 -4,0 z M 24,168 l 4,0 0,4 -4,0 z M 36,168 l 4,0 0,4 -4,0 z M 44,168 l 4,0 0,4 -4,0 z M 52,168 l 4,0 0,4 -4,0 z M 60,168 l 4,0 0,4 -4,0 z M 64,168 l 4,0 0,4 -4,0 z M 68,168 l 4,0 0,4 -4,0 z M 80,168 l 4,0 0,4 -4,0 z M 96,168 l 4,0 0,4 -4,0 z M 108,168 l 4,0 0,4 -4,0 z M 112,168 l 4,0 0,4 -4,0 z M 116,168 l 4,0 0,4 -4,0 z M 124,168 l 4,0 0,4 -4,0 z M 132,168 l 4,0 0,4 -4,0 z M 140,168 l 4,0 0,4 -4,0 z M 148,168 l 4,0 0,4 -4,0 z M 156,168 l 4,0 0,4 -4,0 z M 168,168 l 4,0 0,4 -4,0 z M 172,168 l 4,0 0,4 -4,0 z M 184,168 l 4,0 0,4 -4,0 z M 188,168 l 4,0 0,4 -4,0 z M 192,168 l 4,0 0,4 -4,0 z M 196,168 l 4,0 0,4 -4,0 z M 204,168 l 4,0 0,4 -4,0 z M 220,168 l 4,0 0,4 -4,0 z M 4,172 l 4,0 0,4 -4,0 z M 8,172 l 4,0 0,4 -4,0 z M 28,172 l 4,0 0,4 -4,0 z M 32,172 l 4,0 0,4 -4,0 z M 36,172 l 4,0 0,4 -4,0 z M 40,172 l 4,0 0,4 -4,0 z M 44,172 l 4,0 0,4 -4,0 z M 56,172 l 4,0 0,4 -4,0 z M 64,172 l 4,0 0,4 -4,0 z M 68,172 l 4,0 0,4 -4,0 z M 76,172 l 4,0 0,4 -4,0 z M 88,172 l 4,0 0,4 -4,0 z M 124,172 l 4,0 0,4 -4,0 z M 128,172 l 4,0 0,4 -4,0 z M 136,172 l 4,0 0,4 -4,0 z M 140,172 l 4,0 0,4 -4,0 z M 144,172 l 4,0 0,4 -4,0 z M 152,172 l 4,0 0,4 -4,0 z M 156,172 l 4,0 0,4 -4,0 z M 160,172 l 4,0 0,4 -4,0 z M 164,172 l 4,0 0,4 -4,0 z M 168,172 l 4,0 0,4 -4,0 z M 172,172 l 4,0 0,4 -4,0 z M 176,172 l 4,0 0,4 -4,0 z M 188,172 l 4,0 0,4 -4,0 z M 192,172 l 4,0 0,4 -4,0 z M 200,172 l 4,0 0,4 -4,0 z M 204,172 l 4,0 0,4 -4,0 z M 212,172 l 4,0 0,4 -4,0 z M 240,172 l 4,0 0,4 -4,0 z M 244,172 l 4,0 0,4 -4,0 z M 4,176 l 4,0 0,4 -4,0 z M 8,176 l 4,0 0,4 -4,0 z M 24,176 l 4,0 0,4 -4,0 z M 36,176 l 4,0 0,4 -4,0 z M 52,176 l 4,0 0,4 -4,0 z M 60,176 l 4,0 0,4 -4,0 z M 72,176 l 4,0 0,4 -4,0 z M 100,176 l 4,0 0,4 -4,0 z M 104,176 l 4,0 0,4 -4,0 z M 108,176 l 4,0 0,4 -4,0 z M 116,176 l 4,0 0,4 -4,0 z M 124,176 l 4,0 0,4 -4,0 z M 128,176 l 4,0 0,4 -4,0 z M 140,176 l 4,0 0,4 -4,0 z M 144,176 l 4,0 0,4 -4,0 z M 160,176 l 4,0 0,4 -4,0 z M 168,176 l 4,0 0,4 -4,0 z M 172,176 l 4,0 0,4 -4,0 z M 180,176 l 4,0 0,4 -4,0 z M 184,176 l 4,0 0,4 -4,0 z M 196,176 l 4,0 0,4 -4,0 z M 204,176 l 4,0 0,4 -4,0 z M 216,176 l 4,0 0,4 -4,0 z M 220,176 l 4,0 0,4 -4,0 z M 232,176 l 4,0 0,4 -4,0 z M 236,176 l 4,0 0,4 -4,0 z M 240,176 l 4,0 0,4 -4,0 z M 244,176 l 4,0 0,4 -4,0 z M 4,180 l 4,0 0,4 -4,0 z M 8,180 l 4,0 0,4 -4,0 z M 16,180 l 4,0 0,4 -4,0 z M 28,180 l 4,0 0,4 -4,0 z M 36,180 l 4,0 0,4 -4,0 z M 40,180 l 4,0 0,4 -4,0 z M 44,180 l 4,0 0,4 -4,0 z M 48,180 l 4,0 0,4 -4,0 z M 52,180 l 4,0 0,4 -4,0 z M 64,180 l 4,0 0,4 -4,0 z M 68,180 l 4,0 0,4 -4,0 z M 72,180 l 4,0 0,4 -4,0 z M 76,180 l 4,0 0,4 -4,0 z M 80,180 l 4,0 0,4 -4,0 z M 84,180 l 4,0 0,4 -4,0 z M 88,180 l 4,0 0,4 -4,0 z M 92,180 l 4,0 0,4 -4,0 z M 96,180 l 4,0 0,4 -4,0 z M 100,180 l 4,0 0,4 -4,0 z M 108,180 l 4,0 0,4 -4,0 z M 112,180 l 4,0 0,4 -4,0 z M 120,180 l 4,0 0,4 -4,0 z M 136,180 l 4,0 0,4 -4,0 z M 140,180 l 4,0 0,4 -4,0 z M 152,180 l 4,0 0,4 -4,0 z M 160,180 l 4,0 0,4 -4,0 z M 168,180 l 4,0 0,4 -4,0 z M 172,180 l 4,0 0,4 -4,0 z M 180,180 l 4,0 0,4 -4,0 z M 184,180 l 4,0 0,4 -4,0 z M 196,180 l 4,0 0,4 -4,0 z M 200,180 l 4,0 0,4 -4,0 z M 220,180 l 4,0 0,4 -4,0 z M 224,180 l 4,0 0,4 -4,0 z M 228,180 l 4,0 0,4 -4,0 z M 232,180 l 4,0 0,4 -4,0 z M 244,180 l 4,0 0,4 -4,0 z M 8,184 l 4,0 0,4 -4,0 z M 12,184 l 4,0 0,4 -4,0 z M 24,184 l 4,0 0,4 -4,0 z M 36,184 l 4,0 0,4 -4,0 z M 72,184 l 4,0 0,4 -4,0 z M 92,184 l 4,0 0,4 -4,0 z M 100,184 l 4,0 0,4 -4,0 z M 104,184 l 4,0 0,4 -4,0 z M 108,184 l 4,0 0,4 -4,0 z M 120,184 l 4,0 0,4 -4,0 z M 124,184 l 4,0 0,4 -4,0 z M 128,184 l 4,0 0,4 -4,0 z M 132,184 l 4,0 0,4 -4,0 z M 136,184 l 4,0 0,4 -4,0 z M 140,184 l 4,0 0,4 -4,0 z M 144,184 l 4,0 0,4 -4,0 z M 148,184 l 4,0 0,4 -4,0 z M 152,184 l 4,0 0,4 -4,0 z M 156,184 l 4,0 0,4 -4,0 z M 168,184 l 4,0 0,4 -4,0 z M 184,184 l 4,0 0,4 -4,0 z M 196,184 l 4,0 0,4 -4,0 z M 200,184 l 4,0 0,4 -4,0 z M 208,184 l 4,0 0,4 -4,0 z M 212,184 l 4,0 0,4 -4,0 z M 220,184 l 4,0 0,4 -4,0 z M 224,184 l 4,0 0,4 -4,0 z M 240,184 l 4,0 0,4 -4,0 z M 244,184 l 4,0 0,4 -4,0 z M 4,188 l 4,0 0,4 -4,0 z M 12,188 l 4,0 0,4 -4,0 z M 20,188 l 4,0 0,4 -4,0 z M 24,188 l 4,0 0,4 -4,0 z M 28,188 l 4,0 0,4 -4,0 z M 36,188 l 4,0 0,4 -4,0 z M 52,188 l 4,0 0,4 -4,0 z M 56,188 l 4,0 0,4 -4,0 z M 72,188 l 4,0 0,4 -4,0 z M 76,188 l 4,0 0,4 -4,0 z M 80,188 l 4,0 0,4 -4,0 z M 84,188 l 4,0 0,4 -4,0 z M 88,188 l 4,0 0,4 -4,0 z M 92,188 l 4,0 0,4 -4,0 z M 116,188 l 4,0 0,4 -4,0 z M 128,188 l 4,0 0,4 -4,0 z M 152,188 l 4,0 0,4 -4,0 z M 192,188 l 4,0 0,4 -4,0 z M 196,188 l 4,0 0,4 -4,0 z M 204,188 l 4,0 0,4 -4,0 z M 208,188 l 4,0 0,4 -4,0 z M 220,188 l 4,0 0,4 -4,0 z M 228,188 l 4,0 0,4 -4,0 z M 232,188 l 4,0 0,4 -4,0 z M 244,188 l 4,0 0,4 -4,0 z M 8,192 l 4,0 0,4 -4,0 z M 12,192 l 4,0 0,4 -4,0 z M 32,192 l 4,0 0,4 -4,0 z M 36,192 l 4,0 0,4 -4,0 z M 48,192 l 4,0 0,4 -4,0 z M 52,192 l 4,0 0,4 -4,0 z M 56,192 l 4,0 0,4 -4,0 z M 64,192 l 4,0 0,4 -4,0 z M 80,192 l 4,0 0,4 -4,0 z M 88,192 l 4,0 0,4 -4,0 z M 96,192 l 4,0 0,4 -4,0 z M 100,192 l 4,0 0,4 -4,0 z M 108,192 l 4,0 0,4 -4,0 z M 112,192 l 4,0 0,4 -4,0 z M 144,192 l 4,0 0,4 -4,0 z M 152,192 l 4,0 0,4 -4,0 z M 160,192 l 4,0 0,4 -4,0 z M 168,192 l 4,0 0,4 -4,0 z M 172,192 l 4,0 0,4 -4,0 z M 176,192 l 4,0 0,4 -4,0 z M 180,192 l 4,0 0,4 -4,0 z M 184,192 l 4,0 0,4 -4,0 z M 200,192 l 4,0 0,4 -4,0 z M 208,192 l 4,0 0,4 -4,0 z M 216,192 l 4,0 0,4 -4,0 z M 220,192 l 4,0 0,4 -4,0 z M 224,192 l 4,0 0,4 -4,0 z M 228,192 l 4,0 0,4 -4,0 z M 232,192 l 4,0 0,4 -4,0 z M 240,192 l 4,0 0,4 -4,0 z M 244,192 l 4,0 0,4 -4,0 z M 4,196 l 4,0 0,4 -4,0 z M 20,196 l 4,0 0,4 -4,0 z M 24,196 l 4,0 0,4 -4,0 z M 28,196 l 4,0 0,4 -4,0 z M 32,196 l 4,0 0,4 -4,0 z M 52,196 l 4,0 0,4 -4,0 z M 60,196 l 4,0 0,4 -4,0 z M 64,196 l 4,0 0,4 -4,0 z M 72,196 l 4,0 0,4 -4,0 z M 80,196 l 4,0 0,4 -4,0 z M 88,196 l 4,0 0,4 -4,0 z M 116,196 l 4,0 0,4 -4,0 z M 124,196 l 4,0 0,4 -4,0 z M 128,196 l 4,0 0,4 -4,0 z M 156,196 l 4,0 0,4 -4,0 z M 160,196 l 4,0 0,4 -4,0 z M 184,196 l 4,0 0,4 -4,0 z M 192,196 l 4,0 0,4 -4,0 z M 196,196 l 4,0 0,4 -4,0 z M 204,196 l 4,0 0,4 -4,0 z M 212,196 l 4,0 0,4 -4,0 z M 224,196 l 4,0 0,4 -4,0 z M 228,196 l 4,0 0,4 -4,0 z M 240,196 l 4,0 0,4 -4,0 z M 8,200 l 4,0 0,4 -4,0 z M 20,200 l 4,0 0,4 -4,0 z M 48,200 l 4,0 0,4 -4,0 z M 56,200 l 4,0 0,4 -4,0 z M 60,200 l 4,0 0,4 -4,0 z M 64,200 l 4,0 0,4 -4,0 z M 68,200 l 4,0 0,4 -4,0 z M 72,200 l 4,0 0,4 -4,0 z M 76,200 l 4,0 0,4 -4,0 z M 88,200 l 4,0 0,4 -4,0 z M 92,200 l 4,0 0,4 -4,0 z M 108,200 l 4,0 0,4 -4,0 z M 120,200 l 4,0 0,4 -4,0 z M 132,200 l 4,0 0,4 -4,0 z M 136,200 l 4,0 0,4 -4,0 z M 148,200 l 4,0 0,4 -4,0 z M 152,200 l 4,0 0,4 -4,0 z M 160,200 l 4,0 0,4 -4,0 z M 164,200 l 4,0 0,4 -4,0 z M 172,200 l 4,0 0,4 -4,0 z M 176,200 l 4,0 0,4 -4,0 z M 180,200 l 4,0 0,4 -4,0 z M 184,200 l 4,0 0,4 -4,0 z M 188,200 l 4,0 0,4 -4,0 z M 196,200 l 4,0 0,4 -4,0 z M 204,200 l 4,0 0,4 -4,0 z M 208,200 l 4,0 0,4 -4,0 z M 220,200 l 4,0 0,4 -4,0 z M 228,200 l 4,0 0,4 -4,0 z M 240,200 l 4,0 0,4 -4,0 z M 12,204 l 4,0 0,4 -4,0 z M 16,204 l 4,0 0,4 -4,0 z M 20,204 l 4,0 0,4 -4,0 z M 24,204 l 4,0 0,4 -4,0 z M 28,204 l 4,0 0,4 -4,0 z M 32,204 l 4,0 0,4 -4,0 z M 44,204 l 4,0 0,4 -4,0 z M 52,204 l 4,0 0,4 -4,0 z M 60,204 l 4,0 0,4 -4,0 z M 64,204 l 4,0 0,4 -4,0 z M 68,204 l 4,0 0,4 -4,0 z M 72,204 l 4,0 0,4 -4,0 z M 84,204 l 4,0 0,4 -4,0 z M 96,204 l 4,0 0,4 -4,0 z M 100,204 l 4,0 0,4 -4,0 z M 108,204 l 4,0 0,4 -4,0 z M 112,204 l 4,0 0,4 -4,0 z M 120,204 l 4,0 0,4 -4,0 z M 132,204 l 4,0 0,4 -4,0 z M 136,204 l 4,0 0,4 -4,0 z M 140,204 l 4,0 0,4 -4,0 z M 144,204 l 4,0 0,4 -4,0 z M 148,204 l 4,0 0,4 -4,0 z M 152,204 l 4,0 0,4 -4,0 z M 160,204 l 4,0 0,4 -4,0 z M 168,204 l 4,0 0,4 -4,0 z M 176,204 l 4,0 0,4 -4,0 z M 184,204 l 4,0 0,4 -4,0 z M 188,204 l 4,0 0,4 -4,0 z M 200,204 l 4,0 0,4 -4,0 z M 224,204 l 4,0 0,4 -4,0 z M 228,204 l 4,0 0,4 -4,0 z M 240,204 l 4,0 0,4 -4,0 z M 4,208 l 4,0 0,4 -4,0 z M 8,208 l 4,0 0,4 -4,0 z M 12,208 l 4,0 0,4 -4,0 z M 20,208 l 4,0 0,4 -4,0 z M 32,208 l 4,0 0,4 -4,0 z M 44,208 l 4,0 0,4 -4,0 z M 64,208 l 4,0 0,4 -4,0 z M 68,208 l 4,0 0,4 -4,0 z M 72,208 l 4,0 0,4 -4,0 z M 76,208 l 4,0 0,4 -4,0 z M 80,208 l 4,0 0,4 -4,0 z M 88,208 l 4,0 0,4 -4,0 z M 104,208 l 4,0 0,4 -4,0 z M 120,208 l 4,0 0,4 -4,0 z M 124,208 l 4,0 0,4 -4,0 z M 132,208 l 4,0 0,4 -4,0 z M 140,208 l 4,0 0,4 -4,0 z M 148,208 l 4,0 0,4 -4,0 z M 156,208 l 4,0 0,4 -4,0 z M 160,208 l 4,0 0,4 -4,0 z M 168,208 l 4,0 0,4 -4,0 z M 180,208 l 4,0 0,4 -4,0 z M 188,208 l 4,0 0,4 -4,0 z M 192,208 l 4,0 0,4 -4,0 z M 196,208 l 4,0 0,4 -4,0 z M 200,208 l 4,0 0,4 -4,0 z M 224,208 l 4,0 0,4 -4,0 z M 232,208 l 4,0 0,4 -4,0 z M 236,208 l 4,0 0,4 -4,0 z M 4,212 l 4,0 0,4 -4,0 z M 8,212 l 4,0 0,4 -4,0 z M 12,212 l 4,0 0,4 -4,0 z M 16,212 l 4,0 0,4 -4,0 z M 28,212 l 4,0 0,4 -4,0 z M 44,212 l 4,0 0,4 -4,0 z M 48,212 l 4,0 0,4 -4,0 z M 56,212 l 4,0 0,4 -4,0 z M 64,212 l 4,0 0,4 -4,0 z M 76,212 l 4,0 0,4 -4,0 z M 96,212 l 4,0 0,4 -4,0 z M 116,212 l 4,0 0,4 -4,0 z M 120,212 l 4,0 0,4 -4,0 z M 124,212 l 4,0 0,4 -4,0 z M 128,212 l 4,0 0,4 -4,0 z M 132,212 l 4,0 0,4 -4,0 z M 156,212 l 4,0 0,4 -4,0 z M 160,212 l 4,0 0,4 -4,0 z M 168,212 l 4,0 0,4 -4,0 z M 172,212 l 4,0 0,4 -4,0 z M 184,212 l 4,0 0,4 -4,0 z M 212,212 l 4,0 0,4 -4,0 z M 216,212 l 4,0 0,4 -4,0 z M 220,212 l 4,0 0,4 -4,0 z M 224,212 l 4,0 0,4 -4,0 z M 228,212 l 4,0 0,4 -4,0 z M 236,212 l 4,0 0,4 -4,0 z M 240,212 l 4,0 0,4 -4,0 z M 244,212 l 4,0 0,4 -4,0 z M 36,216 l 4,0 0,4 -4,0 z M 44,216 l 4,0 0,4 -4,0 z M 48,216 l 4,0 0,4 -4,0 z M 60,216 l 4,0 0,4 -4,0 z M 64,216 l 4,0 0,4 -4,0 z M 68,216 l 4,0 0,4 -4,0 z M 72,216 l 4,0 0,4 -4,0 z M 76,216 l 4,0 0,4 -4,0 z M 80,216 l 4,0 0,4 -4,0 z M 84,216 l 4,0 0,4 -4,0 z M 104,216 l 4,0 0,4 -4,0 z M 108,216 l 4,0 0,4 -4,0 z M 116,216 l 4,0 0,4 -4,0 z M 132,216 l 4,0 0,4 -4,0 z M 156,216 l 4,0 0,4 -4,0 z M 164,216 l 4,0 0,4 -4,0 z M 184,216 l 4,0 0,4 -4,0 z M 196,216 l 4,0 0,4 -4,0 z M 208,216 l 4,0 0,4 -4,0 z M 212,216 l 4,0 0,4 -4,0 z M 228,216 l 4,0 0,4 -4,0 z M 232,216 l 4,0 0,4 -4,0 z M 236,216 l 4,0 0,4 -4,0 z M 240,216 l 4,0 0,4 -4,0 z M 244,216 l 4,0 0,4 -4,0 z M 4,220 l 4,0 0,4 -4,0 z M 8,220 l 4,0 0,4 -4,0 z M 12,220 l 4,0 0,4 -4,0 z M 16,220 l 4,0 0,4 -4,0 z M 20,220 l 4,0 0,4 -4,0 z M 24,220 l 4,0 0,4 -4,0 z M 28,220 l 4,0 0,4 -4,0 z M 36,220 l 4,0 0,4 -4,0 z M 40,220 l 4,0 0,4 -4,0 z M 44,220 l 4,0 0,4 -4,0 z M 48,220 l 4,0 0,4 -4,0 z M 68,220 l 4,0 0,4 -4,0 z M 72,220 l 4,0 0,4 -4,0 z M 96,220 l 4,0 0,4 -4,0 z M 116,220 l 4,0 0,4 -4,0 z M 124,220 l 4,0 0,4 -4,0 z M 132,220 l 4,0 0,4 -4,0 z M 136,220 l 4,0 0,4 -4,0 z M 152,220 l 4,0 0,4 -4,0 z M 164,220 l 4,0 0,4 -4,0 z M 188,220 l 4,0 0,4 -4,0 z M 196,220 l 4,0 0,4 -4,0 z M 200,220 l 4,0 0,4 -4,0 z M 204,220 l 4,0 0,4 -4,0 z M 208,220 l 4,0 0,4 -4,0 z M 212,220 l 4,0 0,4 -4,0 z M 220,220 l 4,0 0,4 -4,0 z M 228,220 l 4,0 0,4 -4,0 z M 232,220 l 4,0 0,4 -4,0 z M 236,220 l 4,0 0,4 -4,0 z M 240,220 l 4,0 0,4 -4,0 z M 4,224 l 4,0 0,4 -4,0 z M 28,224 l 4,0 0,4 -4,0 z M 40,224 l 4,0 0,4 -4,0 z M 48,224 l 4,0 0,4 -4,0 z M 52,224 l 4,0 0,4 -4,0 z M 80,224 l 4,0 0,4 -4,0 z M 88,224 l 4,0 0,4 -4,0 z M 92,224 l 4,0 0,4 -4,0 z M 96,224 l 4,0 0,4 -4,0 z M 100,224 l 4,0 0,4 -4,0 z M 104,224 l 4,0 0,4 -4,0 z M 116,224 l 4,0 0,4 -4,0 z M 132,224 l 4,0 0,4 -4,0 z M 136,224 l 4,0 0,4 -4,0 z M 148,224 l 4,0 0,4 -4,0 z M 164,224 l 4,0 0,4 -4,0 z M 168,224 l 4,0 0,4 -4,0 z M 172,224 l 4,0 0,4 -4,0 z M 180,224 l 4,0 0,4 -4,0 z M 196,224 l 4,0 0,4 -4,0 z M 200,224 l 4,0 0,4 -4,0 z M 208,224 l 4,0 0,4 -4,0 z M 212,224 l 4,0 0,4 -4,0 z M 228,224 l 4,0 0,4 -4,0 z M 236,224 l 4,0 0,4 -4,0 z M 244,224 l 4,0 0,4 -4,0 z M 4,228 l 4,0 0,4 -4,0 z M 12,228 l 4,0 0,4 -4,0 z M 16,228 l 4,0 0,4 -4,0 z M 20,228 l 4,0 0,4 -4,0 z M 28,228 l 4,0 0,4 -4,0 z M 36,228 l 4,0 0,4 -4,0 z M 44,228 l 4,0 0,4 -4,0 z M 52,228 l 4,0 0,4 -4,0 z M 56,228 l 4,0 0,4 -4,0 z M 60,228 l 4,0 0,4 -4,0 z M 92,228 l 4,0 0,4 -4,0 z M 108,228 l 4,0 0,4 -4,0 z M 112,228 l 4,0 0,4 -4,0 z M 116,228 l 4,0 0,4 -4,0 z M 120,228 l 4,0 0,4 -4,0 z M 124,228 l 4,0 0,4 -4,0 z M 128,228 l 4,0 0,4 -4,0 z M 132,228 l 4,0 0,4 -4,0 z M 140,228 l 4,0 0,4 -4,0 z M 144,228 l 4,0 0,4 -4,0 z M 160,228 l 4,0 0,4 -4,0 z M 164,228 l 4,0 0,4 -4,0 z M 176,228 l 4,0 0,4 -4,0 z M 192,228 l 4,0 0,4 -4,0 z M 208,228 l 4,0 0,4 -4,0 z M 212,228 l 4,0 0,4 -4,0 z M 216,228 l 4,0 0,4 -4,0 z M 220,228 l 4,0 0,4 -4,0 z M 224,228 l 4,0 0,4 -4,0 z M 228,228 l 4,0 0,4 -4,0 z M 236,228 l 4,0 0,4 -4,0 z M 244,228 l 4,0 0,4 -4,0 z M 4,232 l 4,0 0,4 -4,0 z M 12,232 l 4,0 0,4 -4,0 z M 16,232 l 4,0 0,4 -4,0 z M 20,232 l 4,0 0,4 -4,0 z M 28,232 l 4,0 0,4 -4,0 z M 36,232 l 4,0 0,4 -4,0 z M 40,232 l 4,0 0,4 -4,0 z M 44,232 l 4,0 0,4 -4,0 z M 48,232 l 4,0 0,4 -4,0 z M 52,232 l 4,0 0,4 -4,0 z M 56,232 l 4,0 0,4 -4,0 z M 60,232 l 4,0 0,4 -4,0 z M 64,232 l 4,0 0,4 -4,0 z M 72,232 l 4,0 0,4 -4,0 z M 76,232 l 4,0 0,4 -4,0 z M 84,232 l 4,0 0,4 -4,0 z M 88,232 l 4,0 0,4 -4,0 z M 104,232 l 4,0 0,4 -4,0 z M 108,232 l 4,0 0,4 -4,0 z M 112,232 l 4,0 0,4 -4,0 z M 116,232 l 4,0 0,4 -4,0 z M 132,232 l 4,0 0,4 -4,0 z M 136,232 l 4,0 0,4 -4,0 z M 140,232 l 4,0 0,4 -4,0 z M 156,232 l 4,0 0,4 -4,0 z M 160,232 l 4,0 0,4 -4,0 z M 172,232 l 4,0 0,4 -4,0 z M 184,232 l 4,0 0,4 -4,0 z M 192,232 l 4,0 0,4 -4,0 z M 216,232 l 4,0 0,4 -4,0 z M 220,232 l 4,0 0,4 -4,0 z M 224,232 l 4,0 0,4 -4,0 z M 236,232 l 4,0 0,4 -4,0 z M 244,232 l 4,0 0,4 -4,0 z M 4,236 l 4,0 0,4 -4,0 z M 12,236 l 4,0 0,4 -4,0 z M 16,236 l 4,0 0,4 -4,0 z M 20,236 l 4,0 0,4 -4,0 z M 28,236 l 4,0 0,4 -4,0 z M 36,236 l 4,0 0,4 -4,0 z M 40,236 l 4,0 0,4 -4,0 z M 44,236 l 4,0 0,4 -4,0 z M 48,236 l 4,0 0,4 -4,0 z M 64,236 l 4,0 0,4 -4,0 z M 68,236 l 4,0 0,4 -4,0 z M 72,236 l 4,0 0,4 -4,0 z M 104,236 l 4,0 0,4 -4,0 z M 112,236 l 4,0 0,4 -4,0 z M 120,236 l 4,0 0,4 -4,0 z M 124,236 l 4,0 0,4 -4,0 z M 132,236 l 4,0 0,4 -4,0 z M 136,236 l 4,0 0,4 -4,0 z M 140,236 l 4,0 0,4 -4,0 z M 144,236 l 4,0 0,4 -4,0 z M 148,236 l 4,0 0,4 -4,0 z M 152,236 l 4,0 0,4 -4,0 z M 156,236 l 4,0 0,4 -4,0 z M 160,236 l 4,0 0,4 -4,0 z M 176,236 l 4,0 0,4 -4,0 z M 196,236 l 4,0 0,4 -4,0 z M 204,236 l 4,0 0,4 -4,0 z M 208,236 l 4,0 0,4 -4,0 z M 212,236 l 4,0 0,4 -4,0 z M 216,236 l 4,0 0,4 -4,0 z M 220,236 l 4,0 0,4 -4,0 z M 228,236 l 4,0 0,4 -4,0 z M 232,236 l 4,0 0,4 -4,0 z M 244,236 l 4,0 0,4 -4,0 z M 4,240 l 4,0 0,4 -4,0 z M 28,240 l 4,0 0,4 -4,0 z M 36,240 l 4,0 0,4 -4,0 z M 40,240 l 4,0 0,4 -4,0 z M 56,240 l 4,0 0,4 -4,0 z M 84,240 l 4,0 0,4 -4,0 z M 88,240 l 4,0 0,4 -4,0 z M 96,240 l 4,0 0,4 -4,0 z M 100,240 l 4,0 0,4 -4,0 z M 120,240 l 4,0 0,4 -4,0 z M 124,240 l 4,0 0,4 -4,0 z M 136,240 l 4,0 0,4 -4,0 z M 140,240 l 4,0 0,4 -4,0 z M 148,240 l 4,0 0,4 -4,0 z M 152,240 l 4,0 0,4 -4,0 z M 168,240 l 4,0 0,4 -4,0 z M 172,240 l 4,0 0,4 -4,0 z M 184,240 l 4,0 0,4 -4,0 z M 200,240 l 4,0 0,4 -4,0 z M 208,240 l 4,0 0,4 -4,0 z M 220,240 l 4,0 0,4 -4,0 z M 232,240 l 4,0 0,4 -4,0 z M 236,240 l 4,0 0,4 -4,0 z M 4,244 l 4,0 0,4 -4,0 z M 8,244 l 4,0 0,4 -4,0 z M 12,244 l 4,0 0,4 -4,0 z M 16,244 l 4,0 0,4 -4,0 z M 20,244 l 4,0 0,4 -4,0 z M 24,244 l 4,0 0,4 -4,0 z M 28,244 l 4,0 0,4 -4,0 z M 36,244 l 4,0 0,4 -4,0 z M 40,244 l 4,0 0,4 -4,0 z M 44,244 l 4,0 0,4 -4,0 z M 48,244 l 4,0 0,4 -4,0 z M 64,244 l 4,0 0,4 -4,0 z M 72,244 l 4,0 0,4 -4,0 z M 76,244 l 4,0 0,4 -4,0 z M 80,244 l 4,0 0,4 -4,0 z M 84,244 l 4,0 0,4 -4,0 z M 88,244 l 4,0 0,4 -4,0 z M 108,244 l 4,0 0,4 -4,0 z M 132,244 l 4,0 0,4 -4,0 z M 136,244 l 4,0 0,4 -4,0 z M 140,244 l 4,0 0,4 -4,0 z M 152,244 l 4,0 0,4 -4,0 z M 184,244 l 4,0 0,4 -4,0 z M 192,244 l 4,0 0,4 -4,0 z M 196,244 l 4,0 0,4 -4,0 z M 200,244 l 4,0 0,4 -4,0 z M 204,244 l 4,0 0,4 -4,0 z M 208,244 l 4,0 0,4 -4,0 z M 212,244 l 4,0 0,4 -4,0 z M 224,244 l 4,0 0,4 -4,0 z M 232,244 l 4,0 0,4 -4,0 z M 244,244 l 4,0 0,4 -4,0 z " />
	</g>
</svg>
