<?xml version="1.0" standalone="no"?>
<svg xmlns="http://www.w3.org/2000/svg" version="1.1" width="201" height="201">
	<!-- Created with https://api.qrserver.com (QR Code API, see goQR.me/api for information) -->
	<title>QR Code</title>
	<desc>BEGIN:VCARD
VERSION:2.1
FN:Jakub Šindelář
N:Šindelář;Jakub
TEL;CELL:+420 734 300 346
TEL;WORK;VOICE:+420 724 148 107
EMAIL;HOME;INTERNET:j.sindelar01@gmail.com
EMAIL;WORK;INTERNET:info@profi-technika.cz
URL:http://www.profi-technika.cz
ADR:;;Kutnohorská 129/28 ;Praha 10 - Dolní Měcholupy ;;109 00;Česká Republika
ORG:Profi-Technika.cz
END:VCARD
</desc>
	<rect style="fill:rgb(255, 255, 255);fill-opacity:1" x="0" y="0" width="201" height="201" />
	<g id="elements">
		<path style="fill:rgb(0, 0, 0)" d="M 3,3 l 3,0 0,3 -3,0 z M 6,3 l 3,0 0,3 -3,0 z M 9,3 l 3,0 0,3 -3,0 z M 12,3 l 3,0 0,3 -3,0 z M 15,3 l 3,0 0,3 -3,0 z M 18,3 l 3,0 0,3 -3,0 z M 21,3 l 3,0 0,3 -3,0 z M 51,3 l 3,0 0,3 -3,0 z M 57,3 l 3,0 0,3 -3,0 z M 60,3 l 3,0 0,3 -3,0 z M 66,3 l 3,0 0,3 -3,0 z M 75,3 l 3,0 0,3 -3,0 z M 78,3 l 3,0 0,3 -3,0 z M 81,3 l 3,0 0,3 -3,0 z M 84,3 l 3,0 0,3 -3,0 z M 87,3 l 3,0 0,3 -3,0 z M 93,3 l 3,0 0,3 -3,0 z M 99,3 l 3,0 0,3 -3,0 z M 111,3 l 3,0 0,3 -3,0 z M 114,3 l 3,0 0,3 -3,0 z M 129,3 l 3,0 0,3 -3,0 z M 132,3 l 3,0 0,3 -3,0 z M 138,3 l 3,0 0,3 -3,0 z M 147,3 l 3,0 0,3 -3,0 z M 156,3 l 3,0 0,3 -3,0 z M 162,3 l 3,0 0,3 -3,0 z M 168,3 l 3,0 0,3 -3,0 z M 177,3 l 3,0 0,3 -3,0 z M 180,3 l 3,0 0,3 -3,0 z M 183,3 l 3,0 0,3 -3,0 z M 186,3 l 3,0 0,3 -3,0 z M 189,3 l 3,0 0,3 -3,0 z M 192,3 l 3,0 0,3 -3,0 z M 195,3 l 3,0 0,3 -3,0 z M 3,6 l 3,0 0,3 -3,0 z M 21,6 l 3,0 0,3 -3,0 z M 27,6 l 3,0 0,3 -3,0 z M 30,6 l 3,0 0,3 -3,0 z M 45,6 l 3,0 0,3 -3,0 z M 48,6 l 3,0 0,3 -3,0 z M 51,6 l 3,0 0,3 -3,0 z M 54,6 l 3,0 0,3 -3,0 z M 69,6 l 3,0 0,3 -3,0 z M 75,6 l 3,0 0,3 -3,0 z M 78,6 l 3,0 0,3 -3,0 z M 81,6 l 3,0 0,3 -3,0 z M 87,6 l 3,0 0,3 -3,0 z M 90,6 l 3,0 0,3 -3,0 z M 93,6 l 3,0 0,3 -3,0 z M 96,6 l 3,0 0,3 -3,0 z M 105,6 l 3,0 0,3 -3,0 z M 111,6 l 3,0 0,3 -3,0 z M 117,6 l 3,0 0,3 -3,0 z M 120,6 l 3,0 0,3 -3,0 z M 123,6 l 3,0 0,3 -3,0 z M 141,6 l 3,0 0,3 -3,0 z M 147,6 l 3,0 0,3 -3,0 z M 150,6 l 3,0 0,3 -3,0 z M 153,6 l 3,0 0,3 -3,0 z M 156,6 l 3,0 0,3 -3,0 z M 171,6 l 3,0 0,3 -3,0 z M 177,6 l 3,0 0,3 -3,0 z M 195,6 l 3,0 0,3 -3,0 z M 3,9 l 3,0 0,3 -3,0 z M 9,9 l 3,0 0,3 -3,0 z M 12,9 l 3,0 0,3 -3,0 z M 15,9 l 3,0 0,3 -3,0 z M 21,9 l 3,0 0,3 -3,0 z M 30,9 l 3,0 0,3 -3,0 z M 39,9 l 3,0 0,3 -3,0 z M 42,9 l 3,0 0,3 -3,0 z M 45,9 l 3,0 0,3 -3,0 z M 75,9 l 3,0 0,3 -3,0 z M 81,9 l 3,0 0,3 -3,0 z M 90,9 l 3,0 0,3 -3,0 z M 93,9 l 3,0 0,3 -3,0 z M 99,9 l 3,0 0,3 -3,0 z M 105,9 l 3,0 0,3 -3,0 z M 108,9 l 3,0 0,3 -3,0 z M 123,9 l 3,0 0,3 -3,0 z M 126,9 l 3,0 0,3 -3,0 z M 129,9 l 3,0 0,3 -3,0 z M 132,9 l 3,0 0,3 -3,0 z M 144,9 l 3,0 0,3 -3,0 z M 159,9 l 3,0 0,3 -3,0 z M 165,9 l 3,0 0,3 -3,0 z M 171,9 l 3,0 0,3 -3,0 z M 177,9 l 3,0 0,3 -3,0 z M 183,9 l 3,0 0,3 -3,0 z M 186,9 l 3,0 0,3 -3,0 z M 189,9 l 3,0 0,3 -3,0 z M 195,9 l 3,0 0,3 -3,0 z M 3,12 l 3,0 0,3 -3,0 z M 9,12 l 3,0 0,3 -3,0 z M 12,12 l 3,0 0,3 -3,0 z M 15,12 l 3,0 0,3 -3,0 z M 21,12 l 3,0 0,3 -3,0 z M 27,12 l 3,0 0,3 -3,0 z M 39,12 l 3,0 0,3 -3,0 z M 45,12 l 3,0 0,3 -3,0 z M 48,12 l 3,0 0,3 -3,0 z M 51,12 l 3,0 0,3 -3,0 z M 54,12 l 3,0 0,3 -3,0 z M 63,12 l 3,0 0,3 -3,0 z M 75,12 l 3,0 0,3 -3,0 z M 78,12 l 3,0 0,3 -3,0 z M 87,12 l 3,0 0,3 -3,0 z M 93,12 l 3,0 0,3 -3,0 z M 96,12 l 3,0 0,3 -3,0 z M 102,12 l 3,0 0,3 -3,0 z M 111,12 l 3,0 0,3 -3,0 z M 114,12 l 3,0 0,3 -3,0 z M 117,12 l 3,0 0,3 -3,0 z M 120,12 l 3,0 0,3 -3,0 z M 135,12 l 3,0 0,3 -3,0 z M 141,12 l 3,0 0,3 -3,0 z M 147,12 l 3,0 0,3 -3,0 z M 153,12 l 3,0 0,3 -3,0 z M 156,12 l 3,0 0,3 -3,0 z M 159,12 l 3,0 0,3 -3,0 z M 162,12 l 3,0 0,3 -3,0 z M 165,12 l 3,0 0,3 -3,0 z M 168,12 l 3,0 0,3 -3,0 z M 177,12 l 3,0 0,3 -3,0 z M 183,12 l 3,0 0,3 -3,0 z M 186,12 l 3,0 0,3 -3,0 z M 189,12 l 3,0 0,3 -3,0 z M 195,12 l 3,0 0,3 -3,0 z M 3,15 l 3,0 0,3 -3,0 z M 9,15 l 3,0 0,3 -3,0 z M 12,15 l 3,0 0,3 -3,0 z M 15,15 l 3,0 0,3 -3,0 z M 21,15 l 3,0 0,3 -3,0 z M 30,15 l 3,0 0,3 -3,0 z M 36,15 l 3,0 0,3 -3,0 z M 39,15 l 3,0 0,3 -3,0 z M 45,15 l 3,0 0,3 -3,0 z M 48,15 l 3,0 0,3 -3,0 z M 57,15 l 3,0 0,3 -3,0 z M 69,15 l 3,0 0,3 -3,0 z M 72,15 l 3,0 0,3 -3,0 z M 81,15 l 3,0 0,3 -3,0 z M 84,15 l 3,0 0,3 -3,0 z M 93,15 l 3,0 0,3 -3,0 z M 96,15 l 3,0 0,3 -3,0 z M 99,15 l 3,0 0,3 -3,0 z M 102,15 l 3,0 0,3 -3,0 z M 105,15 l 3,0 0,3 -3,0 z M 108,15 l 3,0 0,3 -3,0 z M 117,15 l 3,0 0,3 -3,0 z M 120,15 l 3,0 0,3 -3,0 z M 123,15 l 3,0 0,3 -3,0 z M 126,15 l 3,0 0,3 -3,0 z M 129,15 l 3,0 0,3 -3,0 z M 132,15 l 3,0 0,3 -3,0 z M 135,15 l 3,0 0,3 -3,0 z M 150,15 l 3,0 0,3 -3,0 z M 153,15 l 3,0 0,3 -3,0 z M 162,15 l 3,0 0,3 -3,0 z M 171,15 l 3,0 0,3 -3,0 z M 177,15 l 3,0 0,3 -3,0 z M 183,15 l 3,0 0,3 -3,0 z M 186,15 l 3,0 0,3 -3,0 z M 189,15 l 3,0 0,3 -3,0 z M 195,15 l 3,0 0,3 -3,0 z M 3,18 l 3,0 0,3 -3,0 z M 21,18 l 3,0 0,3 -3,0 z M 27,18 l 3,0 0,3 -3,0 z M 30,18 l 3,0 0,3 -3,0 z M 42,18 l 3,0 0,3 -3,0 z M 54,18 l 3,0 0,3 -3,0 z M 57,18 l 3,0 0,3 -3,0 z M 60,18 l 3,0 0,3 -3,0 z M 69,18 l 3,0 0,3 -3,0 z M 75,18 l 3,0 0,3 -3,0 z M 84,18 l 3,0 0,3 -3,0 z M 87,18 l 3,0 0,3 -3,0 z M 93,18 l 3,0 0,3 -3,0 z M 105,18 l 3,0 0,3 -3,0 z M 108,18 l 3,0 0,3 -3,0 z M 111,18 l 3,0 0,3 -3,0 z M 117,18 l 3,0 0,3 -3,0 z M 120,18 l 3,0 0,3 -3,0 z M 123,18 l 3,0 0,3 -3,0 z M 126,18 l 3,0 0,3 -3,0 z M 129,18 l 3,0 0,3 -3,0 z M 135,18 l 3,0 0,3 -3,0 z M 153,18 l 3,0 0,3 -3,0 z M 156,18 l 3,0 0,3 -3,0 z M 165,18 l 3,0 0,3 -3,0 z M 177,18 l 3,0 0,3 -3,0 z M 195,18 l 3,0 0,3 -3,0 z M 3,21 l 3,0 0,3 -3,0 z M 6,21 l 3,0 0,3 -3,0 z M 9,21 l 3,0 0,3 -3,0 z M 12,21 l 3,0 0,3 -3,0 z M 15,21 l 3,0 0,3 -3,0 z M 18,21 l 3,0 0,3 -3,0 z M 21,21 l 3,0 0,3 -3,0 z M 27,21 l 3,0 0,3 -3,0 z M 33,21 l 3,0 0,3 -3,0 z M 39,21 l 3,0 0,3 -3,0 z M 45,21 l 3,0 0,3 -3,0 z M 51,21 l 3,0 0,3 -3,0 z M 57,21 l 3,0 0,3 -3,0 z M 63,21 l 3,0 0,3 -3,0 z M 69,21 l 3,0 0,3 -3,0 z M 75,21 l 3,0 0,3 -3,0 z M 81,21 l 3,0 0,3 -3,0 z M 87,21 l 3,0 0,3 -3,0 z M 93,21 l 3,0 0,3 -3,0 z M 99,21 l 3,0 0,3 -3,0 z M 105,21 l 3,0 0,3 -3,0 z M 111,21 l 3,0 0,3 -3,0 z M 117,21 l 3,0 0,3 -3,0 z M 123,21 l 3,0 0,3 -3,0 z M 129,21 l 3,0 0,3 -3,0 z M 135,21 l 3,0 0,3 -3,0 z M 141,21 l 3,0 0,3 -3,0 z M 147,21 l 3,0 0,3 -3,0 z M 153,21 l 3,0 0,3 -3,0 z M 159,21 l 3,0 0,3 -3,0 z M 165,21 l 3,0 0,3 -3,0 z M 171,21 l 3,0 0,3 -3,0 z M 177,21 l 3,0 0,3 -3,0 z M 180,21 l 3,0 0,3 -3,0 z M 183,21 l 3,0 0,3 -3,0 z M 186,21 l 3,0 0,3 -3,0 z M 189,21 l 3,0 0,3 -3,0 z M 192,21 l 3,0 0,3 -3,0 z M 195,21 l 3,0 0,3 -3,0 z M 30,24 l 3,0 0,3 -3,0 z M 33,24 l 3,0 0,3 -3,0 z M 39,24 l 3,0 0,3 -3,0 z M 42,24 l 3,0 0,3 -3,0 z M 45,24 l 3,0 0,3 -3,0 z M 48,24 l 3,0 0,3 -3,0 z M 54,24 l 3,0 0,3 -3,0 z M 57,24 l 3,0 0,3 -3,0 z M 66,24 l 3,0 0,3 -3,0 z M 72,24 l 3,0 0,3 -3,0 z M 75,24 l 3,0 0,3 -3,0 z M 78,24 l 3,0 0,3 -3,0 z M 81,24 l 3,0 0,3 -3,0 z M 93,24 l 3,0 0,3 -3,0 z M 105,24 l 3,0 0,3 -3,0 z M 111,24 l 3,0 0,3 -3,0 z M 120,24 l 3,0 0,3 -3,0 z M 129,24 l 3,0 0,3 -3,0 z M 138,24 l 3,0 0,3 -3,0 z M 144,24 l 3,0 0,3 -3,0 z M 147,24 l 3,0 0,3 -3,0 z M 156,24 l 3,0 0,3 -3,0 z M 162,24 l 3,0 0,3 -3,0 z M 168,24 l 3,0 0,3 -3,0 z M 3,27 l 3,0 0,3 -3,0 z M 6,27 l 3,0 0,3 -3,0 z M 9,27 l 3,0 0,3 -3,0 z M 12,27 l 3,0 0,3 -3,0 z M 15,27 l 3,0 0,3 -3,0 z M 21,27 l 3,0 0,3 -3,0 z M 24,27 l 3,0 0,3 -3,0 z M 27,27 l 3,0 0,3 -3,0 z M 39,27 l 3,0 0,3 -3,0 z M 48,27 l 3,0 0,3 -3,0 z M 66,27 l 3,0 0,3 -3,0 z M 81,27 l 3,0 0,3 -3,0 z M 84,27 l 3,0 0,3 -3,0 z M 93,27 l 3,0 0,3 -3,0 z M 96,27 l 3,0 0,3 -3,0 z M 99,27 l 3,0 0,3 -3,0 z M 102,27 l 3,0 0,3 -3,0 z M 105,27 l 3,0 0,3 -3,0 z M 108,27 l 3,0 0,3 -3,0 z M 111,27 l 3,0 0,3 -3,0 z M 129,27 l 3,0 0,3 -3,0 z M 132,27 l 3,0 0,3 -3,0 z M 138,27 l 3,0 0,3 -3,0 z M 141,27 l 3,0 0,3 -3,0 z M 156,27 l 3,0 0,3 -3,0 z M 162,27 l 3,0 0,3 -3,0 z M 165,27 l 3,0 0,3 -3,0 z M 171,27 l 3,0 0,3 -3,0 z M 174,27 l 3,0 0,3 -3,0 z M 180,27 l 3,0 0,3 -3,0 z M 186,27 l 3,0 0,3 -3,0 z M 192,27 l 3,0 0,3 -3,0 z M 3,30 l 3,0 0,3 -3,0 z M 6,30 l 3,0 0,3 -3,0 z M 15,30 l 3,0 0,3 -3,0 z M 18,30 l 3,0 0,3 -3,0 z M 33,30 l 3,0 0,3 -3,0 z M 36,30 l 3,0 0,3 -3,0 z M 48,30 l 3,0 0,3 -3,0 z M 57,30 l 3,0 0,3 -3,0 z M 60,30 l 3,0 0,3 -3,0 z M 66,30 l 3,0 0,3 -3,0 z M 72,30 l 3,0 0,3 -3,0 z M 75,30 l 3,0 0,3 -3,0 z M 78,30 l 3,0 0,3 -3,0 z M 81,30 l 3,0 0,3 -3,0 z M 87,30 l 3,0 0,3 -3,0 z M 90,30 l 3,0 0,3 -3,0 z M 102,30 l 3,0 0,3 -3,0 z M 120,30 l 3,0 0,3 -3,0 z M 129,30 l 3,0 0,3 -3,0 z M 135,30 l 3,0 0,3 -3,0 z M 138,30 l 3,0 0,3 -3,0 z M 141,30 l 3,0 0,3 -3,0 z M 150,30 l 3,0 0,3 -3,0 z M 153,30 l 3,0 0,3 -3,0 z M 162,30 l 3,0 0,3 -3,0 z M 165,30 l 3,0 0,3 -3,0 z M 168,30 l 3,0 0,3 -3,0 z M 177,30 l 3,0 0,3 -3,0 z M 186,30 l 3,0 0,3 -3,0 z M 192,30 l 3,0 0,3 -3,0 z M 195,30 l 3,0 0,3 -3,0 z M 15,33 l 3,0 0,3 -3,0 z M 21,33 l 3,0 0,3 -3,0 z M 27,33 l 3,0 0,3 -3,0 z M 33,33 l 3,0 0,3 -3,0 z M 42,33 l 3,0 0,3 -3,0 z M 54,33 l 3,0 0,3 -3,0 z M 66,33 l 3,0 0,3 -3,0 z M 72,33 l 3,0 0,3 -3,0 z M 75,33 l 3,0 0,3 -3,0 z M 78,33 l 3,0 0,3 -3,0 z M 84,33 l 3,0 0,3 -3,0 z M 90,33 l 3,0 0,3 -3,0 z M 93,33 l 3,0 0,3 -3,0 z M 96,33 l 3,0 0,3 -3,0 z M 105,33 l 3,0 0,3 -3,0 z M 108,33 l 3,0 0,3 -3,0 z M 111,33 l 3,0 0,3 -3,0 z M 123,33 l 3,0 0,3 -3,0 z M 132,33 l 3,0 0,3 -3,0 z M 147,33 l 3,0 0,3 -3,0 z M 153,33 l 3,0 0,3 -3,0 z M 168,33 l 3,0 0,3 -3,0 z M 171,33 l 3,0 0,3 -3,0 z M 174,33 l 3,0 0,3 -3,0 z M 180,33 l 3,0 0,3 -3,0 z M 195,33 l 3,0 0,3 -3,0 z M 3,36 l 3,0 0,3 -3,0 z M 12,36 l 3,0 0,3 -3,0 z M 18,36 l 3,0 0,3 -3,0 z M 27,36 l 3,0 0,3 -3,0 z M 48,36 l 3,0 0,3 -3,0 z M 54,36 l 3,0 0,3 -3,0 z M 57,36 l 3,0 0,3 -3,0 z M 69,36 l 3,0 0,3 -3,0 z M 75,36 l 3,0 0,3 -3,0 z M 81,36 l 3,0 0,3 -3,0 z M 93,36 l 3,0 0,3 -3,0 z M 96,36 l 3,0 0,3 -3,0 z M 111,36 l 3,0 0,3 -3,0 z M 120,36 l 3,0 0,3 -3,0 z M 123,36 l 3,0 0,3 -3,0 z M 126,36 l 3,0 0,3 -3,0 z M 129,36 l 3,0 0,3 -3,0 z M 138,36 l 3,0 0,3 -3,0 z M 141,36 l 3,0 0,3 -3,0 z M 144,36 l 3,0 0,3 -3,0 z M 150,36 l 3,0 0,3 -3,0 z M 153,36 l 3,0 0,3 -3,0 z M 156,36 l 3,0 0,3 -3,0 z M 165,36 l 3,0 0,3 -3,0 z M 171,36 l 3,0 0,3 -3,0 z M 174,36 l 3,0 0,3 -3,0 z M 180,36 l 3,0 0,3 -3,0 z M 189,36 l 3,0 0,3 -3,0 z M 192,36 l 3,0 0,3 -3,0 z M 195,36 l 3,0 0,3 -3,0 z M 3,39 l 3,0 0,3 -3,0 z M 15,39 l 3,0 0,3 -3,0 z M 21,39 l 3,0 0,3 -3,0 z M 24,39 l 3,0 0,3 -3,0 z M 27,39 l 3,0 0,3 -3,0 z M 30,39 l 3,0 0,3 -3,0 z M 39,39 l 3,0 0,3 -3,0 z M 42,39 l 3,0 0,3 -3,0 z M 45,39 l 3,0 0,3 -3,0 z M 57,39 l 3,0 0,3 -3,0 z M 66,39 l 3,0 0,3 -3,0 z M 69,39 l 3,0 0,3 -3,0 z M 78,39 l 3,0 0,3 -3,0 z M 81,39 l 3,0 0,3 -3,0 z M 84,39 l 3,0 0,3 -3,0 z M 87,39 l 3,0 0,3 -3,0 z M 90,39 l 3,0 0,3 -3,0 z M 93,39 l 3,0 0,3 -3,0 z M 102,39 l 3,0 0,3 -3,0 z M 105,39 l 3,0 0,3 -3,0 z M 108,39 l 3,0 0,3 -3,0 z M 117,39 l 3,0 0,3 -3,0 z M 123,39 l 3,0 0,3 -3,0 z M 126,39 l 3,0 0,3 -3,0 z M 132,39 l 3,0 0,3 -3,0 z M 138,39 l 3,0 0,3 -3,0 z M 141,39 l 3,0 0,3 -3,0 z M 150,39 l 3,0 0,3 -3,0 z M 156,39 l 3,0 0,3 -3,0 z M 162,39 l 3,0 0,3 -3,0 z M 165,39 l 3,0 0,3 -3,0 z M 168,39 l 3,0 0,3 -3,0 z M 171,39 l 3,0 0,3 -3,0 z M 174,39 l 3,0 0,3 -3,0 z M 183,39 l 3,0 0,3 -3,0 z M 186,39 l 3,0 0,3 -3,0 z M 189,39 l 3,0 0,3 -3,0 z M 192,39 l 3,0 0,3 -3,0 z M 195,39 l 3,0 0,3 -3,0 z M 3,42 l 3,0 0,3 -3,0 z M 36,42 l 3,0 0,3 -3,0 z M 42,42 l 3,0 0,3 -3,0 z M 57,42 l 3,0 0,3 -3,0 z M 69,42 l 3,0 0,3 -3,0 z M 78,42 l 3,0 0,3 -3,0 z M 81,42 l 3,0 0,3 -3,0 z M 84,42 l 3,0 0,3 -3,0 z M 90,42 l 3,0 0,3 -3,0 z M 93,42 l 3,0 0,3 -3,0 z M 96,42 l 3,0 0,3 -3,0 z M 117,42 l 3,0 0,3 -3,0 z M 120,42 l 3,0 0,3 -3,0 z M 129,42 l 3,0 0,3 -3,0 z M 135,42 l 3,0 0,3 -3,0 z M 138,42 l 3,0 0,3 -3,0 z M 156,42 l 3,0 0,3 -3,0 z M 171,42 l 3,0 0,3 -3,0 z M 174,42 l 3,0 0,3 -3,0 z M 180,42 l 3,0 0,3 -3,0 z M 183,42 l 3,0 0,3 -3,0 z M 195,42 l 3,0 0,3 -3,0 z M 3,45 l 3,0 0,3 -3,0 z M 9,45 l 3,0 0,3 -3,0 z M 21,45 l 3,0 0,3 -3,0 z M 30,45 l 3,0 0,3 -3,0 z M 33,45 l 3,0 0,3 -3,0 z M 39,45 l 3,0 0,3 -3,0 z M 45,45 l 3,0 0,3 -3,0 z M 48,45 l 3,0 0,3 -3,0 z M 54,45 l 3,0 0,3 -3,0 z M 66,45 l 3,0 0,3 -3,0 z M 69,45 l 3,0 0,3 -3,0 z M 72,45 l 3,0 0,3 -3,0 z M 78,45 l 3,0 0,3 -3,0 z M 90,45 l 3,0 0,3 -3,0 z M 93,45 l 3,0 0,3 -3,0 z M 99,45 l 3,0 0,3 -3,0 z M 108,45 l 3,0 0,3 -3,0 z M 111,45 l 3,0 0,3 -3,0 z M 114,45 l 3,0 0,3 -3,0 z M 117,45 l 3,0 0,3 -3,0 z M 126,45 l 3,0 0,3 -3,0 z M 132,45 l 3,0 0,3 -3,0 z M 141,45 l 3,0 0,3 -3,0 z M 144,45 l 3,0 0,3 -3,0 z M 147,45 l 3,0 0,3 -3,0 z M 156,45 l 3,0 0,3 -3,0 z M 162,45 l 3,0 0,3 -3,0 z M 171,45 l 3,0 0,3 -3,0 z M 174,45 l 3,0 0,3 -3,0 z M 3,48 l 3,0 0,3 -3,0 z M 6,48 l 3,0 0,3 -3,0 z M 9,48 l 3,0 0,3 -3,0 z M 12,48 l 3,0 0,3 -3,0 z M 18,48 l 3,0 0,3 -3,0 z M 24,48 l 3,0 0,3 -3,0 z M 42,48 l 3,0 0,3 -3,0 z M 48,48 l 3,0 0,3 -3,0 z M 51,48 l 3,0 0,3 -3,0 z M 54,48 l 3,0 0,3 -3,0 z M 66,48 l 3,0 0,3 -3,0 z M 75,48 l 3,0 0,3 -3,0 z M 84,48 l 3,0 0,3 -3,0 z M 90,48 l 3,0 0,3 -3,0 z M 93,48 l 3,0 0,3 -3,0 z M 96,48 l 3,0 0,3 -3,0 z M 102,48 l 3,0 0,3 -3,0 z M 108,48 l 3,0 0,3 -3,0 z M 111,48 l 3,0 0,3 -3,0 z M 117,48 l 3,0 0,3 -3,0 z M 120,48 l 3,0 0,3 -3,0 z M 123,48 l 3,0 0,3 -3,0 z M 129,48 l 3,0 0,3 -3,0 z M 135,48 l 3,0 0,3 -3,0 z M 138,48 l 3,0 0,3 -3,0 z M 141,48 l 3,0 0,3 -3,0 z M 144,48 l 3,0 0,3 -3,0 z M 153,48 l 3,0 0,3 -3,0 z M 156,48 l 3,0 0,3 -3,0 z M 159,48 l 3,0 0,3 -3,0 z M 165,48 l 3,0 0,3 -3,0 z M 177,48 l 3,0 0,3 -3,0 z M 3,51 l 3,0 0,3 -3,0 z M 6,51 l 3,0 0,3 -3,0 z M 12,51 l 3,0 0,3 -3,0 z M 15,51 l 3,0 0,3 -3,0 z M 21,51 l 3,0 0,3 -3,0 z M 39,51 l 3,0 0,3 -3,0 z M 42,51 l 3,0 0,3 -3,0 z M 45,51 l 3,0 0,3 -3,0 z M 51,51 l 3,0 0,3 -3,0 z M 57,51 l 3,0 0,3 -3,0 z M 69,51 l 3,0 0,3 -3,0 z M 72,51 l 3,0 0,3 -3,0 z M 75,51 l 3,0 0,3 -3,0 z M 87,51 l 3,0 0,3 -3,0 z M 108,51 l 3,0 0,3 -3,0 z M 111,51 l 3,0 0,3 -3,0 z M 114,51 l 3,0 0,3 -3,0 z M 117,51 l 3,0 0,3 -3,0 z M 129,51 l 3,0 0,3 -3,0 z M 135,51 l 3,0 0,3 -3,0 z M 141,51 l 3,0 0,3 -3,0 z M 147,51 l 3,0 0,3 -3,0 z M 150,51 l 3,0 0,3 -3,0 z M 153,51 l 3,0 0,3 -3,0 z M 156,51 l 3,0 0,3 -3,0 z M 162,51 l 3,0 0,3 -3,0 z M 171,51 l 3,0 0,3 -3,0 z M 174,51 l 3,0 0,3 -3,0 z M 189,51 l 3,0 0,3 -3,0 z M 3,54 l 3,0 0,3 -3,0 z M 9,54 l 3,0 0,3 -3,0 z M 15,54 l 3,0 0,3 -3,0 z M 24,54 l 3,0 0,3 -3,0 z M 27,54 l 3,0 0,3 -3,0 z M 42,54 l 3,0 0,3 -3,0 z M 45,54 l 3,0 0,3 -3,0 z M 51,54 l 3,0 0,3 -3,0 z M 54,54 l 3,0 0,3 -3,0 z M 66,54 l 3,0 0,3 -3,0 z M 78,54 l 3,0 0,3 -3,0 z M 81,54 l 3,0 0,3 -3,0 z M 84,54 l 3,0 0,3 -3,0 z M 90,54 l 3,0 0,3 -3,0 z M 93,54 l 3,0 0,3 -3,0 z M 96,54 l 3,0 0,3 -3,0 z M 99,54 l 3,0 0,3 -3,0 z M 102,54 l 3,0 0,3 -3,0 z M 105,54 l 3,0 0,3 -3,0 z M 114,54 l 3,0 0,3 -3,0 z M 120,54 l 3,0 0,3 -3,0 z M 126,54 l 3,0 0,3 -3,0 z M 129,54 l 3,0 0,3 -3,0 z M 132,54 l 3,0 0,3 -3,0 z M 135,54 l 3,0 0,3 -3,0 z M 141,54 l 3,0 0,3 -3,0 z M 147,54 l 3,0 0,3 -3,0 z M 162,54 l 3,0 0,3 -3,0 z M 165,54 l 3,0 0,3 -3,0 z M 180,54 l 3,0 0,3 -3,0 z M 183,54 l 3,0 0,3 -3,0 z M 192,54 l 3,0 0,3 -3,0 z M 195,54 l 3,0 0,3 -3,0 z M 3,57 l 3,0 0,3 -3,0 z M 6,57 l 3,0 0,3 -3,0 z M 12,57 l 3,0 0,3 -3,0 z M 15,57 l 3,0 0,3 -3,0 z M 21,57 l 3,0 0,3 -3,0 z M 24,57 l 3,0 0,3 -3,0 z M 27,57 l 3,0 0,3 -3,0 z M 33,57 l 3,0 0,3 -3,0 z M 39,57 l 3,0 0,3 -3,0 z M 51,57 l 3,0 0,3 -3,0 z M 57,57 l 3,0 0,3 -3,0 z M 69,57 l 3,0 0,3 -3,0 z M 75,57 l 3,0 0,3 -3,0 z M 87,57 l 3,0 0,3 -3,0 z M 105,57 l 3,0 0,3 -3,0 z M 117,57 l 3,0 0,3 -3,0 z M 123,57 l 3,0 0,3 -3,0 z M 126,57 l 3,0 0,3 -3,0 z M 129,57 l 3,0 0,3 -3,0 z M 138,57 l 3,0 0,3 -3,0 z M 147,57 l 3,0 0,3 -3,0 z M 150,57 l 3,0 0,3 -3,0 z M 153,57 l 3,0 0,3 -3,0 z M 156,57 l 3,0 0,3 -3,0 z M 159,57 l 3,0 0,3 -3,0 z M 180,57 l 3,0 0,3 -3,0 z M 183,57 l 3,0 0,3 -3,0 z M 186,57 l 3,0 0,3 -3,0 z M 192,57 l 3,0 0,3 -3,0 z M 9,60 l 3,0 0,3 -3,0 z M 12,60 l 3,0 0,3 -3,0 z M 15,60 l 3,0 0,3 -3,0 z M 27,60 l 3,0 0,3 -3,0 z M 30,60 l 3,0 0,3 -3,0 z M 33,60 l 3,0 0,3 -3,0 z M 42,60 l 3,0 0,3 -3,0 z M 48,60 l 3,0 0,3 -3,0 z M 51,60 l 3,0 0,3 -3,0 z M 54,60 l 3,0 0,3 -3,0 z M 57,60 l 3,0 0,3 -3,0 z M 60,60 l 3,0 0,3 -3,0 z M 69,60 l 3,0 0,3 -3,0 z M 75,60 l 3,0 0,3 -3,0 z M 78,60 l 3,0 0,3 -3,0 z M 81,60 l 3,0 0,3 -3,0 z M 99,60 l 3,0 0,3 -3,0 z M 102,60 l 3,0 0,3 -3,0 z M 108,60 l 3,0 0,3 -3,0 z M 111,60 l 3,0 0,3 -3,0 z M 114,60 l 3,0 0,3 -3,0 z M 117,60 l 3,0 0,3 -3,0 z M 123,60 l 3,0 0,3 -3,0 z M 126,60 l 3,0 0,3 -3,0 z M 129,60 l 3,0 0,3 -3,0 z M 132,60 l 3,0 0,3 -3,0 z M 135,60 l 3,0 0,3 -3,0 z M 144,60 l 3,0 0,3 -3,0 z M 159,60 l 3,0 0,3 -3,0 z M 162,60 l 3,0 0,3 -3,0 z M 183,60 l 3,0 0,3 -3,0 z M 186,60 l 3,0 0,3 -3,0 z M 192,60 l 3,0 0,3 -3,0 z M 9,63 l 3,0 0,3 -3,0 z M 21,63 l 3,0 0,3 -3,0 z M 27,63 l 3,0 0,3 -3,0 z M 33,63 l 3,0 0,3 -3,0 z M 36,63 l 3,0 0,3 -3,0 z M 45,63 l 3,0 0,3 -3,0 z M 57,63 l 3,0 0,3 -3,0 z M 66,63 l 3,0 0,3 -3,0 z M 72,63 l 3,0 0,3 -3,0 z M 75,63 l 3,0 0,3 -3,0 z M 78,63 l 3,0 0,3 -3,0 z M 84,63 l 3,0 0,3 -3,0 z M 87,63 l 3,0 0,3 -3,0 z M 90,63 l 3,0 0,3 -3,0 z M 99,63 l 3,0 0,3 -3,0 z M 102,63 l 3,0 0,3 -3,0 z M 105,63 l 3,0 0,3 -3,0 z M 120,63 l 3,0 0,3 -3,0 z M 123,63 l 3,0 0,3 -3,0 z M 135,63 l 3,0 0,3 -3,0 z M 138,63 l 3,0 0,3 -3,0 z M 141,63 l 3,0 0,3 -3,0 z M 147,63 l 3,0 0,3 -3,0 z M 156,63 l 3,0 0,3 -3,0 z M 162,63 l 3,0 0,3 -3,0 z M 165,63 l 3,0 0,3 -3,0 z M 177,63 l 3,0 0,3 -3,0 z M 180,63 l 3,0 0,3 -3,0 z M 183,63 l 3,0 0,3 -3,0 z M 192,63 l 3,0 0,3 -3,0 z M 6,66 l 3,0 0,3 -3,0 z M 9,66 l 3,0 0,3 -3,0 z M 18,66 l 3,0 0,3 -3,0 z M 27,66 l 3,0 0,3 -3,0 z M 30,66 l 3,0 0,3 -3,0 z M 39,66 l 3,0 0,3 -3,0 z M 42,66 l 3,0 0,3 -3,0 z M 48,66 l 3,0 0,3 -3,0 z M 54,66 l 3,0 0,3 -3,0 z M 57,66 l 3,0 0,3 -3,0 z M 69,66 l 3,0 0,3 -3,0 z M 78,66 l 3,0 0,3 -3,0 z M 81,66 l 3,0 0,3 -3,0 z M 87,66 l 3,0 0,3 -3,0 z M 90,66 l 3,0 0,3 -3,0 z M 93,66 l 3,0 0,3 -3,0 z M 111,66 l 3,0 0,3 -3,0 z M 114,66 l 3,0 0,3 -3,0 z M 120,66 l 3,0 0,3 -3,0 z M 123,66 l 3,0 0,3 -3,0 z M 126,66 l 3,0 0,3 -3,0 z M 132,66 l 3,0 0,3 -3,0 z M 135,66 l 3,0 0,3 -3,0 z M 138,66 l 3,0 0,3 -3,0 z M 147,66 l 3,0 0,3 -3,0 z M 153,66 l 3,0 0,3 -3,0 z M 159,66 l 3,0 0,3 -3,0 z M 174,66 l 3,0 0,3 -3,0 z M 177,66 l 3,0 0,3 -3,0 z M 180,66 l 3,0 0,3 -3,0 z M 183,66 l 3,0 0,3 -3,0 z M 189,66 l 3,0 0,3 -3,0 z M 195,66 l 3,0 0,3 -3,0 z M 3,69 l 3,0 0,3 -3,0 z M 15,69 l 3,0 0,3 -3,0 z M 21,69 l 3,0 0,3 -3,0 z M 24,69 l 3,0 0,3 -3,0 z M 27,69 l 3,0 0,3 -3,0 z M 30,69 l 3,0 0,3 -3,0 z M 33,69 l 3,0 0,3 -3,0 z M 36,69 l 3,0 0,3 -3,0 z M 39,69 l 3,0 0,3 -3,0 z M 42,69 l 3,0 0,3 -3,0 z M 54,69 l 3,0 0,3 -3,0 z M 63,69 l 3,0 0,3 -3,0 z M 66,69 l 3,0 0,3 -3,0 z M 69,69 l 3,0 0,3 -3,0 z M 75,69 l 3,0 0,3 -3,0 z M 84,69 l 3,0 0,3 -3,0 z M 87,69 l 3,0 0,3 -3,0 z M 96,69 l 3,0 0,3 -3,0 z M 102,69 l 3,0 0,3 -3,0 z M 105,69 l 3,0 0,3 -3,0 z M 111,69 l 3,0 0,3 -3,0 z M 114,69 l 3,0 0,3 -3,0 z M 129,69 l 3,0 0,3 -3,0 z M 135,69 l 3,0 0,3 -3,0 z M 138,69 l 3,0 0,3 -3,0 z M 141,69 l 3,0 0,3 -3,0 z M 144,69 l 3,0 0,3 -3,0 z M 147,69 l 3,0 0,3 -3,0 z M 153,69 l 3,0 0,3 -3,0 z M 162,69 l 3,0 0,3 -3,0 z M 171,69 l 3,0 0,3 -3,0 z M 177,69 l 3,0 0,3 -3,0 z M 180,69 l 3,0 0,3 -3,0 z M 186,69 l 3,0 0,3 -3,0 z M 192,69 l 3,0 0,3 -3,0 z M 12,72 l 3,0 0,3 -3,0 z M 24,72 l 3,0 0,3 -3,0 z M 30,72 l 3,0 0,3 -3,0 z M 39,72 l 3,0 0,3 -3,0 z M 42,72 l 3,0 0,3 -3,0 z M 48,72 l 3,0 0,3 -3,0 z M 57,72 l 3,0 0,3 -3,0 z M 72,72 l 3,0 0,3 -3,0 z M 75,72 l 3,0 0,3 -3,0 z M 81,72 l 3,0 0,3 -3,0 z M 84,72 l 3,0 0,3 -3,0 z M 90,72 l 3,0 0,3 -3,0 z M 93,72 l 3,0 0,3 -3,0 z M 96,72 l 3,0 0,3 -3,0 z M 102,72 l 3,0 0,3 -3,0 z M 105,72 l 3,0 0,3 -3,0 z M 120,72 l 3,0 0,3 -3,0 z M 123,72 l 3,0 0,3 -3,0 z M 126,72 l 3,0 0,3 -3,0 z M 129,72 l 3,0 0,3 -3,0 z M 132,72 l 3,0 0,3 -3,0 z M 135,72 l 3,0 0,3 -3,0 z M 138,72 l 3,0 0,3 -3,0 z M 141,72 l 3,0 0,3 -3,0 z M 147,72 l 3,0 0,3 -3,0 z M 153,72 l 3,0 0,3 -3,0 z M 162,72 l 3,0 0,3 -3,0 z M 165,72 l 3,0 0,3 -3,0 z M 168,72 l 3,0 0,3 -3,0 z M 174,72 l 3,0 0,3 -3,0 z M 186,72 l 3,0 0,3 -3,0 z M 189,72 l 3,0 0,3 -3,0 z M 3,75 l 3,0 0,3 -3,0 z M 6,75 l 3,0 0,3 -3,0 z M 9,75 l 3,0 0,3 -3,0 z M 12,75 l 3,0 0,3 -3,0 z M 15,75 l 3,0 0,3 -3,0 z M 18,75 l 3,0 0,3 -3,0 z M 21,75 l 3,0 0,3 -3,0 z M 24,75 l 3,0 0,3 -3,0 z M 30,75 l 3,0 0,3 -3,0 z M 33,75 l 3,0 0,3 -3,0 z M 36,75 l 3,0 0,3 -3,0 z M 42,75 l 3,0 0,3 -3,0 z M 45,75 l 3,0 0,3 -3,0 z M 48,75 l 3,0 0,3 -3,0 z M 51,75 l 3,0 0,3 -3,0 z M 60,75 l 3,0 0,3 -3,0 z M 66,75 l 3,0 0,3 -3,0 z M 75,75 l 3,0 0,3 -3,0 z M 90,75 l 3,0 0,3 -3,0 z M 96,75 l 3,0 0,3 -3,0 z M 102,75 l 3,0 0,3 -3,0 z M 105,75 l 3,0 0,3 -3,0 z M 108,75 l 3,0 0,3 -3,0 z M 117,75 l 3,0 0,3 -3,0 z M 123,75 l 3,0 0,3 -3,0 z M 126,75 l 3,0 0,3 -3,0 z M 129,75 l 3,0 0,3 -3,0 z M 132,75 l 3,0 0,3 -3,0 z M 138,75 l 3,0 0,3 -3,0 z M 162,75 l 3,0 0,3 -3,0 z M 165,75 l 3,0 0,3 -3,0 z M 168,75 l 3,0 0,3 -3,0 z M 177,75 l 3,0 0,3 -3,0 z M 180,75 l 3,0 0,3 -3,0 z M 183,75 l 3,0 0,3 -3,0 z M 189,75 l 3,0 0,3 -3,0 z M 6,78 l 3,0 0,3 -3,0 z M 9,78 l 3,0 0,3 -3,0 z M 15,78 l 3,0 0,3 -3,0 z M 18,78 l 3,0 0,3 -3,0 z M 27,78 l 3,0 0,3 -3,0 z M 30,78 l 3,0 0,3 -3,0 z M 33,78 l 3,0 0,3 -3,0 z M 48,78 l 3,0 0,3 -3,0 z M 57,78 l 3,0 0,3 -3,0 z M 63,78 l 3,0 0,3 -3,0 z M 66,78 l 3,0 0,3 -3,0 z M 72,78 l 3,0 0,3 -3,0 z M 75,78 l 3,0 0,3 -3,0 z M 90,78 l 3,0 0,3 -3,0 z M 96,78 l 3,0 0,3 -3,0 z M 102,78 l 3,0 0,3 -3,0 z M 120,78 l 3,0 0,3 -3,0 z M 135,78 l 3,0 0,3 -3,0 z M 156,78 l 3,0 0,3 -3,0 z M 159,78 l 3,0 0,3 -3,0 z M 171,78 l 3,0 0,3 -3,0 z M 174,78 l 3,0 0,3 -3,0 z M 177,78 l 3,0 0,3 -3,0 z M 183,78 l 3,0 0,3 -3,0 z M 186,78 l 3,0 0,3 -3,0 z M 192,78 l 3,0 0,3 -3,0 z M 195,78 l 3,0 0,3 -3,0 z M 3,81 l 3,0 0,3 -3,0 z M 9,81 l 3,0 0,3 -3,0 z M 12,81 l 3,0 0,3 -3,0 z M 15,81 l 3,0 0,3 -3,0 z M 21,81 l 3,0 0,3 -3,0 z M 27,81 l 3,0 0,3 -3,0 z M 36,81 l 3,0 0,3 -3,0 z M 42,81 l 3,0 0,3 -3,0 z M 54,81 l 3,0 0,3 -3,0 z M 57,81 l 3,0 0,3 -3,0 z M 78,81 l 3,0 0,3 -3,0 z M 84,81 l 3,0 0,3 -3,0 z M 90,81 l 3,0 0,3 -3,0 z M 93,81 l 3,0 0,3 -3,0 z M 96,81 l 3,0 0,3 -3,0 z M 99,81 l 3,0 0,3 -3,0 z M 108,81 l 3,0 0,3 -3,0 z M 111,81 l 3,0 0,3 -3,0 z M 117,81 l 3,0 0,3 -3,0 z M 135,81 l 3,0 0,3 -3,0 z M 141,81 l 3,0 0,3 -3,0 z M 162,81 l 3,0 0,3 -3,0 z M 174,81 l 3,0 0,3 -3,0 z M 177,81 l 3,0 0,3 -3,0 z M 180,81 l 3,0 0,3 -3,0 z M 186,81 l 3,0 0,3 -3,0 z M 189,81 l 3,0 0,3 -3,0 z M 3,84 l 3,0 0,3 -3,0 z M 6,84 l 3,0 0,3 -3,0 z M 15,84 l 3,0 0,3 -3,0 z M 18,84 l 3,0 0,3 -3,0 z M 24,84 l 3,0 0,3 -3,0 z M 27,84 l 3,0 0,3 -3,0 z M 48,84 l 3,0 0,3 -3,0 z M 72,84 l 3,0 0,3 -3,0 z M 81,84 l 3,0 0,3 -3,0 z M 99,84 l 3,0 0,3 -3,0 z M 108,84 l 3,0 0,3 -3,0 z M 111,84 l 3,0 0,3 -3,0 z M 120,84 l 3,0 0,3 -3,0 z M 123,84 l 3,0 0,3 -3,0 z M 135,84 l 3,0 0,3 -3,0 z M 138,84 l 3,0 0,3 -3,0 z M 141,84 l 3,0 0,3 -3,0 z M 144,84 l 3,0 0,3 -3,0 z M 147,84 l 3,0 0,3 -3,0 z M 150,84 l 3,0 0,3 -3,0 z M 156,84 l 3,0 0,3 -3,0 z M 162,84 l 3,0 0,3 -3,0 z M 165,84 l 3,0 0,3 -3,0 z M 168,84 l 3,0 0,3 -3,0 z M 174,84 l 3,0 0,3 -3,0 z M 180,84 l 3,0 0,3 -3,0 z M 195,84 l 3,0 0,3 -3,0 z M 3,87 l 3,0 0,3 -3,0 z M 15,87 l 3,0 0,3 -3,0 z M 18,87 l 3,0 0,3 -3,0 z M 21,87 l 3,0 0,3 -3,0 z M 30,87 l 3,0 0,3 -3,0 z M 42,87 l 3,0 0,3 -3,0 z M 48,87 l 3,0 0,3 -3,0 z M 60,87 l 3,0 0,3 -3,0 z M 72,87 l 3,0 0,3 -3,0 z M 75,87 l 3,0 0,3 -3,0 z M 78,87 l 3,0 0,3 -3,0 z M 81,87 l 3,0 0,3 -3,0 z M 84,87 l 3,0 0,3 -3,0 z M 87,87 l 3,0 0,3 -3,0 z M 90,87 l 3,0 0,3 -3,0 z M 93,87 l 3,0 0,3 -3,0 z M 102,87 l 3,0 0,3 -3,0 z M 105,87 l 3,0 0,3 -3,0 z M 108,87 l 3,0 0,3 -3,0 z M 111,87 l 3,0 0,3 -3,0 z M 114,87 l 3,0 0,3 -3,0 z M 120,87 l 3,0 0,3 -3,0 z M 123,87 l 3,0 0,3 -3,0 z M 129,87 l 3,0 0,3 -3,0 z M 132,87 l 3,0 0,3 -3,0 z M 135,87 l 3,0 0,3 -3,0 z M 138,87 l 3,0 0,3 -3,0 z M 147,87 l 3,0 0,3 -3,0 z M 150,87 l 3,0 0,3 -3,0 z M 165,87 l 3,0 0,3 -3,0 z M 168,87 l 3,0 0,3 -3,0 z M 171,87 l 3,0 0,3 -3,0 z M 174,87 l 3,0 0,3 -3,0 z M 183,87 l 3,0 0,3 -3,0 z M 186,87 l 3,0 0,3 -3,0 z M 189,87 l 3,0 0,3 -3,0 z M 3,90 l 3,0 0,3 -3,0 z M 6,90 l 3,0 0,3 -3,0 z M 9,90 l 3,0 0,3 -3,0 z M 18,90 l 3,0 0,3 -3,0 z M 24,90 l 3,0 0,3 -3,0 z M 30,90 l 3,0 0,3 -3,0 z M 36,90 l 3,0 0,3 -3,0 z M 39,90 l 3,0 0,3 -3,0 z M 45,90 l 3,0 0,3 -3,0 z M 51,90 l 3,0 0,3 -3,0 z M 54,90 l 3,0 0,3 -3,0 z M 57,90 l 3,0 0,3 -3,0 z M 60,90 l 3,0 0,3 -3,0 z M 69,90 l 3,0 0,3 -3,0 z M 72,90 l 3,0 0,3 -3,0 z M 75,90 l 3,0 0,3 -3,0 z M 78,90 l 3,0 0,3 -3,0 z M 93,90 l 3,0 0,3 -3,0 z M 99,90 l 3,0 0,3 -3,0 z M 105,90 l 3,0 0,3 -3,0 z M 117,90 l 3,0 0,3 -3,0 z M 120,90 l 3,0 0,3 -3,0 z M 129,90 l 3,0 0,3 -3,0 z M 135,90 l 3,0 0,3 -3,0 z M 138,90 l 3,0 0,3 -3,0 z M 165,90 l 3,0 0,3 -3,0 z M 174,90 l 3,0 0,3 -3,0 z M 183,90 l 3,0 0,3 -3,0 z M 186,90 l 3,0 0,3 -3,0 z M 189,90 l 3,0 0,3 -3,0 z M 195,90 l 3,0 0,3 -3,0 z M 3,93 l 3,0 0,3 -3,0 z M 6,93 l 3,0 0,3 -3,0 z M 9,93 l 3,0 0,3 -3,0 z M 12,93 l 3,0 0,3 -3,0 z M 15,93 l 3,0 0,3 -3,0 z M 18,93 l 3,0 0,3 -3,0 z M 21,93 l 3,0 0,3 -3,0 z M 24,93 l 3,0 0,3 -3,0 z M 27,93 l 3,0 0,3 -3,0 z M 30,93 l 3,0 0,3 -3,0 z M 33,93 l 3,0 0,3 -3,0 z M 39,93 l 3,0 0,3 -3,0 z M 42,93 l 3,0 0,3 -3,0 z M 45,93 l 3,0 0,3 -3,0 z M 48,93 l 3,0 0,3 -3,0 z M 51,93 l 3,0 0,3 -3,0 z M 66,93 l 3,0 0,3 -3,0 z M 69,93 l 3,0 0,3 -3,0 z M 72,93 l 3,0 0,3 -3,0 z M 78,93 l 3,0 0,3 -3,0 z M 87,93 l 3,0 0,3 -3,0 z M 90,93 l 3,0 0,3 -3,0 z M 93,93 l 3,0 0,3 -3,0 z M 96,93 l 3,0 0,3 -3,0 z M 99,93 l 3,0 0,3 -3,0 z M 102,93 l 3,0 0,3 -3,0 z M 105,93 l 3,0 0,3 -3,0 z M 108,93 l 3,0 0,3 -3,0 z M 111,93 l 3,0 0,3 -3,0 z M 114,93 l 3,0 0,3 -3,0 z M 117,93 l 3,0 0,3 -3,0 z M 120,93 l 3,0 0,3 -3,0 z M 126,93 l 3,0 0,3 -3,0 z M 132,93 l 3,0 0,3 -3,0 z M 144,93 l 3,0 0,3 -3,0 z M 147,93 l 3,0 0,3 -3,0 z M 153,93 l 3,0 0,3 -3,0 z M 156,93 l 3,0 0,3 -3,0 z M 162,93 l 3,0 0,3 -3,0 z M 171,93 l 3,0 0,3 -3,0 z M 174,93 l 3,0 0,3 -3,0 z M 177,93 l 3,0 0,3 -3,0 z M 180,93 l 3,0 0,3 -3,0 z M 183,93 l 3,0 0,3 -3,0 z M 186,93 l 3,0 0,3 -3,0 z M 195,93 l 3,0 0,3 -3,0 z M 6,96 l 3,0 0,3 -3,0 z M 9,96 l 3,0 0,3 -3,0 z M 15,96 l 3,0 0,3 -3,0 z M 27,96 l 3,0 0,3 -3,0 z M 36,96 l 3,0 0,3 -3,0 z M 39,96 l 3,0 0,3 -3,0 z M 51,96 l 3,0 0,3 -3,0 z M 54,96 l 3,0 0,3 -3,0 z M 63,96 l 3,0 0,3 -3,0 z M 66,96 l 3,0 0,3 -3,0 z M 69,96 l 3,0 0,3 -3,0 z M 75,96 l 3,0 0,3 -3,0 z M 78,96 l 3,0 0,3 -3,0 z M 81,96 l 3,0 0,3 -3,0 z M 84,96 l 3,0 0,3 -3,0 z M 87,96 l 3,0 0,3 -3,0 z M 90,96 l 3,0 0,3 -3,0 z M 93,96 l 3,0 0,3 -3,0 z M 105,96 l 3,0 0,3 -3,0 z M 108,96 l 3,0 0,3 -3,0 z M 120,96 l 3,0 0,3 -3,0 z M 123,96 l 3,0 0,3 -3,0 z M 129,96 l 3,0 0,3 -3,0 z M 144,96 l 3,0 0,3 -3,0 z M 153,96 l 3,0 0,3 -3,0 z M 159,96 l 3,0 0,3 -3,0 z M 168,96 l 3,0 0,3 -3,0 z M 171,96 l 3,0 0,3 -3,0 z M 183,96 l 3,0 0,3 -3,0 z M 195,96 l 3,0 0,3 -3,0 z M 15,99 l 3,0 0,3 -3,0 z M 21,99 l 3,0 0,3 -3,0 z M 27,99 l 3,0 0,3 -3,0 z M 33,99 l 3,0 0,3 -3,0 z M 36,99 l 3,0 0,3 -3,0 z M 42,99 l 3,0 0,3 -3,0 z M 45,99 l 3,0 0,3 -3,0 z M 48,99 l 3,0 0,3 -3,0 z M 51,99 l 3,0 0,3 -3,0 z M 54,99 l 3,0 0,3 -3,0 z M 57,99 l 3,0 0,3 -3,0 z M 66,99 l 3,0 0,3 -3,0 z M 69,99 l 3,0 0,3 -3,0 z M 72,99 l 3,0 0,3 -3,0 z M 75,99 l 3,0 0,3 -3,0 z M 81,99 l 3,0 0,3 -3,0 z M 87,99 l 3,0 0,3 -3,0 z M 93,99 l 3,0 0,3 -3,0 z M 99,99 l 3,0 0,3 -3,0 z M 105,99 l 3,0 0,3 -3,0 z M 111,99 l 3,0 0,3 -3,0 z M 114,99 l 3,0 0,3 -3,0 z M 132,99 l 3,0 0,3 -3,0 z M 135,99 l 3,0 0,3 -3,0 z M 138,99 l 3,0 0,3 -3,0 z M 147,99 l 3,0 0,3 -3,0 z M 150,99 l 3,0 0,3 -3,0 z M 153,99 l 3,0 0,3 -3,0 z M 165,99 l 3,0 0,3 -3,0 z M 171,99 l 3,0 0,3 -3,0 z M 177,99 l 3,0 0,3 -3,0 z M 183,99 l 3,0 0,3 -3,0 z M 189,99 l 3,0 0,3 -3,0 z M 3,102 l 3,0 0,3 -3,0 z M 9,102 l 3,0 0,3 -3,0 z M 15,102 l 3,0 0,3 -3,0 z M 27,102 l 3,0 0,3 -3,0 z M 33,102 l 3,0 0,3 -3,0 z M 54,102 l 3,0 0,3 -3,0 z M 57,102 l 3,0 0,3 -3,0 z M 60,102 l 3,0 0,3 -3,0 z M 63,102 l 3,0 0,3 -3,0 z M 66,102 l 3,0 0,3 -3,0 z M 69,102 l 3,0 0,3 -3,0 z M 72,102 l 3,0 0,3 -3,0 z M 78,102 l 3,0 0,3 -3,0 z M 81,102 l 3,0 0,3 -3,0 z M 84,102 l 3,0 0,3 -3,0 z M 90,102 l 3,0 0,3 -3,0 z M 93,102 l 3,0 0,3 -3,0 z M 105,102 l 3,0 0,3 -3,0 z M 108,102 l 3,0 0,3 -3,0 z M 120,102 l 3,0 0,3 -3,0 z M 123,102 l 3,0 0,3 -3,0 z M 126,102 l 3,0 0,3 -3,0 z M 129,102 l 3,0 0,3 -3,0 z M 132,102 l 3,0 0,3 -3,0 z M 135,102 l 3,0 0,3 -3,0 z M 138,102 l 3,0 0,3 -3,0 z M 141,102 l 3,0 0,3 -3,0 z M 147,102 l 3,0 0,3 -3,0 z M 156,102 l 3,0 0,3 -3,0 z M 162,102 l 3,0 0,3 -3,0 z M 165,102 l 3,0 0,3 -3,0 z M 168,102 l 3,0 0,3 -3,0 z M 171,102 l 3,0 0,3 -3,0 z M 183,102 l 3,0 0,3 -3,0 z M 195,102 l 3,0 0,3 -3,0 z M 3,105 l 3,0 0,3 -3,0 z M 6,105 l 3,0 0,3 -3,0 z M 9,105 l 3,0 0,3 -3,0 z M 15,105 l 3,0 0,3 -3,0 z M 18,105 l 3,0 0,3 -3,0 z M 21,105 l 3,0 0,3 -3,0 z M 24,105 l 3,0 0,3 -3,0 z M 27,105 l 3,0 0,3 -3,0 z M 33,105 l 3,0 0,3 -3,0 z M 39,105 l 3,0 0,3 -3,0 z M 48,105 l 3,0 0,3 -3,0 z M 54,105 l 3,0 0,3 -3,0 z M 66,105 l 3,0 0,3 -3,0 z M 69,105 l 3,0 0,3 -3,0 z M 72,105 l 3,0 0,3 -3,0 z M 75,105 l 3,0 0,3 -3,0 z M 81,105 l 3,0 0,3 -3,0 z M 84,105 l 3,0 0,3 -3,0 z M 87,105 l 3,0 0,3 -3,0 z M 90,105 l 3,0 0,3 -3,0 z M 93,105 l 3,0 0,3 -3,0 z M 96,105 l 3,0 0,3 -3,0 z M 99,105 l 3,0 0,3 -3,0 z M 102,105 l 3,0 0,3 -3,0 z M 105,105 l 3,0 0,3 -3,0 z M 108,105 l 3,0 0,3 -3,0 z M 111,105 l 3,0 0,3 -3,0 z M 120,105 l 3,0 0,3 -3,0 z M 135,105 l 3,0 0,3 -3,0 z M 138,105 l 3,0 0,3 -3,0 z M 147,105 l 3,0 0,3 -3,0 z M 150,105 l 3,0 0,3 -3,0 z M 153,105 l 3,0 0,3 -3,0 z M 156,105 l 3,0 0,3 -3,0 z M 168,105 l 3,0 0,3 -3,0 z M 171,105 l 3,0 0,3 -3,0 z M 174,105 l 3,0 0,3 -3,0 z M 177,105 l 3,0 0,3 -3,0 z M 180,105 l 3,0 0,3 -3,0 z M 183,105 l 3,0 0,3 -3,0 z M 186,105 l 3,0 0,3 -3,0 z M 189,105 l 3,0 0,3 -3,0 z M 192,105 l 3,0 0,3 -3,0 z M 3,108 l 3,0 0,3 -3,0 z M 6,108 l 3,0 0,3 -3,0 z M 12,108 l 3,0 0,3 -3,0 z M 30,108 l 3,0 0,3 -3,0 z M 42,108 l 3,0 0,3 -3,0 z M 48,108 l 3,0 0,3 -3,0 z M 51,108 l 3,0 0,3 -3,0 z M 63,108 l 3,0 0,3 -3,0 z M 69,108 l 3,0 0,3 -3,0 z M 75,108 l 3,0 0,3 -3,0 z M 81,108 l 3,0 0,3 -3,0 z M 84,108 l 3,0 0,3 -3,0 z M 87,108 l 3,0 0,3 -3,0 z M 93,108 l 3,0 0,3 -3,0 z M 102,108 l 3,0 0,3 -3,0 z M 108,108 l 3,0 0,3 -3,0 z M 117,108 l 3,0 0,3 -3,0 z M 126,108 l 3,0 0,3 -3,0 z M 132,108 l 3,0 0,3 -3,0 z M 135,108 l 3,0 0,3 -3,0 z M 138,108 l 3,0 0,3 -3,0 z M 144,108 l 3,0 0,3 -3,0 z M 150,108 l 3,0 0,3 -3,0 z M 162,108 l 3,0 0,3 -3,0 z M 165,108 l 3,0 0,3 -3,0 z M 168,108 l 3,0 0,3 -3,0 z M 186,108 l 3,0 0,3 -3,0 z M 3,111 l 3,0 0,3 -3,0 z M 6,111 l 3,0 0,3 -3,0 z M 9,111 l 3,0 0,3 -3,0 z M 21,111 l 3,0 0,3 -3,0 z M 27,111 l 3,0 0,3 -3,0 z M 33,111 l 3,0 0,3 -3,0 z M 42,111 l 3,0 0,3 -3,0 z M 48,111 l 3,0 0,3 -3,0 z M 51,111 l 3,0 0,3 -3,0 z M 54,111 l 3,0 0,3 -3,0 z M 60,111 l 3,0 0,3 -3,0 z M 63,111 l 3,0 0,3 -3,0 z M 66,111 l 3,0 0,3 -3,0 z M 69,111 l 3,0 0,3 -3,0 z M 72,111 l 3,0 0,3 -3,0 z M 75,111 l 3,0 0,3 -3,0 z M 84,111 l 3,0 0,3 -3,0 z M 90,111 l 3,0 0,3 -3,0 z M 105,111 l 3,0 0,3 -3,0 z M 117,111 l 3,0 0,3 -3,0 z M 120,111 l 3,0 0,3 -3,0 z M 123,111 l 3,0 0,3 -3,0 z M 129,111 l 3,0 0,3 -3,0 z M 135,111 l 3,0 0,3 -3,0 z M 138,111 l 3,0 0,3 -3,0 z M 141,111 l 3,0 0,3 -3,0 z M 147,111 l 3,0 0,3 -3,0 z M 156,111 l 3,0 0,3 -3,0 z M 159,111 l 3,0 0,3 -3,0 z M 165,111 l 3,0 0,3 -3,0 z M 174,111 l 3,0 0,3 -3,0 z M 177,111 l 3,0 0,3 -3,0 z M 183,111 l 3,0 0,3 -3,0 z M 186,111 l 3,0 0,3 -3,0 z M 189,111 l 3,0 0,3 -3,0 z M 192,111 l 3,0 0,3 -3,0 z M 24,114 l 3,0 0,3 -3,0 z M 36,114 l 3,0 0,3 -3,0 z M 39,114 l 3,0 0,3 -3,0 z M 42,114 l 3,0 0,3 -3,0 z M 57,114 l 3,0 0,3 -3,0 z M 63,114 l 3,0 0,3 -3,0 z M 66,114 l 3,0 0,3 -3,0 z M 69,114 l 3,0 0,3 -3,0 z M 75,114 l 3,0 0,3 -3,0 z M 87,114 l 3,0 0,3 -3,0 z M 108,114 l 3,0 0,3 -3,0 z M 111,114 l 3,0 0,3 -3,0 z M 120,114 l 3,0 0,3 -3,0 z M 129,114 l 3,0 0,3 -3,0 z M 132,114 l 3,0 0,3 -3,0 z M 135,114 l 3,0 0,3 -3,0 z M 138,114 l 3,0 0,3 -3,0 z M 144,114 l 3,0 0,3 -3,0 z M 147,114 l 3,0 0,3 -3,0 z M 150,114 l 3,0 0,3 -3,0 z M 156,114 l 3,0 0,3 -3,0 z M 165,114 l 3,0 0,3 -3,0 z M 171,114 l 3,0 0,3 -3,0 z M 177,114 l 3,0 0,3 -3,0 z M 183,114 l 3,0 0,3 -3,0 z M 189,114 l 3,0 0,3 -3,0 z M 192,114 l 3,0 0,3 -3,0 z M 195,114 l 3,0 0,3 -3,0 z M 3,117 l 3,0 0,3 -3,0 z M 9,117 l 3,0 0,3 -3,0 z M 18,117 l 3,0 0,3 -3,0 z M 21,117 l 3,0 0,3 -3,0 z M 24,117 l 3,0 0,3 -3,0 z M 27,117 l 3,0 0,3 -3,0 z M 30,117 l 3,0 0,3 -3,0 z M 36,117 l 3,0 0,3 -3,0 z M 39,117 l 3,0 0,3 -3,0 z M 45,117 l 3,0 0,3 -3,0 z M 51,117 l 3,0 0,3 -3,0 z M 57,117 l 3,0 0,3 -3,0 z M 60,117 l 3,0 0,3 -3,0 z M 63,117 l 3,0 0,3 -3,0 z M 66,117 l 3,0 0,3 -3,0 z M 69,117 l 3,0 0,3 -3,0 z M 75,117 l 3,0 0,3 -3,0 z M 84,117 l 3,0 0,3 -3,0 z M 87,117 l 3,0 0,3 -3,0 z M 96,117 l 3,0 0,3 -3,0 z M 99,117 l 3,0 0,3 -3,0 z M 102,117 l 3,0 0,3 -3,0 z M 108,117 l 3,0 0,3 -3,0 z M 111,117 l 3,0 0,3 -3,0 z M 126,117 l 3,0 0,3 -3,0 z M 135,117 l 3,0 0,3 -3,0 z M 138,117 l 3,0 0,3 -3,0 z M 144,117 l 3,0 0,3 -3,0 z M 153,117 l 3,0 0,3 -3,0 z M 156,117 l 3,0 0,3 -3,0 z M 168,117 l 3,0 0,3 -3,0 z M 171,117 l 3,0 0,3 -3,0 z M 174,117 l 3,0 0,3 -3,0 z M 183,117 l 3,0 0,3 -3,0 z M 189,117 l 3,0 0,3 -3,0 z M 192,117 l 3,0 0,3 -3,0 z M 9,120 l 3,0 0,3 -3,0 z M 12,120 l 3,0 0,3 -3,0 z M 27,120 l 3,0 0,3 -3,0 z M 57,120 l 3,0 0,3 -3,0 z M 72,120 l 3,0 0,3 -3,0 z M 75,120 l 3,0 0,3 -3,0 z M 81,120 l 3,0 0,3 -3,0 z M 102,120 l 3,0 0,3 -3,0 z M 108,120 l 3,0 0,3 -3,0 z M 111,120 l 3,0 0,3 -3,0 z M 114,120 l 3,0 0,3 -3,0 z M 120,120 l 3,0 0,3 -3,0 z M 123,120 l 3,0 0,3 -3,0 z M 129,120 l 3,0 0,3 -3,0 z M 144,120 l 3,0 0,3 -3,0 z M 147,120 l 3,0 0,3 -3,0 z M 156,120 l 3,0 0,3 -3,0 z M 159,120 l 3,0 0,3 -3,0 z M 165,120 l 3,0 0,3 -3,0 z M 168,120 l 3,0 0,3 -3,0 z M 171,120 l 3,0 0,3 -3,0 z M 177,120 l 3,0 0,3 -3,0 z M 180,120 l 3,0 0,3 -3,0 z M 183,120 l 3,0 0,3 -3,0 z M 186,120 l 3,0 0,3 -3,0 z M 192,120 l 3,0 0,3 -3,0 z M 9,123 l 3,0 0,3 -3,0 z M 12,123 l 3,0 0,3 -3,0 z M 18,123 l 3,0 0,3 -3,0 z M 21,123 l 3,0 0,3 -3,0 z M 27,123 l 3,0 0,3 -3,0 z M 30,123 l 3,0 0,3 -3,0 z M 42,123 l 3,0 0,3 -3,0 z M 45,123 l 3,0 0,3 -3,0 z M 48,123 l 3,0 0,3 -3,0 z M 57,123 l 3,0 0,3 -3,0 z M 63,123 l 3,0 0,3 -3,0 z M 69,123 l 3,0 0,3 -3,0 z M 72,123 l 3,0 0,3 -3,0 z M 81,123 l 3,0 0,3 -3,0 z M 84,123 l 3,0 0,3 -3,0 z M 90,123 l 3,0 0,3 -3,0 z M 96,123 l 3,0 0,3 -3,0 z M 99,123 l 3,0 0,3 -3,0 z M 105,123 l 3,0 0,3 -3,0 z M 117,123 l 3,0 0,3 -3,0 z M 120,123 l 3,0 0,3 -3,0 z M 123,123 l 3,0 0,3 -3,0 z M 129,123 l 3,0 0,3 -3,0 z M 135,123 l 3,0 0,3 -3,0 z M 138,123 l 3,0 0,3 -3,0 z M 141,123 l 3,0 0,3 -3,0 z M 159,123 l 3,0 0,3 -3,0 z M 165,123 l 3,0 0,3 -3,0 z M 171,123 l 3,0 0,3 -3,0 z M 174,123 l 3,0 0,3 -3,0 z M 183,123 l 3,0 0,3 -3,0 z M 192,123 l 3,0 0,3 -3,0 z M 3,126 l 3,0 0,3 -3,0 z M 9,126 l 3,0 0,3 -3,0 z M 15,126 l 3,0 0,3 -3,0 z M 30,126 l 3,0 0,3 -3,0 z M 36,126 l 3,0 0,3 -3,0 z M 39,126 l 3,0 0,3 -3,0 z M 42,126 l 3,0 0,3 -3,0 z M 48,126 l 3,0 0,3 -3,0 z M 51,126 l 3,0 0,3 -3,0 z M 57,126 l 3,0 0,3 -3,0 z M 60,126 l 3,0 0,3 -3,0 z M 63,126 l 3,0 0,3 -3,0 z M 69,126 l 3,0 0,3 -3,0 z M 72,126 l 3,0 0,3 -3,0 z M 75,126 l 3,0 0,3 -3,0 z M 81,126 l 3,0 0,3 -3,0 z M 90,126 l 3,0 0,3 -3,0 z M 93,126 l 3,0 0,3 -3,0 z M 99,126 l 3,0 0,3 -3,0 z M 105,126 l 3,0 0,3 -3,0 z M 117,126 l 3,0 0,3 -3,0 z M 120,126 l 3,0 0,3 -3,0 z M 126,126 l 3,0 0,3 -3,0 z M 135,126 l 3,0 0,3 -3,0 z M 138,126 l 3,0 0,3 -3,0 z M 141,126 l 3,0 0,3 -3,0 z M 177,126 l 3,0 0,3 -3,0 z M 180,126 l 3,0 0,3 -3,0 z M 183,126 l 3,0 0,3 -3,0 z M 192,126 l 3,0 0,3 -3,0 z M 12,129 l 3,0 0,3 -3,0 z M 15,129 l 3,0 0,3 -3,0 z M 18,129 l 3,0 0,3 -3,0 z M 21,129 l 3,0 0,3 -3,0 z M 24,129 l 3,0 0,3 -3,0 z M 27,129 l 3,0 0,3 -3,0 z M 48,129 l 3,0 0,3 -3,0 z M 51,129 l 3,0 0,3 -3,0 z M 57,129 l 3,0 0,3 -3,0 z M 72,129 l 3,0 0,3 -3,0 z M 96,129 l 3,0 0,3 -3,0 z M 99,129 l 3,0 0,3 -3,0 z M 108,129 l 3,0 0,3 -3,0 z M 111,129 l 3,0 0,3 -3,0 z M 117,129 l 3,0 0,3 -3,0 z M 123,129 l 3,0 0,3 -3,0 z M 126,129 l 3,0 0,3 -3,0 z M 129,129 l 3,0 0,3 -3,0 z M 135,129 l 3,0 0,3 -3,0 z M 150,129 l 3,0 0,3 -3,0 z M 162,129 l 3,0 0,3 -3,0 z M 174,129 l 3,0 0,3 -3,0 z M 180,129 l 3,0 0,3 -3,0 z M 186,129 l 3,0 0,3 -3,0 z M 189,129 l 3,0 0,3 -3,0 z M 192,129 l 3,0 0,3 -3,0 z M 195,129 l 3,0 0,3 -3,0 z M 3,132 l 3,0 0,3 -3,0 z M 6,132 l 3,0 0,3 -3,0 z M 12,132 l 3,0 0,3 -3,0 z M 15,132 l 3,0 0,3 -3,0 z M 27,132 l 3,0 0,3 -3,0 z M 36,132 l 3,0 0,3 -3,0 z M 39,132 l 3,0 0,3 -3,0 z M 42,132 l 3,0 0,3 -3,0 z M 48,132 l 3,0 0,3 -3,0 z M 51,132 l 3,0 0,3 -3,0 z M 54,132 l 3,0 0,3 -3,0 z M 66,132 l 3,0 0,3 -3,0 z M 75,132 l 3,0 0,3 -3,0 z M 90,132 l 3,0 0,3 -3,0 z M 102,132 l 3,0 0,3 -3,0 z M 105,132 l 3,0 0,3 -3,0 z M 111,132 l 3,0 0,3 -3,0 z M 114,132 l 3,0 0,3 -3,0 z M 132,132 l 3,0 0,3 -3,0 z M 141,132 l 3,0 0,3 -3,0 z M 153,132 l 3,0 0,3 -3,0 z M 156,132 l 3,0 0,3 -3,0 z M 162,132 l 3,0 0,3 -3,0 z M 165,132 l 3,0 0,3 -3,0 z M 171,132 l 3,0 0,3 -3,0 z M 177,132 l 3,0 0,3 -3,0 z M 180,132 l 3,0 0,3 -3,0 z M 183,132 l 3,0 0,3 -3,0 z M 3,135 l 3,0 0,3 -3,0 z M 6,135 l 3,0 0,3 -3,0 z M 9,135 l 3,0 0,3 -3,0 z M 12,135 l 3,0 0,3 -3,0 z M 15,135 l 3,0 0,3 -3,0 z M 21,135 l 3,0 0,3 -3,0 z M 33,135 l 3,0 0,3 -3,0 z M 42,135 l 3,0 0,3 -3,0 z M 54,135 l 3,0 0,3 -3,0 z M 69,135 l 3,0 0,3 -3,0 z M 81,135 l 3,0 0,3 -3,0 z M 84,135 l 3,0 0,3 -3,0 z M 87,135 l 3,0 0,3 -3,0 z M 99,135 l 3,0 0,3 -3,0 z M 105,135 l 3,0 0,3 -3,0 z M 108,135 l 3,0 0,3 -3,0 z M 111,135 l 3,0 0,3 -3,0 z M 120,135 l 3,0 0,3 -3,0 z M 123,135 l 3,0 0,3 -3,0 z M 126,135 l 3,0 0,3 -3,0 z M 129,135 l 3,0 0,3 -3,0 z M 135,135 l 3,0 0,3 -3,0 z M 153,135 l 3,0 0,3 -3,0 z M 156,135 l 3,0 0,3 -3,0 z M 162,135 l 3,0 0,3 -3,0 z M 168,135 l 3,0 0,3 -3,0 z M 171,135 l 3,0 0,3 -3,0 z M 177,135 l 3,0 0,3 -3,0 z M 186,135 l 3,0 0,3 -3,0 z M 189,135 l 3,0 0,3 -3,0 z M 192,135 l 3,0 0,3 -3,0 z M 195,135 l 3,0 0,3 -3,0 z M 3,138 l 3,0 0,3 -3,0 z M 6,138 l 3,0 0,3 -3,0 z M 18,138 l 3,0 0,3 -3,0 z M 27,138 l 3,0 0,3 -3,0 z M 30,138 l 3,0 0,3 -3,0 z M 45,138 l 3,0 0,3 -3,0 z M 48,138 l 3,0 0,3 -3,0 z M 57,138 l 3,0 0,3 -3,0 z M 69,138 l 3,0 0,3 -3,0 z M 81,138 l 3,0 0,3 -3,0 z M 90,138 l 3,0 0,3 -3,0 z M 102,138 l 3,0 0,3 -3,0 z M 129,138 l 3,0 0,3 -3,0 z M 135,138 l 3,0 0,3 -3,0 z M 138,138 l 3,0 0,3 -3,0 z M 147,138 l 3,0 0,3 -3,0 z M 153,138 l 3,0 0,3 -3,0 z M 165,138 l 3,0 0,3 -3,0 z M 171,138 l 3,0 0,3 -3,0 z M 180,138 l 3,0 0,3 -3,0 z M 183,138 l 3,0 0,3 -3,0 z M 192,138 l 3,0 0,3 -3,0 z M 195,138 l 3,0 0,3 -3,0 z M 15,141 l 3,0 0,3 -3,0 z M 21,141 l 3,0 0,3 -3,0 z M 27,141 l 3,0 0,3 -3,0 z M 42,141 l 3,0 0,3 -3,0 z M 57,141 l 3,0 0,3 -3,0 z M 66,141 l 3,0 0,3 -3,0 z M 81,141 l 3,0 0,3 -3,0 z M 90,141 l 3,0 0,3 -3,0 z M 93,141 l 3,0 0,3 -3,0 z M 96,141 l 3,0 0,3 -3,0 z M 108,141 l 3,0 0,3 -3,0 z M 111,141 l 3,0 0,3 -3,0 z M 114,141 l 3,0 0,3 -3,0 z M 117,141 l 3,0 0,3 -3,0 z M 120,141 l 3,0 0,3 -3,0 z M 123,141 l 3,0 0,3 -3,0 z M 126,141 l 3,0 0,3 -3,0 z M 132,141 l 3,0 0,3 -3,0 z M 144,141 l 3,0 0,3 -3,0 z M 147,141 l 3,0 0,3 -3,0 z M 153,141 l 3,0 0,3 -3,0 z M 156,141 l 3,0 0,3 -3,0 z M 162,141 l 3,0 0,3 -3,0 z M 168,141 l 3,0 0,3 -3,0 z M 171,141 l 3,0 0,3 -3,0 z M 174,141 l 3,0 0,3 -3,0 z M 180,141 l 3,0 0,3 -3,0 z M 9,144 l 3,0 0,3 -3,0 z M 15,144 l 3,0 0,3 -3,0 z M 18,144 l 3,0 0,3 -3,0 z M 27,144 l 3,0 0,3 -3,0 z M 30,144 l 3,0 0,3 -3,0 z M 39,144 l 3,0 0,3 -3,0 z M 42,144 l 3,0 0,3 -3,0 z M 48,144 l 3,0 0,3 -3,0 z M 57,144 l 3,0 0,3 -3,0 z M 75,144 l 3,0 0,3 -3,0 z M 78,144 l 3,0 0,3 -3,0 z M 84,144 l 3,0 0,3 -3,0 z M 87,144 l 3,0 0,3 -3,0 z M 90,144 l 3,0 0,3 -3,0 z M 93,144 l 3,0 0,3 -3,0 z M 99,144 l 3,0 0,3 -3,0 z M 111,144 l 3,0 0,3 -3,0 z M 117,144 l 3,0 0,3 -3,0 z M 120,144 l 3,0 0,3 -3,0 z M 123,144 l 3,0 0,3 -3,0 z M 126,144 l 3,0 0,3 -3,0 z M 129,144 l 3,0 0,3 -3,0 z M 135,144 l 3,0 0,3 -3,0 z M 141,144 l 3,0 0,3 -3,0 z M 159,144 l 3,0 0,3 -3,0 z M 162,144 l 3,0 0,3 -3,0 z M 168,144 l 3,0 0,3 -3,0 z M 174,144 l 3,0 0,3 -3,0 z M 177,144 l 3,0 0,3 -3,0 z M 180,144 l 3,0 0,3 -3,0 z M 186,144 l 3,0 0,3 -3,0 z M 12,147 l 3,0 0,3 -3,0 z M 15,147 l 3,0 0,3 -3,0 z M 21,147 l 3,0 0,3 -3,0 z M 24,147 l 3,0 0,3 -3,0 z M 27,147 l 3,0 0,3 -3,0 z M 30,147 l 3,0 0,3 -3,0 z M 33,147 l 3,0 0,3 -3,0 z M 39,147 l 3,0 0,3 -3,0 z M 45,147 l 3,0 0,3 -3,0 z M 48,147 l 3,0 0,3 -3,0 z M 51,147 l 3,0 0,3 -3,0 z M 54,147 l 3,0 0,3 -3,0 z M 57,147 l 3,0 0,3 -3,0 z M 60,147 l 3,0 0,3 -3,0 z M 66,147 l 3,0 0,3 -3,0 z M 69,147 l 3,0 0,3 -3,0 z M 87,147 l 3,0 0,3 -3,0 z M 93,147 l 3,0 0,3 -3,0 z M 99,147 l 3,0 0,3 -3,0 z M 108,147 l 3,0 0,3 -3,0 z M 111,147 l 3,0 0,3 -3,0 z M 117,147 l 3,0 0,3 -3,0 z M 126,147 l 3,0 0,3 -3,0 z M 129,147 l 3,0 0,3 -3,0 z M 132,147 l 3,0 0,3 -3,0 z M 138,147 l 3,0 0,3 -3,0 z M 147,147 l 3,0 0,3 -3,0 z M 150,147 l 3,0 0,3 -3,0 z M 162,147 l 3,0 0,3 -3,0 z M 168,147 l 3,0 0,3 -3,0 z M 174,147 l 3,0 0,3 -3,0 z M 180,147 l 3,0 0,3 -3,0 z M 192,147 l 3,0 0,3 -3,0 z M 3,150 l 3,0 0,3 -3,0 z M 6,150 l 3,0 0,3 -3,0 z M 12,150 l 3,0 0,3 -3,0 z M 15,150 l 3,0 0,3 -3,0 z M 24,150 l 3,0 0,3 -3,0 z M 27,150 l 3,0 0,3 -3,0 z M 30,150 l 3,0 0,3 -3,0 z M 33,150 l 3,0 0,3 -3,0 z M 39,150 l 3,0 0,3 -3,0 z M 45,150 l 3,0 0,3 -3,0 z M 54,150 l 3,0 0,3 -3,0 z M 63,150 l 3,0 0,3 -3,0 z M 66,150 l 3,0 0,3 -3,0 z M 72,150 l 3,0 0,3 -3,0 z M 78,150 l 3,0 0,3 -3,0 z M 81,150 l 3,0 0,3 -3,0 z M 84,150 l 3,0 0,3 -3,0 z M 87,150 l 3,0 0,3 -3,0 z M 93,150 l 3,0 0,3 -3,0 z M 99,150 l 3,0 0,3 -3,0 z M 102,150 l 3,0 0,3 -3,0 z M 105,150 l 3,0 0,3 -3,0 z M 114,150 l 3,0 0,3 -3,0 z M 126,150 l 3,0 0,3 -3,0 z M 129,150 l 3,0 0,3 -3,0 z M 132,150 l 3,0 0,3 -3,0 z M 135,150 l 3,0 0,3 -3,0 z M 144,150 l 3,0 0,3 -3,0 z M 147,150 l 3,0 0,3 -3,0 z M 162,150 l 3,0 0,3 -3,0 z M 165,150 l 3,0 0,3 -3,0 z M 168,150 l 3,0 0,3 -3,0 z M 171,150 l 3,0 0,3 -3,0 z M 174,150 l 3,0 0,3 -3,0 z M 183,150 l 3,0 0,3 -3,0 z M 189,150 l 3,0 0,3 -3,0 z M 195,150 l 3,0 0,3 -3,0 z M 6,153 l 3,0 0,3 -3,0 z M 12,153 l 3,0 0,3 -3,0 z M 21,153 l 3,0 0,3 -3,0 z M 24,153 l 3,0 0,3 -3,0 z M 27,153 l 3,0 0,3 -3,0 z M 33,153 l 3,0 0,3 -3,0 z M 36,153 l 3,0 0,3 -3,0 z M 42,153 l 3,0 0,3 -3,0 z M 45,153 l 3,0 0,3 -3,0 z M 57,153 l 3,0 0,3 -3,0 z M 72,153 l 3,0 0,3 -3,0 z M 75,153 l 3,0 0,3 -3,0 z M 81,153 l 3,0 0,3 -3,0 z M 84,153 l 3,0 0,3 -3,0 z M 87,153 l 3,0 0,3 -3,0 z M 90,153 l 3,0 0,3 -3,0 z M 102,153 l 3,0 0,3 -3,0 z M 111,153 l 3,0 0,3 -3,0 z M 126,153 l 3,0 0,3 -3,0 z M 138,153 l 3,0 0,3 -3,0 z M 141,153 l 3,0 0,3 -3,0 z M 150,153 l 3,0 0,3 -3,0 z M 153,153 l 3,0 0,3 -3,0 z M 171,153 l 3,0 0,3 -3,0 z M 174,153 l 3,0 0,3 -3,0 z M 177,153 l 3,0 0,3 -3,0 z M 183,153 l 3,0 0,3 -3,0 z M 189,153 l 3,0 0,3 -3,0 z M 192,153 l 3,0 0,3 -3,0 z M 3,156 l 3,0 0,3 -3,0 z M 6,156 l 3,0 0,3 -3,0 z M 9,156 l 3,0 0,3 -3,0 z M 30,156 l 3,0 0,3 -3,0 z M 33,156 l 3,0 0,3 -3,0 z M 36,156 l 3,0 0,3 -3,0 z M 39,156 l 3,0 0,3 -3,0 z M 42,156 l 3,0 0,3 -3,0 z M 48,156 l 3,0 0,3 -3,0 z M 54,156 l 3,0 0,3 -3,0 z M 57,156 l 3,0 0,3 -3,0 z M 63,156 l 3,0 0,3 -3,0 z M 66,156 l 3,0 0,3 -3,0 z M 69,156 l 3,0 0,3 -3,0 z M 72,156 l 3,0 0,3 -3,0 z M 75,156 l 3,0 0,3 -3,0 z M 81,156 l 3,0 0,3 -3,0 z M 84,156 l 3,0 0,3 -3,0 z M 87,156 l 3,0 0,3 -3,0 z M 93,156 l 3,0 0,3 -3,0 z M 108,156 l 3,0 0,3 -3,0 z M 114,156 l 3,0 0,3 -3,0 z M 123,156 l 3,0 0,3 -3,0 z M 132,156 l 3,0 0,3 -3,0 z M 135,156 l 3,0 0,3 -3,0 z M 141,156 l 3,0 0,3 -3,0 z M 144,156 l 3,0 0,3 -3,0 z M 147,156 l 3,0 0,3 -3,0 z M 150,156 l 3,0 0,3 -3,0 z M 159,156 l 3,0 0,3 -3,0 z M 171,156 l 3,0 0,3 -3,0 z M 174,156 l 3,0 0,3 -3,0 z M 177,156 l 3,0 0,3 -3,0 z M 183,156 l 3,0 0,3 -3,0 z M 186,156 l 3,0 0,3 -3,0 z M 189,156 l 3,0 0,3 -3,0 z M 192,156 l 3,0 0,3 -3,0 z M 3,159 l 3,0 0,3 -3,0 z M 6,159 l 3,0 0,3 -3,0 z M 18,159 l 3,0 0,3 -3,0 z M 21,159 l 3,0 0,3 -3,0 z M 24,159 l 3,0 0,3 -3,0 z M 27,159 l 3,0 0,3 -3,0 z M 30,159 l 3,0 0,3 -3,0 z M 36,159 l 3,0 0,3 -3,0 z M 39,159 l 3,0 0,3 -3,0 z M 45,159 l 3,0 0,3 -3,0 z M 48,159 l 3,0 0,3 -3,0 z M 51,159 l 3,0 0,3 -3,0 z M 57,159 l 3,0 0,3 -3,0 z M 60,159 l 3,0 0,3 -3,0 z M 63,159 l 3,0 0,3 -3,0 z M 66,159 l 3,0 0,3 -3,0 z M 69,159 l 3,0 0,3 -3,0 z M 72,159 l 3,0 0,3 -3,0 z M 75,159 l 3,0 0,3 -3,0 z M 90,159 l 3,0 0,3 -3,0 z M 99,159 l 3,0 0,3 -3,0 z M 117,159 l 3,0 0,3 -3,0 z M 120,159 l 3,0 0,3 -3,0 z M 135,159 l 3,0 0,3 -3,0 z M 138,159 l 3,0 0,3 -3,0 z M 147,159 l 3,0 0,3 -3,0 z M 156,159 l 3,0 0,3 -3,0 z M 159,159 l 3,0 0,3 -3,0 z M 165,159 l 3,0 0,3 -3,0 z M 186,159 l 3,0 0,3 -3,0 z M 189,159 l 3,0 0,3 -3,0 z M 192,159 l 3,0 0,3 -3,0 z M 3,162 l 3,0 0,3 -3,0 z M 6,162 l 3,0 0,3 -3,0 z M 15,162 l 3,0 0,3 -3,0 z M 24,162 l 3,0 0,3 -3,0 z M 27,162 l 3,0 0,3 -3,0 z M 30,162 l 3,0 0,3 -3,0 z M 33,162 l 3,0 0,3 -3,0 z M 36,162 l 3,0 0,3 -3,0 z M 39,162 l 3,0 0,3 -3,0 z M 42,162 l 3,0 0,3 -3,0 z M 48,162 l 3,0 0,3 -3,0 z M 54,162 l 3,0 0,3 -3,0 z M 57,162 l 3,0 0,3 -3,0 z M 63,162 l 3,0 0,3 -3,0 z M 66,162 l 3,0 0,3 -3,0 z M 69,162 l 3,0 0,3 -3,0 z M 72,162 l 3,0 0,3 -3,0 z M 81,162 l 3,0 0,3 -3,0 z M 84,162 l 3,0 0,3 -3,0 z M 87,162 l 3,0 0,3 -3,0 z M 93,162 l 3,0 0,3 -3,0 z M 111,162 l 3,0 0,3 -3,0 z M 117,162 l 3,0 0,3 -3,0 z M 123,162 l 3,0 0,3 -3,0 z M 129,162 l 3,0 0,3 -3,0 z M 132,162 l 3,0 0,3 -3,0 z M 135,162 l 3,0 0,3 -3,0 z M 150,162 l 3,0 0,3 -3,0 z M 153,162 l 3,0 0,3 -3,0 z M 162,162 l 3,0 0,3 -3,0 z M 165,162 l 3,0 0,3 -3,0 z M 171,162 l 3,0 0,3 -3,0 z M 174,162 l 3,0 0,3 -3,0 z M 177,162 l 3,0 0,3 -3,0 z M 180,162 l 3,0 0,3 -3,0 z M 183,162 l 3,0 0,3 -3,0 z M 189,162 l 3,0 0,3 -3,0 z M 192,162 l 3,0 0,3 -3,0 z M 9,165 l 3,0 0,3 -3,0 z M 12,165 l 3,0 0,3 -3,0 z M 18,165 l 3,0 0,3 -3,0 z M 21,165 l 3,0 0,3 -3,0 z M 24,165 l 3,0 0,3 -3,0 z M 30,165 l 3,0 0,3 -3,0 z M 36,165 l 3,0 0,3 -3,0 z M 39,165 l 3,0 0,3 -3,0 z M 57,165 l 3,0 0,3 -3,0 z M 66,165 l 3,0 0,3 -3,0 z M 75,165 l 3,0 0,3 -3,0 z M 81,165 l 3,0 0,3 -3,0 z M 84,165 l 3,0 0,3 -3,0 z M 87,165 l 3,0 0,3 -3,0 z M 90,165 l 3,0 0,3 -3,0 z M 93,165 l 3,0 0,3 -3,0 z M 96,165 l 3,0 0,3 -3,0 z M 99,165 l 3,0 0,3 -3,0 z M 102,165 l 3,0 0,3 -3,0 z M 108,165 l 3,0 0,3 -3,0 z M 111,165 l 3,0 0,3 -3,0 z M 114,165 l 3,0 0,3 -3,0 z M 120,165 l 3,0 0,3 -3,0 z M 126,165 l 3,0 0,3 -3,0 z M 129,165 l 3,0 0,3 -3,0 z M 132,165 l 3,0 0,3 -3,0 z M 144,165 l 3,0 0,3 -3,0 z M 147,165 l 3,0 0,3 -3,0 z M 153,165 l 3,0 0,3 -3,0 z M 180,165 l 3,0 0,3 -3,0 z M 186,165 l 3,0 0,3 -3,0 z M 192,165 l 3,0 0,3 -3,0 z M 3,168 l 3,0 0,3 -3,0 z M 12,168 l 3,0 0,3 -3,0 z M 27,168 l 3,0 0,3 -3,0 z M 30,168 l 3,0 0,3 -3,0 z M 33,168 l 3,0 0,3 -3,0 z M 42,168 l 3,0 0,3 -3,0 z M 54,168 l 3,0 0,3 -3,0 z M 57,168 l 3,0 0,3 -3,0 z M 60,168 l 3,0 0,3 -3,0 z M 66,168 l 3,0 0,3 -3,0 z M 72,168 l 3,0 0,3 -3,0 z M 75,168 l 3,0 0,3 -3,0 z M 93,168 l 3,0 0,3 -3,0 z M 96,168 l 3,0 0,3 -3,0 z M 102,168 l 3,0 0,3 -3,0 z M 105,168 l 3,0 0,3 -3,0 z M 108,168 l 3,0 0,3 -3,0 z M 120,168 l 3,0 0,3 -3,0 z M 123,168 l 3,0 0,3 -3,0 z M 129,168 l 3,0 0,3 -3,0 z M 132,168 l 3,0 0,3 -3,0 z M 138,168 l 3,0 0,3 -3,0 z M 147,168 l 3,0 0,3 -3,0 z M 153,168 l 3,0 0,3 -3,0 z M 156,168 l 3,0 0,3 -3,0 z M 162,168 l 3,0 0,3 -3,0 z M 180,168 l 3,0 0,3 -3,0 z M 183,168 l 3,0 0,3 -3,0 z M 186,168 l 3,0 0,3 -3,0 z M 192,168 l 3,0 0,3 -3,0 z M 195,168 l 3,0 0,3 -3,0 z M 6,171 l 3,0 0,3 -3,0 z M 9,171 l 3,0 0,3 -3,0 z M 15,171 l 3,0 0,3 -3,0 z M 21,171 l 3,0 0,3 -3,0 z M 30,171 l 3,0 0,3 -3,0 z M 33,171 l 3,0 0,3 -3,0 z M 36,171 l 3,0 0,3 -3,0 z M 45,171 l 3,0 0,3 -3,0 z M 48,171 l 3,0 0,3 -3,0 z M 54,171 l 3,0 0,3 -3,0 z M 57,171 l 3,0 0,3 -3,0 z M 60,171 l 3,0 0,3 -3,0 z M 69,171 l 3,0 0,3 -3,0 z M 81,171 l 3,0 0,3 -3,0 z M 84,171 l 3,0 0,3 -3,0 z M 87,171 l 3,0 0,3 -3,0 z M 90,171 l 3,0 0,3 -3,0 z M 93,171 l 3,0 0,3 -3,0 z M 96,171 l 3,0 0,3 -3,0 z M 99,171 l 3,0 0,3 -3,0 z M 102,171 l 3,0 0,3 -3,0 z M 105,171 l 3,0 0,3 -3,0 z M 111,171 l 3,0 0,3 -3,0 z M 117,171 l 3,0 0,3 -3,0 z M 120,171 l 3,0 0,3 -3,0 z M 123,171 l 3,0 0,3 -3,0 z M 135,171 l 3,0 0,3 -3,0 z M 138,171 l 3,0 0,3 -3,0 z M 162,171 l 3,0 0,3 -3,0 z M 165,171 l 3,0 0,3 -3,0 z M 171,171 l 3,0 0,3 -3,0 z M 174,171 l 3,0 0,3 -3,0 z M 177,171 l 3,0 0,3 -3,0 z M 180,171 l 3,0 0,3 -3,0 z M 183,171 l 3,0 0,3 -3,0 z M 189,171 l 3,0 0,3 -3,0 z M 192,171 l 3,0 0,3 -3,0 z M 27,174 l 3,0 0,3 -3,0 z M 30,174 l 3,0 0,3 -3,0 z M 33,174 l 3,0 0,3 -3,0 z M 36,174 l 3,0 0,3 -3,0 z M 57,174 l 3,0 0,3 -3,0 z M 72,174 l 3,0 0,3 -3,0 z M 81,174 l 3,0 0,3 -3,0 z M 84,174 l 3,0 0,3 -3,0 z M 87,174 l 3,0 0,3 -3,0 z M 90,174 l 3,0 0,3 -3,0 z M 93,174 l 3,0 0,3 -3,0 z M 105,174 l 3,0 0,3 -3,0 z M 108,174 l 3,0 0,3 -3,0 z M 114,174 l 3,0 0,3 -3,0 z M 117,174 l 3,0 0,3 -3,0 z M 126,174 l 3,0 0,3 -3,0 z M 129,174 l 3,0 0,3 -3,0 z M 135,174 l 3,0 0,3 -3,0 z M 138,174 l 3,0 0,3 -3,0 z M 141,174 l 3,0 0,3 -3,0 z M 147,174 l 3,0 0,3 -3,0 z M 171,174 l 3,0 0,3 -3,0 z M 183,174 l 3,0 0,3 -3,0 z M 186,174 l 3,0 0,3 -3,0 z M 192,174 l 3,0 0,3 -3,0 z M 195,174 l 3,0 0,3 -3,0 z M 3,177 l 3,0 0,3 -3,0 z M 6,177 l 3,0 0,3 -3,0 z M 9,177 l 3,0 0,3 -3,0 z M 12,177 l 3,0 0,3 -3,0 z M 15,177 l 3,0 0,3 -3,0 z M 18,177 l 3,0 0,3 -3,0 z M 21,177 l 3,0 0,3 -3,0 z M 27,177 l 3,0 0,3 -3,0 z M 30,177 l 3,0 0,3 -3,0 z M 36,177 l 3,0 0,3 -3,0 z M 42,177 l 3,0 0,3 -3,0 z M 54,177 l 3,0 0,3 -3,0 z M 72,177 l 3,0 0,3 -3,0 z M 75,177 l 3,0 0,3 -3,0 z M 78,177 l 3,0 0,3 -3,0 z M 84,177 l 3,0 0,3 -3,0 z M 93,177 l 3,0 0,3 -3,0 z M 99,177 l 3,0 0,3 -3,0 z M 105,177 l 3,0 0,3 -3,0 z M 108,177 l 3,0 0,3 -3,0 z M 111,177 l 3,0 0,3 -3,0 z M 117,177 l 3,0 0,3 -3,0 z M 120,177 l 3,0 0,3 -3,0 z M 123,177 l 3,0 0,3 -3,0 z M 126,177 l 3,0 0,3 -3,0 z M 132,177 l 3,0 0,3 -3,0 z M 135,177 l 3,0 0,3 -3,0 z M 144,177 l 3,0 0,3 -3,0 z M 147,177 l 3,0 0,3 -3,0 z M 150,177 l 3,0 0,3 -3,0 z M 162,177 l 3,0 0,3 -3,0 z M 165,177 l 3,0 0,3 -3,0 z M 168,177 l 3,0 0,3 -3,0 z M 171,177 l 3,0 0,3 -3,0 z M 177,177 l 3,0 0,3 -3,0 z M 183,177 l 3,0 0,3 -3,0 z M 186,177 l 3,0 0,3 -3,0 z M 189,177 l 3,0 0,3 -3,0 z M 192,177 l 3,0 0,3 -3,0 z M 195,177 l 3,0 0,3 -3,0 z M 3,180 l 3,0 0,3 -3,0 z M 21,180 l 3,0 0,3 -3,0 z M 42,180 l 3,0 0,3 -3,0 z M 45,180 l 3,0 0,3 -3,0 z M 48,180 l 3,0 0,3 -3,0 z M 54,180 l 3,0 0,3 -3,0 z M 57,180 l 3,0 0,3 -3,0 z M 63,180 l 3,0 0,3 -3,0 z M 84,180 l 3,0 0,3 -3,0 z M 93,180 l 3,0 0,3 -3,0 z M 105,180 l 3,0 0,3 -3,0 z M 114,180 l 3,0 0,3 -3,0 z M 126,180 l 3,0 0,3 -3,0 z M 129,180 l 3,0 0,3 -3,0 z M 153,180 l 3,0 0,3 -3,0 z M 156,180 l 3,0 0,3 -3,0 z M 159,180 l 3,0 0,3 -3,0 z M 162,180 l 3,0 0,3 -3,0 z M 165,180 l 3,0 0,3 -3,0 z M 171,180 l 3,0 0,3 -3,0 z M 183,180 l 3,0 0,3 -3,0 z M 189,180 l 3,0 0,3 -3,0 z M 192,180 l 3,0 0,3 -3,0 z M 3,183 l 3,0 0,3 -3,0 z M 9,183 l 3,0 0,3 -3,0 z M 12,183 l 3,0 0,3 -3,0 z M 15,183 l 3,0 0,3 -3,0 z M 21,183 l 3,0 0,3 -3,0 z M 27,183 l 3,0 0,3 -3,0 z M 30,183 l 3,0 0,3 -3,0 z M 36,183 l 3,0 0,3 -3,0 z M 48,183 l 3,0 0,3 -3,0 z M 54,183 l 3,0 0,3 -3,0 z M 57,183 l 3,0 0,3 -3,0 z M 66,183 l 3,0 0,3 -3,0 z M 72,183 l 3,0 0,3 -3,0 z M 75,183 l 3,0 0,3 -3,0 z M 78,183 l 3,0 0,3 -3,0 z M 84,183 l 3,0 0,3 -3,0 z M 87,183 l 3,0 0,3 -3,0 z M 93,183 l 3,0 0,3 -3,0 z M 96,183 l 3,0 0,3 -3,0 z M 99,183 l 3,0 0,3 -3,0 z M 102,183 l 3,0 0,3 -3,0 z M 105,183 l 3,0 0,3 -3,0 z M 108,183 l 3,0 0,3 -3,0 z M 114,183 l 3,0 0,3 -3,0 z M 117,183 l 3,0 0,3 -3,0 z M 126,183 l 3,0 0,3 -3,0 z M 141,183 l 3,0 0,3 -3,0 z M 150,183 l 3,0 0,3 -3,0 z M 156,183 l 3,0 0,3 -3,0 z M 165,183 l 3,0 0,3 -3,0 z M 171,183 l 3,0 0,3 -3,0 z M 174,183 l 3,0 0,3 -3,0 z M 177,183 l 3,0 0,3 -3,0 z M 180,183 l 3,0 0,3 -3,0 z M 183,183 l 3,0 0,3 -3,0 z M 189,183 l 3,0 0,3 -3,0 z M 192,183 l 3,0 0,3 -3,0 z M 195,183 l 3,0 0,3 -3,0 z M 3,186 l 3,0 0,3 -3,0 z M 9,186 l 3,0 0,3 -3,0 z M 12,186 l 3,0 0,3 -3,0 z M 15,186 l 3,0 0,3 -3,0 z M 21,186 l 3,0 0,3 -3,0 z M 27,186 l 3,0 0,3 -3,0 z M 33,186 l 3,0 0,3 -3,0 z M 36,186 l 3,0 0,3 -3,0 z M 39,186 l 3,0 0,3 -3,0 z M 42,186 l 3,0 0,3 -3,0 z M 51,186 l 3,0 0,3 -3,0 z M 66,186 l 3,0 0,3 -3,0 z M 69,186 l 3,0 0,3 -3,0 z M 75,186 l 3,0 0,3 -3,0 z M 78,186 l 3,0 0,3 -3,0 z M 90,186 l 3,0 0,3 -3,0 z M 93,186 l 3,0 0,3 -3,0 z M 96,186 l 3,0 0,3 -3,0 z M 120,186 l 3,0 0,3 -3,0 z M 135,186 l 3,0 0,3 -3,0 z M 138,186 l 3,0 0,3 -3,0 z M 141,186 l 3,0 0,3 -3,0 z M 144,186 l 3,0 0,3 -3,0 z M 156,186 l 3,0 0,3 -3,0 z M 159,186 l 3,0 0,3 -3,0 z M 180,186 l 3,0 0,3 -3,0 z M 186,186 l 3,0 0,3 -3,0 z M 192,186 l 3,0 0,3 -3,0 z M 3,189 l 3,0 0,3 -3,0 z M 9,189 l 3,0 0,3 -3,0 z M 12,189 l 3,0 0,3 -3,0 z M 15,189 l 3,0 0,3 -3,0 z M 21,189 l 3,0 0,3 -3,0 z M 27,189 l 3,0 0,3 -3,0 z M 30,189 l 3,0 0,3 -3,0 z M 33,189 l 3,0 0,3 -3,0 z M 36,189 l 3,0 0,3 -3,0 z M 48,189 l 3,0 0,3 -3,0 z M 51,189 l 3,0 0,3 -3,0 z M 57,189 l 3,0 0,3 -3,0 z M 69,189 l 3,0 0,3 -3,0 z M 75,189 l 3,0 0,3 -3,0 z M 81,189 l 3,0 0,3 -3,0 z M 84,189 l 3,0 0,3 -3,0 z M 87,189 l 3,0 0,3 -3,0 z M 90,189 l 3,0 0,3 -3,0 z M 93,189 l 3,0 0,3 -3,0 z M 99,189 l 3,0 0,3 -3,0 z M 102,189 l 3,0 0,3 -3,0 z M 105,189 l 3,0 0,3 -3,0 z M 108,189 l 3,0 0,3 -3,0 z M 111,189 l 3,0 0,3 -3,0 z M 114,189 l 3,0 0,3 -3,0 z M 117,189 l 3,0 0,3 -3,0 z M 123,189 l 3,0 0,3 -3,0 z M 126,189 l 3,0 0,3 -3,0 z M 135,189 l 3,0 0,3 -3,0 z M 147,189 l 3,0 0,3 -3,0 z M 153,189 l 3,0 0,3 -3,0 z M 159,189 l 3,0 0,3 -3,0 z M 162,189 l 3,0 0,3 -3,0 z M 168,189 l 3,0 0,3 -3,0 z M 174,189 l 3,0 0,3 -3,0 z M 180,189 l 3,0 0,3 -3,0 z M 183,189 l 3,0 0,3 -3,0 z M 192,189 l 3,0 0,3 -3,0 z M 3,192 l 3,0 0,3 -3,0 z M 21,192 l 3,0 0,3 -3,0 z M 27,192 l 3,0 0,3 -3,0 z M 33,192 l 3,0 0,3 -3,0 z M 39,192 l 3,0 0,3 -3,0 z M 51,192 l 3,0 0,3 -3,0 z M 69,192 l 3,0 0,3 -3,0 z M 75,192 l 3,0 0,3 -3,0 z M 78,192 l 3,0 0,3 -3,0 z M 87,192 l 3,0 0,3 -3,0 z M 90,192 l 3,0 0,3 -3,0 z M 93,192 l 3,0 0,3 -3,0 z M 96,192 l 3,0 0,3 -3,0 z M 108,192 l 3,0 0,3 -3,0 z M 111,192 l 3,0 0,3 -3,0 z M 114,192 l 3,0 0,3 -3,0 z M 117,192 l 3,0 0,3 -3,0 z M 123,192 l 3,0 0,3 -3,0 z M 129,192 l 3,0 0,3 -3,0 z M 132,192 l 3,0 0,3 -3,0 z M 135,192 l 3,0 0,3 -3,0 z M 144,192 l 3,0 0,3 -3,0 z M 159,192 l 3,0 0,3 -3,0 z M 162,192 l 3,0 0,3 -3,0 z M 174,192 l 3,0 0,3 -3,0 z M 177,192 l 3,0 0,3 -3,0 z M 186,192 l 3,0 0,3 -3,0 z M 192,192 l 3,0 0,3 -3,0 z M 195,192 l 3,0 0,3 -3,0 z M 3,195 l 3,0 0,3 -3,0 z M 6,195 l 3,0 0,3 -3,0 z M 9,195 l 3,0 0,3 -3,0 z M 12,195 l 3,0 0,3 -3,0 z M 15,195 l 3,0 0,3 -3,0 z M 18,195 l 3,0 0,3 -3,0 z M 21,195 l 3,0 0,3 -3,0 z M 27,195 l 3,0 0,3 -3,0 z M 30,195 l 3,0 0,3 -3,0 z M 36,195 l 3,0 0,3 -3,0 z M 42,195 l 3,0 0,3 -3,0 z M 45,195 l 3,0 0,3 -3,0 z M 48,195 l 3,0 0,3 -3,0 z M 51,195 l 3,0 0,3 -3,0 z M 54,195 l 3,0 0,3 -3,0 z M 57,195 l 3,0 0,3 -3,0 z M 69,195 l 3,0 0,3 -3,0 z M 72,195 l 3,0 0,3 -3,0 z M 81,195 l 3,0 0,3 -3,0 z M 87,195 l 3,0 0,3 -3,0 z M 99,195 l 3,0 0,3 -3,0 z M 102,195 l 3,0 0,3 -3,0 z M 105,195 l 3,0 0,3 -3,0 z M 108,195 l 3,0 0,3 -3,0 z M 111,195 l 3,0 0,3 -3,0 z M 114,195 l 3,0 0,3 -3,0 z M 117,195 l 3,0 0,3 -3,0 z M 129,195 l 3,0 0,3 -3,0 z M 132,195 l 3,0 0,3 -3,0 z M 147,195 l 3,0 0,3 -3,0 z M 165,195 l 3,0 0,3 -3,0 z M 180,195 l 3,0 0,3 -3,0 z M 189,195 l 3,0 0,3 -3,0 z M 192,195 l 3,0 0,3 -3,0 z " />
	</g>
</svg>
