<?xml version="1.0" standalone="no"?>
<svg xmlns="http://www.w3.org/2000/svg" version="1.1" width="236" height="236">
	<!-- Created with https://api.qrserver.com (QR Code API, see goQR.me/api for information) -->
	<title>QR Code</title>
	<desc>BEGIN:VCARD
VERSION:2.1
FN:Jakub Šindelář
N:Šindelář;Jakub
TEL;CELL:+420 734 300 346
EMAIL;HOME;INTERNET:j.sindelar01@gmail.com
URL:http://www.jsindelar.cz/
ADR:;;Hekova 114;Praha - 6  - Řepy;;163 00;Česká Republika
END:VCARD
</desc>
	<rect style="fill:rgb(255, 255, 255);fill-opacity:1" x="0" y="0" width="236" height="236" />
	<g id="elements">
		<path style="fill:rgb(0, 0, 0)" d="M 4,4 l 4,0 0,4 -4,0 z M 8,4 l 4,0 0,4 -4,0 z M 12,4 l 4,0 0,4 -4,0 z M 16,4 l 4,0 0,4 -4,0 z M 20,4 l 4,0 0,4 -4,0 z M 24,4 l 4,0 0,4 -4,0 z M 28,4 l 4,0 0,4 -4,0 z M 44,4 l 4,0 0,4 -4,0 z M 48,4 l 4,0 0,4 -4,0 z M 52,4 l 4,0 0,4 -4,0 z M 72,4 l 4,0 0,4 -4,0 z M 84,4 l 4,0 0,4 -4,0 z M 88,4 l 4,0 0,4 -4,0 z M 96,4 l 4,0 0,4 -4,0 z M 100,4 l 4,0 0,4 -4,0 z M 104,4 l 4,0 0,4 -4,0 z M 112,4 l 4,0 0,4 -4,0 z M 120,4 l 4,0 0,4 -4,0 z M 132,4 l 4,0 0,4 -4,0 z M 136,4 l 4,0 0,4 -4,0 z M 148,4 l 4,0 0,4 -4,0 z M 156,4 l 4,0 0,4 -4,0 z M 172,4 l 4,0 0,4 -4,0 z M 188,4 l 4,0 0,4 -4,0 z M 192,4 l 4,0 0,4 -4,0 z M 204,4 l 4,0 0,4 -4,0 z M 208,4 l 4,0 0,4 -4,0 z M 212,4 l 4,0 0,4 -4,0 z M 216,4 l 4,0 0,4 -4,0 z M 220,4 l 4,0 0,4 -4,0 z M 224,4 l 4,0 0,4 -4,0 z M 228,4 l 4,0 0,4 -4,0 z M 4,8 l 4,0 0,4 -4,0 z M 28,8 l 4,0 0,4 -4,0 z M 36,8 l 4,0 0,4 -4,0 z M 40,8 l 4,0 0,4 -4,0 z M 60,8 l 4,0 0,4 -4,0 z M 76,8 l 4,0 0,4 -4,0 z M 80,8 l 4,0 0,4 -4,0 z M 84,8 l 4,0 0,4 -4,0 z M 88,8 l 4,0 0,4 -4,0 z M 104,8 l 4,0 0,4 -4,0 z M 108,8 l 4,0 0,4 -4,0 z M 112,8 l 4,0 0,4 -4,0 z M 124,8 l 4,0 0,4 -4,0 z M 128,8 l 4,0 0,4 -4,0 z M 132,8 l 4,0 0,4 -4,0 z M 136,8 l 4,0 0,4 -4,0 z M 144,8 l 4,0 0,4 -4,0 z M 148,8 l 4,0 0,4 -4,0 z M 160,8 l 4,0 0,4 -4,0 z M 164,8 l 4,0 0,4 -4,0 z M 172,8 l 4,0 0,4 -4,0 z M 192,8 l 4,0 0,4 -4,0 z M 204,8 l 4,0 0,4 -4,0 z M 228,8 l 4,0 0,4 -4,0 z M 4,12 l 4,0 0,4 -4,0 z M 12,12 l 4,0 0,4 -4,0 z M 16,12 l 4,0 0,4 -4,0 z M 20,12 l 4,0 0,4 -4,0 z M 28,12 l 4,0 0,4 -4,0 z M 44,12 l 4,0 0,4 -4,0 z M 60,12 l 4,0 0,4 -4,0 z M 72,12 l 4,0 0,4 -4,0 z M 76,12 l 4,0 0,4 -4,0 z M 96,12 l 4,0 0,4 -4,0 z M 100,12 l 4,0 0,4 -4,0 z M 104,12 l 4,0 0,4 -4,0 z M 108,12 l 4,0 0,4 -4,0 z M 116,12 l 4,0 0,4 -4,0 z M 124,12 l 4,0 0,4 -4,0 z M 136,12 l 4,0 0,4 -4,0 z M 140,12 l 4,0 0,4 -4,0 z M 148,12 l 4,0 0,4 -4,0 z M 152,12 l 4,0 0,4 -4,0 z M 156,12 l 4,0 0,4 -4,0 z M 160,12 l 4,0 0,4 -4,0 z M 164,12 l 4,0 0,4 -4,0 z M 168,12 l 4,0 0,4 -4,0 z M 172,12 l 4,0 0,4 -4,0 z M 180,12 l 4,0 0,4 -4,0 z M 184,12 l 4,0 0,4 -4,0 z M 188,12 l 4,0 0,4 -4,0 z M 192,12 l 4,0 0,4 -4,0 z M 204,12 l 4,0 0,4 -4,0 z M 212,12 l 4,0 0,4 -4,0 z M 216,12 l 4,0 0,4 -4,0 z M 220,12 l 4,0 0,4 -4,0 z M 228,12 l 4,0 0,4 -4,0 z M 4,16 l 4,0 0,4 -4,0 z M 12,16 l 4,0 0,4 -4,0 z M 16,16 l 4,0 0,4 -4,0 z M 20,16 l 4,0 0,4 -4,0 z M 28,16 l 4,0 0,4 -4,0 z M 36,16 l 4,0 0,4 -4,0 z M 40,16 l 4,0 0,4 -4,0 z M 52,16 l 4,0 0,4 -4,0 z M 56,16 l 4,0 0,4 -4,0 z M 64,16 l 4,0 0,4 -4,0 z M 72,16 l 4,0 0,4 -4,0 z M 76,16 l 4,0 0,4 -4,0 z M 80,16 l 4,0 0,4 -4,0 z M 100,16 l 4,0 0,4 -4,0 z M 108,16 l 4,0 0,4 -4,0 z M 124,16 l 4,0 0,4 -4,0 z M 128,16 l 4,0 0,4 -4,0 z M 132,16 l 4,0 0,4 -4,0 z M 140,16 l 4,0 0,4 -4,0 z M 148,16 l 4,0 0,4 -4,0 z M 152,16 l 4,0 0,4 -4,0 z M 156,16 l 4,0 0,4 -4,0 z M 164,16 l 4,0 0,4 -4,0 z M 168,16 l 4,0 0,4 -4,0 z M 172,16 l 4,0 0,4 -4,0 z M 184,16 l 4,0 0,4 -4,0 z M 192,16 l 4,0 0,4 -4,0 z M 204,16 l 4,0 0,4 -4,0 z M 212,16 l 4,0 0,4 -4,0 z M 216,16 l 4,0 0,4 -4,0 z M 220,16 l 4,0 0,4 -4,0 z M 228,16 l 4,0 0,4 -4,0 z M 4,20 l 4,0 0,4 -4,0 z M 12,20 l 4,0 0,4 -4,0 z M 16,20 l 4,0 0,4 -4,0 z M 20,20 l 4,0 0,4 -4,0 z M 28,20 l 4,0 0,4 -4,0 z M 56,20 l 4,0 0,4 -4,0 z M 68,20 l 4,0 0,4 -4,0 z M 92,20 l 4,0 0,4 -4,0 z M 96,20 l 4,0 0,4 -4,0 z M 104,20 l 4,0 0,4 -4,0 z M 108,20 l 4,0 0,4 -4,0 z M 112,20 l 4,0 0,4 -4,0 z M 116,20 l 4,0 0,4 -4,0 z M 120,20 l 4,0 0,4 -4,0 z M 124,20 l 4,0 0,4 -4,0 z M 132,20 l 4,0 0,4 -4,0 z M 160,20 l 4,0 0,4 -4,0 z M 168,20 l 4,0 0,4 -4,0 z M 172,20 l 4,0 0,4 -4,0 z M 180,20 l 4,0 0,4 -4,0 z M 192,20 l 4,0 0,4 -4,0 z M 204,20 l 4,0 0,4 -4,0 z M 212,20 l 4,0 0,4 -4,0 z M 216,20 l 4,0 0,4 -4,0 z M 220,20 l 4,0 0,4 -4,0 z M 228,20 l 4,0 0,4 -4,0 z M 4,24 l 4,0 0,4 -4,0 z M 28,24 l 4,0 0,4 -4,0 z M 36,24 l 4,0 0,4 -4,0 z M 40,24 l 4,0 0,4 -4,0 z M 52,24 l 4,0 0,4 -4,0 z M 56,24 l 4,0 0,4 -4,0 z M 64,24 l 4,0 0,4 -4,0 z M 68,24 l 4,0 0,4 -4,0 z M 76,24 l 4,0 0,4 -4,0 z M 80,24 l 4,0 0,4 -4,0 z M 92,24 l 4,0 0,4 -4,0 z M 104,24 l 4,0 0,4 -4,0 z M 108,24 l 4,0 0,4 -4,0 z M 124,24 l 4,0 0,4 -4,0 z M 128,24 l 4,0 0,4 -4,0 z M 136,24 l 4,0 0,4 -4,0 z M 148,24 l 4,0 0,4 -4,0 z M 176,24 l 4,0 0,4 -4,0 z M 180,24 l 4,0 0,4 -4,0 z M 184,24 l 4,0 0,4 -4,0 z M 188,24 l 4,0 0,4 -4,0 z M 204,24 l 4,0 0,4 -4,0 z M 228,24 l 4,0 0,4 -4,0 z M 4,28 l 4,0 0,4 -4,0 z M 8,28 l 4,0 0,4 -4,0 z M 12,28 l 4,0 0,4 -4,0 z M 16,28 l 4,0 0,4 -4,0 z M 20,28 l 4,0 0,4 -4,0 z M 24,28 l 4,0 0,4 -4,0 z M 28,28 l 4,0 0,4 -4,0 z M 36,28 l 4,0 0,4 -4,0 z M 44,28 l 4,0 0,4 -4,0 z M 52,28 l 4,0 0,4 -4,0 z M 60,28 l 4,0 0,4 -4,0 z M 68,28 l 4,0 0,4 -4,0 z M 76,28 l 4,0 0,4 -4,0 z M 84,28 l 4,0 0,4 -4,0 z M 92,28 l 4,0 0,4 -4,0 z M 100,28 l 4,0 0,4 -4,0 z M 108,28 l 4,0 0,4 -4,0 z M 116,28 l 4,0 0,4 -4,0 z M 124,28 l 4,0 0,4 -4,0 z M 132,28 l 4,0 0,4 -4,0 z M 140,28 l 4,0 0,4 -4,0 z M 148,28 l 4,0 0,4 -4,0 z M 156,28 l 4,0 0,4 -4,0 z M 164,28 l 4,0 0,4 -4,0 z M 172,28 l 4,0 0,4 -4,0 z M 180,28 l 4,0 0,4 -4,0 z M 188,28 l 4,0 0,4 -4,0 z M 196,28 l 4,0 0,4 -4,0 z M 204,28 l 4,0 0,4 -4,0 z M 208,28 l 4,0 0,4 -4,0 z M 212,28 l 4,0 0,4 -4,0 z M 216,28 l 4,0 0,4 -4,0 z M 220,28 l 4,0 0,4 -4,0 z M 224,28 l 4,0 0,4 -4,0 z M 228,28 l 4,0 0,4 -4,0 z M 40,32 l 4,0 0,4 -4,0 z M 48,32 l 4,0 0,4 -4,0 z M 60,32 l 4,0 0,4 -4,0 z M 68,32 l 4,0 0,4 -4,0 z M 72,32 l 4,0 0,4 -4,0 z M 76,32 l 4,0 0,4 -4,0 z M 92,32 l 4,0 0,4 -4,0 z M 96,32 l 4,0 0,4 -4,0 z M 108,32 l 4,0 0,4 -4,0 z M 124,32 l 4,0 0,4 -4,0 z M 136,32 l 4,0 0,4 -4,0 z M 144,32 l 4,0 0,4 -4,0 z M 148,32 l 4,0 0,4 -4,0 z M 152,32 l 4,0 0,4 -4,0 z M 160,32 l 4,0 0,4 -4,0 z M 164,32 l 4,0 0,4 -4,0 z M 172,32 l 4,0 0,4 -4,0 z M 176,32 l 4,0 0,4 -4,0 z M 184,32 l 4,0 0,4 -4,0 z M 192,32 l 4,0 0,4 -4,0 z M 196,32 l 4,0 0,4 -4,0 z M 4,36 l 4,0 0,4 -4,0 z M 8,36 l 4,0 0,4 -4,0 z M 12,36 l 4,0 0,4 -4,0 z M 16,36 l 4,0 0,4 -4,0 z M 20,36 l 4,0 0,4 -4,0 z M 28,36 l 4,0 0,4 -4,0 z M 32,36 l 4,0 0,4 -4,0 z M 36,36 l 4,0 0,4 -4,0 z M 44,36 l 4,0 0,4 -4,0 z M 48,36 l 4,0 0,4 -4,0 z M 52,36 l 4,0 0,4 -4,0 z M 56,36 l 4,0 0,4 -4,0 z M 68,36 l 4,0 0,4 -4,0 z M 96,36 l 4,0 0,4 -4,0 z M 100,36 l 4,0 0,4 -4,0 z M 108,36 l 4,0 0,4 -4,0 z M 112,36 l 4,0 0,4 -4,0 z M 116,36 l 4,0 0,4 -4,0 z M 120,36 l 4,0 0,4 -4,0 z M 124,36 l 4,0 0,4 -4,0 z M 128,36 l 4,0 0,4 -4,0 z M 132,36 l 4,0 0,4 -4,0 z M 136,36 l 4,0 0,4 -4,0 z M 148,36 l 4,0 0,4 -4,0 z M 152,36 l 4,0 0,4 -4,0 z M 156,36 l 4,0 0,4 -4,0 z M 160,36 l 4,0 0,4 -4,0 z M 164,36 l 4,0 0,4 -4,0 z M 176,36 l 4,0 0,4 -4,0 z M 180,36 l 4,0 0,4 -4,0 z M 184,36 l 4,0 0,4 -4,0 z M 192,36 l 4,0 0,4 -4,0 z M 196,36 l 4,0 0,4 -4,0 z M 200,36 l 4,0 0,4 -4,0 z M 208,36 l 4,0 0,4 -4,0 z M 216,36 l 4,0 0,4 -4,0 z M 224,36 l 4,0 0,4 -4,0 z M 4,40 l 4,0 0,4 -4,0 z M 8,40 l 4,0 0,4 -4,0 z M 16,40 l 4,0 0,4 -4,0 z M 20,40 l 4,0 0,4 -4,0 z M 36,40 l 4,0 0,4 -4,0 z M 44,40 l 4,0 0,4 -4,0 z M 60,40 l 4,0 0,4 -4,0 z M 76,40 l 4,0 0,4 -4,0 z M 80,40 l 4,0 0,4 -4,0 z M 92,40 l 4,0 0,4 -4,0 z M 104,40 l 4,0 0,4 -4,0 z M 112,40 l 4,0 0,4 -4,0 z M 116,40 l 4,0 0,4 -4,0 z M 124,40 l 4,0 0,4 -4,0 z M 132,40 l 4,0 0,4 -4,0 z M 136,40 l 4,0 0,4 -4,0 z M 140,40 l 4,0 0,4 -4,0 z M 148,40 l 4,0 0,4 -4,0 z M 152,40 l 4,0 0,4 -4,0 z M 160,40 l 4,0 0,4 -4,0 z M 164,40 l 4,0 0,4 -4,0 z M 168,40 l 4,0 0,4 -4,0 z M 184,40 l 4,0 0,4 -4,0 z M 188,40 l 4,0 0,4 -4,0 z M 192,40 l 4,0 0,4 -4,0 z M 200,40 l 4,0 0,4 -4,0 z M 208,40 l 4,0 0,4 -4,0 z M 212,40 l 4,0 0,4 -4,0 z M 216,40 l 4,0 0,4 -4,0 z M 220,40 l 4,0 0,4 -4,0 z M 228,40 l 4,0 0,4 -4,0 z M 8,44 l 4,0 0,4 -4,0 z M 20,44 l 4,0 0,4 -4,0 z M 24,44 l 4,0 0,4 -4,0 z M 28,44 l 4,0 0,4 -4,0 z M 32,44 l 4,0 0,4 -4,0 z M 36,44 l 4,0 0,4 -4,0 z M 44,44 l 4,0 0,4 -4,0 z M 48,44 l 4,0 0,4 -4,0 z M 52,44 l 4,0 0,4 -4,0 z M 64,44 l 4,0 0,4 -4,0 z M 68,44 l 4,0 0,4 -4,0 z M 72,44 l 4,0 0,4 -4,0 z M 88,44 l 4,0 0,4 -4,0 z M 96,44 l 4,0 0,4 -4,0 z M 100,44 l 4,0 0,4 -4,0 z M 116,44 l 4,0 0,4 -4,0 z M 120,44 l 4,0 0,4 -4,0 z M 128,44 l 4,0 0,4 -4,0 z M 132,44 l 4,0 0,4 -4,0 z M 136,44 l 4,0 0,4 -4,0 z M 140,44 l 4,0 0,4 -4,0 z M 148,44 l 4,0 0,4 -4,0 z M 152,44 l 4,0 0,4 -4,0 z M 168,44 l 4,0 0,4 -4,0 z M 172,44 l 4,0 0,4 -4,0 z M 180,44 l 4,0 0,4 -4,0 z M 184,44 l 4,0 0,4 -4,0 z M 188,44 l 4,0 0,4 -4,0 z M 196,44 l 4,0 0,4 -4,0 z M 212,44 l 4,0 0,4 -4,0 z M 216,44 l 4,0 0,4 -4,0 z M 220,44 l 4,0 0,4 -4,0 z M 224,44 l 4,0 0,4 -4,0 z M 24,48 l 4,0 0,4 -4,0 z M 32,48 l 4,0 0,4 -4,0 z M 56,48 l 4,0 0,4 -4,0 z M 100,48 l 4,0 0,4 -4,0 z M 104,48 l 4,0 0,4 -4,0 z M 108,48 l 4,0 0,4 -4,0 z M 112,48 l 4,0 0,4 -4,0 z M 116,48 l 4,0 0,4 -4,0 z M 124,48 l 4,0 0,4 -4,0 z M 132,48 l 4,0 0,4 -4,0 z M 140,48 l 4,0 0,4 -4,0 z M 144,48 l 4,0 0,4 -4,0 z M 160,48 l 4,0 0,4 -4,0 z M 164,48 l 4,0 0,4 -4,0 z M 172,48 l 4,0 0,4 -4,0 z M 180,48 l 4,0 0,4 -4,0 z M 184,48 l 4,0 0,4 -4,0 z M 196,48 l 4,0 0,4 -4,0 z M 204,48 l 4,0 0,4 -4,0 z M 208,48 l 4,0 0,4 -4,0 z M 216,48 l 4,0 0,4 -4,0 z M 220,48 l 4,0 0,4 -4,0 z M 4,52 l 4,0 0,4 -4,0 z M 12,52 l 4,0 0,4 -4,0 z M 16,52 l 4,0 0,4 -4,0 z M 20,52 l 4,0 0,4 -4,0 z M 24,52 l 4,0 0,4 -4,0 z M 28,52 l 4,0 0,4 -4,0 z M 32,52 l 4,0 0,4 -4,0 z M 40,52 l 4,0 0,4 -4,0 z M 44,52 l 4,0 0,4 -4,0 z M 48,52 l 4,0 0,4 -4,0 z M 52,52 l 4,0 0,4 -4,0 z M 64,52 l 4,0 0,4 -4,0 z M 72,52 l 4,0 0,4 -4,0 z M 84,52 l 4,0 0,4 -4,0 z M 88,52 l 4,0 0,4 -4,0 z M 108,52 l 4,0 0,4 -4,0 z M 112,52 l 4,0 0,4 -4,0 z M 116,52 l 4,0 0,4 -4,0 z M 120,52 l 4,0 0,4 -4,0 z M 124,52 l 4,0 0,4 -4,0 z M 136,52 l 4,0 0,4 -4,0 z M 148,52 l 4,0 0,4 -4,0 z M 152,52 l 4,0 0,4 -4,0 z M 156,52 l 4,0 0,4 -4,0 z M 160,52 l 4,0 0,4 -4,0 z M 168,52 l 4,0 0,4 -4,0 z M 172,52 l 4,0 0,4 -4,0 z M 176,52 l 4,0 0,4 -4,0 z M 196,52 l 4,0 0,4 -4,0 z M 204,52 l 4,0 0,4 -4,0 z M 216,52 l 4,0 0,4 -4,0 z M 4,56 l 4,0 0,4 -4,0 z M 8,56 l 4,0 0,4 -4,0 z M 16,56 l 4,0 0,4 -4,0 z M 20,56 l 4,0 0,4 -4,0 z M 24,56 l 4,0 0,4 -4,0 z M 36,56 l 4,0 0,4 -4,0 z M 40,56 l 4,0 0,4 -4,0 z M 44,56 l 4,0 0,4 -4,0 z M 56,56 l 4,0 0,4 -4,0 z M 64,56 l 4,0 0,4 -4,0 z M 76,56 l 4,0 0,4 -4,0 z M 80,56 l 4,0 0,4 -4,0 z M 96,56 l 4,0 0,4 -4,0 z M 100,56 l 4,0 0,4 -4,0 z M 112,56 l 4,0 0,4 -4,0 z M 124,56 l 4,0 0,4 -4,0 z M 128,56 l 4,0 0,4 -4,0 z M 144,56 l 4,0 0,4 -4,0 z M 156,56 l 4,0 0,4 -4,0 z M 160,56 l 4,0 0,4 -4,0 z M 164,56 l 4,0 0,4 -4,0 z M 172,56 l 4,0 0,4 -4,0 z M 196,56 l 4,0 0,4 -4,0 z M 212,56 l 4,0 0,4 -4,0 z M 220,56 l 4,0 0,4 -4,0 z M 224,56 l 4,0 0,4 -4,0 z M 228,56 l 4,0 0,4 -4,0 z M 4,60 l 4,0 0,4 -4,0 z M 12,60 l 4,0 0,4 -4,0 z M 20,60 l 4,0 0,4 -4,0 z M 24,60 l 4,0 0,4 -4,0 z M 28,60 l 4,0 0,4 -4,0 z M 36,60 l 4,0 0,4 -4,0 z M 44,60 l 4,0 0,4 -4,0 z M 48,60 l 4,0 0,4 -4,0 z M 52,60 l 4,0 0,4 -4,0 z M 72,60 l 4,0 0,4 -4,0 z M 76,60 l 4,0 0,4 -4,0 z M 80,60 l 4,0 0,4 -4,0 z M 100,60 l 4,0 0,4 -4,0 z M 104,60 l 4,0 0,4 -4,0 z M 108,60 l 4,0 0,4 -4,0 z M 112,60 l 4,0 0,4 -4,0 z M 120,60 l 4,0 0,4 -4,0 z M 124,60 l 4,0 0,4 -4,0 z M 156,60 l 4,0 0,4 -4,0 z M 160,60 l 4,0 0,4 -4,0 z M 164,60 l 4,0 0,4 -4,0 z M 172,60 l 4,0 0,4 -4,0 z M 176,60 l 4,0 0,4 -4,0 z M 188,60 l 4,0 0,4 -4,0 z M 204,60 l 4,0 0,4 -4,0 z M 8,64 l 4,0 0,4 -4,0 z M 12,64 l 4,0 0,4 -4,0 z M 16,64 l 4,0 0,4 -4,0 z M 24,64 l 4,0 0,4 -4,0 z M 32,64 l 4,0 0,4 -4,0 z M 40,64 l 4,0 0,4 -4,0 z M 44,64 l 4,0 0,4 -4,0 z M 48,64 l 4,0 0,4 -4,0 z M 52,64 l 4,0 0,4 -4,0 z M 60,64 l 4,0 0,4 -4,0 z M 68,64 l 4,0 0,4 -4,0 z M 76,64 l 4,0 0,4 -4,0 z M 80,64 l 4,0 0,4 -4,0 z M 84,64 l 4,0 0,4 -4,0 z M 88,64 l 4,0 0,4 -4,0 z M 92,64 l 4,0 0,4 -4,0 z M 96,64 l 4,0 0,4 -4,0 z M 104,64 l 4,0 0,4 -4,0 z M 120,64 l 4,0 0,4 -4,0 z M 136,64 l 4,0 0,4 -4,0 z M 152,64 l 4,0 0,4 -4,0 z M 160,64 l 4,0 0,4 -4,0 z M 164,64 l 4,0 0,4 -4,0 z M 172,64 l 4,0 0,4 -4,0 z M 184,64 l 4,0 0,4 -4,0 z M 188,64 l 4,0 0,4 -4,0 z M 196,64 l 4,0 0,4 -4,0 z M 204,64 l 4,0 0,4 -4,0 z M 208,64 l 4,0 0,4 -4,0 z M 220,64 l 4,0 0,4 -4,0 z M 4,68 l 4,0 0,4 -4,0 z M 8,68 l 4,0 0,4 -4,0 z M 24,68 l 4,0 0,4 -4,0 z M 28,68 l 4,0 0,4 -4,0 z M 32,68 l 4,0 0,4 -4,0 z M 36,68 l 4,0 0,4 -4,0 z M 48,68 l 4,0 0,4 -4,0 z M 56,68 l 4,0 0,4 -4,0 z M 64,68 l 4,0 0,4 -4,0 z M 68,68 l 4,0 0,4 -4,0 z M 80,68 l 4,0 0,4 -4,0 z M 108,68 l 4,0 0,4 -4,0 z M 112,68 l 4,0 0,4 -4,0 z M 124,68 l 4,0 0,4 -4,0 z M 128,68 l 4,0 0,4 -4,0 z M 136,68 l 4,0 0,4 -4,0 z M 140,68 l 4,0 0,4 -4,0 z M 144,68 l 4,0 0,4 -4,0 z M 148,68 l 4,0 0,4 -4,0 z M 152,68 l 4,0 0,4 -4,0 z M 156,68 l 4,0 0,4 -4,0 z M 160,68 l 4,0 0,4 -4,0 z M 168,68 l 4,0 0,4 -4,0 z M 172,68 l 4,0 0,4 -4,0 z M 180,68 l 4,0 0,4 -4,0 z M 184,68 l 4,0 0,4 -4,0 z M 196,68 l 4,0 0,4 -4,0 z M 204,68 l 4,0 0,4 -4,0 z M 212,68 l 4,0 0,4 -4,0 z M 220,68 l 4,0 0,4 -4,0 z M 224,68 l 4,0 0,4 -4,0 z M 228,68 l 4,0 0,4 -4,0 z M 8,72 l 4,0 0,4 -4,0 z M 16,72 l 4,0 0,4 -4,0 z M 20,72 l 4,0 0,4 -4,0 z M 36,72 l 4,0 0,4 -4,0 z M 40,72 l 4,0 0,4 -4,0 z M 60,72 l 4,0 0,4 -4,0 z M 64,72 l 4,0 0,4 -4,0 z M 68,72 l 4,0 0,4 -4,0 z M 84,72 l 4,0 0,4 -4,0 z M 96,72 l 4,0 0,4 -4,0 z M 124,72 l 4,0 0,4 -4,0 z M 132,72 l 4,0 0,4 -4,0 z M 144,72 l 4,0 0,4 -4,0 z M 152,72 l 4,0 0,4 -4,0 z M 184,72 l 4,0 0,4 -4,0 z M 192,72 l 4,0 0,4 -4,0 z M 196,72 l 4,0 0,4 -4,0 z M 200,72 l 4,0 0,4 -4,0 z M 204,72 l 4,0 0,4 -4,0 z M 208,72 l 4,0 0,4 -4,0 z M 224,72 l 4,0 0,4 -4,0 z M 228,72 l 4,0 0,4 -4,0 z M 12,76 l 4,0 0,4 -4,0 z M 16,76 l 4,0 0,4 -4,0 z M 20,76 l 4,0 0,4 -4,0 z M 24,76 l 4,0 0,4 -4,0 z M 28,76 l 4,0 0,4 -4,0 z M 32,76 l 4,0 0,4 -4,0 z M 52,76 l 4,0 0,4 -4,0 z M 56,76 l 4,0 0,4 -4,0 z M 60,76 l 4,0 0,4 -4,0 z M 64,76 l 4,0 0,4 -4,0 z M 80,76 l 4,0 0,4 -4,0 z M 88,76 l 4,0 0,4 -4,0 z M 108,76 l 4,0 0,4 -4,0 z M 112,76 l 4,0 0,4 -4,0 z M 120,76 l 4,0 0,4 -4,0 z M 132,76 l 4,0 0,4 -4,0 z M 144,76 l 4,0 0,4 -4,0 z M 148,76 l 4,0 0,4 -4,0 z M 156,76 l 4,0 0,4 -4,0 z M 160,76 l 4,0 0,4 -4,0 z M 164,76 l 4,0 0,4 -4,0 z M 172,76 l 4,0 0,4 -4,0 z M 176,76 l 4,0 0,4 -4,0 z M 180,76 l 4,0 0,4 -4,0 z M 204,76 l 4,0 0,4 -4,0 z M 208,76 l 4,0 0,4 -4,0 z M 212,76 l 4,0 0,4 -4,0 z M 228,76 l 4,0 0,4 -4,0 z M 12,80 l 4,0 0,4 -4,0 z M 20,80 l 4,0 0,4 -4,0 z M 24,80 l 4,0 0,4 -4,0 z M 40,80 l 4,0 0,4 -4,0 z M 48,80 l 4,0 0,4 -4,0 z M 60,80 l 4,0 0,4 -4,0 z M 64,80 l 4,0 0,4 -4,0 z M 72,80 l 4,0 0,4 -4,0 z M 76,80 l 4,0 0,4 -4,0 z M 84,80 l 4,0 0,4 -4,0 z M 88,80 l 4,0 0,4 -4,0 z M 92,80 l 4,0 0,4 -4,0 z M 96,80 l 4,0 0,4 -4,0 z M 100,80 l 4,0 0,4 -4,0 z M 104,80 l 4,0 0,4 -4,0 z M 120,80 l 4,0 0,4 -4,0 z M 124,80 l 4,0 0,4 -4,0 z M 128,80 l 4,0 0,4 -4,0 z M 136,80 l 4,0 0,4 -4,0 z M 140,80 l 4,0 0,4 -4,0 z M 156,80 l 4,0 0,4 -4,0 z M 160,80 l 4,0 0,4 -4,0 z M 164,80 l 4,0 0,4 -4,0 z M 168,80 l 4,0 0,4 -4,0 z M 180,80 l 4,0 0,4 -4,0 z M 188,80 l 4,0 0,4 -4,0 z M 196,80 l 4,0 0,4 -4,0 z M 200,80 l 4,0 0,4 -4,0 z M 204,80 l 4,0 0,4 -4,0 z M 212,80 l 4,0 0,4 -4,0 z M 216,80 l 4,0 0,4 -4,0 z M 220,80 l 4,0 0,4 -4,0 z M 224,80 l 4,0 0,4 -4,0 z M 228,80 l 4,0 0,4 -4,0 z M 4,84 l 4,0 0,4 -4,0 z M 12,84 l 4,0 0,4 -4,0 z M 20,84 l 4,0 0,4 -4,0 z M 24,84 l 4,0 0,4 -4,0 z M 28,84 l 4,0 0,4 -4,0 z M 36,84 l 4,0 0,4 -4,0 z M 44,84 l 4,0 0,4 -4,0 z M 56,84 l 4,0 0,4 -4,0 z M 60,84 l 4,0 0,4 -4,0 z M 72,84 l 4,0 0,4 -4,0 z M 76,84 l 4,0 0,4 -4,0 z M 88,84 l 4,0 0,4 -4,0 z M 96,84 l 4,0 0,4 -4,0 z M 100,84 l 4,0 0,4 -4,0 z M 108,84 l 4,0 0,4 -4,0 z M 124,84 l 4,0 0,4 -4,0 z M 128,84 l 4,0 0,4 -4,0 z M 136,84 l 4,0 0,4 -4,0 z M 148,84 l 4,0 0,4 -4,0 z M 156,84 l 4,0 0,4 -4,0 z M 172,84 l 4,0 0,4 -4,0 z M 176,84 l 4,0 0,4 -4,0 z M 184,84 l 4,0 0,4 -4,0 z M 188,84 l 4,0 0,4 -4,0 z M 192,84 l 4,0 0,4 -4,0 z M 200,84 l 4,0 0,4 -4,0 z M 208,84 l 4,0 0,4 -4,0 z M 24,88 l 4,0 0,4 -4,0 z M 40,88 l 4,0 0,4 -4,0 z M 48,88 l 4,0 0,4 -4,0 z M 64,88 l 4,0 0,4 -4,0 z M 80,88 l 4,0 0,4 -4,0 z M 84,88 l 4,0 0,4 -4,0 z M 92,88 l 4,0 0,4 -4,0 z M 100,88 l 4,0 0,4 -4,0 z M 116,88 l 4,0 0,4 -4,0 z M 124,88 l 4,0 0,4 -4,0 z M 132,88 l 4,0 0,4 -4,0 z M 152,88 l 4,0 0,4 -4,0 z M 160,88 l 4,0 0,4 -4,0 z M 168,88 l 4,0 0,4 -4,0 z M 172,88 l 4,0 0,4 -4,0 z M 192,88 l 4,0 0,4 -4,0 z M 196,88 l 4,0 0,4 -4,0 z M 200,88 l 4,0 0,4 -4,0 z M 208,88 l 4,0 0,4 -4,0 z M 220,88 l 4,0 0,4 -4,0 z M 224,88 l 4,0 0,4 -4,0 z M 228,88 l 4,0 0,4 -4,0 z M 4,92 l 4,0 0,4 -4,0 z M 8,92 l 4,0 0,4 -4,0 z M 12,92 l 4,0 0,4 -4,0 z M 16,92 l 4,0 0,4 -4,0 z M 20,92 l 4,0 0,4 -4,0 z M 24,92 l 4,0 0,4 -4,0 z M 28,92 l 4,0 0,4 -4,0 z M 36,92 l 4,0 0,4 -4,0 z M 40,92 l 4,0 0,4 -4,0 z M 48,92 l 4,0 0,4 -4,0 z M 56,92 l 4,0 0,4 -4,0 z M 60,92 l 4,0 0,4 -4,0 z M 84,92 l 4,0 0,4 -4,0 z M 88,92 l 4,0 0,4 -4,0 z M 96,92 l 4,0 0,4 -4,0 z M 100,92 l 4,0 0,4 -4,0 z M 104,92 l 4,0 0,4 -4,0 z M 112,92 l 4,0 0,4 -4,0 z M 116,92 l 4,0 0,4 -4,0 z M 124,92 l 4,0 0,4 -4,0 z M 128,92 l 4,0 0,4 -4,0 z M 136,92 l 4,0 0,4 -4,0 z M 140,92 l 4,0 0,4 -4,0 z M 144,92 l 4,0 0,4 -4,0 z M 148,92 l 4,0 0,4 -4,0 z M 180,92 l 4,0 0,4 -4,0 z M 184,92 l 4,0 0,4 -4,0 z M 188,92 l 4,0 0,4 -4,0 z M 192,92 l 4,0 0,4 -4,0 z M 208,92 l 4,0 0,4 -4,0 z M 220,92 l 4,0 0,4 -4,0 z M 224,92 l 4,0 0,4 -4,0 z M 228,92 l 4,0 0,4 -4,0 z M 4,96 l 4,0 0,4 -4,0 z M 8,96 l 4,0 0,4 -4,0 z M 32,96 l 4,0 0,4 -4,0 z M 36,96 l 4,0 0,4 -4,0 z M 40,96 l 4,0 0,4 -4,0 z M 44,96 l 4,0 0,4 -4,0 z M 48,96 l 4,0 0,4 -4,0 z M 52,96 l 4,0 0,4 -4,0 z M 60,96 l 4,0 0,4 -4,0 z M 64,96 l 4,0 0,4 -4,0 z M 72,96 l 4,0 0,4 -4,0 z M 80,96 l 4,0 0,4 -4,0 z M 84,96 l 4,0 0,4 -4,0 z M 88,96 l 4,0 0,4 -4,0 z M 92,96 l 4,0 0,4 -4,0 z M 100,96 l 4,0 0,4 -4,0 z M 112,96 l 4,0 0,4 -4,0 z M 116,96 l 4,0 0,4 -4,0 z M 124,96 l 4,0 0,4 -4,0 z M 128,96 l 4,0 0,4 -4,0 z M 136,96 l 4,0 0,4 -4,0 z M 148,96 l 4,0 0,4 -4,0 z M 156,96 l 4,0 0,4 -4,0 z M 160,96 l 4,0 0,4 -4,0 z M 168,96 l 4,0 0,4 -4,0 z M 172,96 l 4,0 0,4 -4,0 z M 176,96 l 4,0 0,4 -4,0 z M 192,96 l 4,0 0,4 -4,0 z M 196,96 l 4,0 0,4 -4,0 z M 212,96 l 4,0 0,4 -4,0 z M 216,96 l 4,0 0,4 -4,0 z M 220,96 l 4,0 0,4 -4,0 z M 224,96 l 4,0 0,4 -4,0 z M 228,96 l 4,0 0,4 -4,0 z M 8,100 l 4,0 0,4 -4,0 z M 12,100 l 4,0 0,4 -4,0 z M 20,100 l 4,0 0,4 -4,0 z M 28,100 l 4,0 0,4 -4,0 z M 40,100 l 4,0 0,4 -4,0 z M 48,100 l 4,0 0,4 -4,0 z M 56,100 l 4,0 0,4 -4,0 z M 68,100 l 4,0 0,4 -4,0 z M 76,100 l 4,0 0,4 -4,0 z M 92,100 l 4,0 0,4 -4,0 z M 96,100 l 4,0 0,4 -4,0 z M 100,100 l 4,0 0,4 -4,0 z M 104,100 l 4,0 0,4 -4,0 z M 112,100 l 4,0 0,4 -4,0 z M 120,100 l 4,0 0,4 -4,0 z M 124,100 l 4,0 0,4 -4,0 z M 136,100 l 4,0 0,4 -4,0 z M 148,100 l 4,0 0,4 -4,0 z M 156,100 l 4,0 0,4 -4,0 z M 176,100 l 4,0 0,4 -4,0 z M 180,100 l 4,0 0,4 -4,0 z M 184,100 l 4,0 0,4 -4,0 z M 192,100 l 4,0 0,4 -4,0 z M 200,100 l 4,0 0,4 -4,0 z M 224,100 l 4,0 0,4 -4,0 z M 4,104 l 4,0 0,4 -4,0 z M 8,104 l 4,0 0,4 -4,0 z M 24,104 l 4,0 0,4 -4,0 z M 40,104 l 4,0 0,4 -4,0 z M 44,104 l 4,0 0,4 -4,0 z M 48,104 l 4,0 0,4 -4,0 z M 52,104 l 4,0 0,4 -4,0 z M 72,104 l 4,0 0,4 -4,0 z M 100,104 l 4,0 0,4 -4,0 z M 112,104 l 4,0 0,4 -4,0 z M 116,104 l 4,0 0,4 -4,0 z M 124,104 l 4,0 0,4 -4,0 z M 128,104 l 4,0 0,4 -4,0 z M 136,104 l 4,0 0,4 -4,0 z M 148,104 l 4,0 0,4 -4,0 z M 152,104 l 4,0 0,4 -4,0 z M 156,104 l 4,0 0,4 -4,0 z M 168,104 l 4,0 0,4 -4,0 z M 188,104 l 4,0 0,4 -4,0 z M 192,104 l 4,0 0,4 -4,0 z M 200,104 l 4,0 0,4 -4,0 z M 212,104 l 4,0 0,4 -4,0 z M 220,104 l 4,0 0,4 -4,0 z M 20,108 l 4,0 0,4 -4,0 z M 24,108 l 4,0 0,4 -4,0 z M 28,108 l 4,0 0,4 -4,0 z M 32,108 l 4,0 0,4 -4,0 z M 36,108 l 4,0 0,4 -4,0 z M 40,108 l 4,0 0,4 -4,0 z M 44,108 l 4,0 0,4 -4,0 z M 52,108 l 4,0 0,4 -4,0 z M 64,108 l 4,0 0,4 -4,0 z M 68,108 l 4,0 0,4 -4,0 z M 76,108 l 4,0 0,4 -4,0 z M 92,108 l 4,0 0,4 -4,0 z M 100,108 l 4,0 0,4 -4,0 z M 104,108 l 4,0 0,4 -4,0 z M 108,108 l 4,0 0,4 -4,0 z M 112,108 l 4,0 0,4 -4,0 z M 116,108 l 4,0 0,4 -4,0 z M 120,108 l 4,0 0,4 -4,0 z M 124,108 l 4,0 0,4 -4,0 z M 136,108 l 4,0 0,4 -4,0 z M 148,108 l 4,0 0,4 -4,0 z M 152,108 l 4,0 0,4 -4,0 z M 156,108 l 4,0 0,4 -4,0 z M 172,108 l 4,0 0,4 -4,0 z M 176,108 l 4,0 0,4 -4,0 z M 184,108 l 4,0 0,4 -4,0 z M 192,108 l 4,0 0,4 -4,0 z M 196,108 l 4,0 0,4 -4,0 z M 200,108 l 4,0 0,4 -4,0 z M 204,108 l 4,0 0,4 -4,0 z M 208,108 l 4,0 0,4 -4,0 z M 212,108 l 4,0 0,4 -4,0 z M 216,108 l 4,0 0,4 -4,0 z M 220,108 l 4,0 0,4 -4,0 z M 224,108 l 4,0 0,4 -4,0 z M 4,112 l 4,0 0,4 -4,0 z M 8,112 l 4,0 0,4 -4,0 z M 12,112 l 4,0 0,4 -4,0 z M 16,112 l 4,0 0,4 -4,0 z M 20,112 l 4,0 0,4 -4,0 z M 36,112 l 4,0 0,4 -4,0 z M 40,112 l 4,0 0,4 -4,0 z M 48,112 l 4,0 0,4 -4,0 z M 60,112 l 4,0 0,4 -4,0 z M 64,112 l 4,0 0,4 -4,0 z M 72,112 l 4,0 0,4 -4,0 z M 76,112 l 4,0 0,4 -4,0 z M 84,112 l 4,0 0,4 -4,0 z M 88,112 l 4,0 0,4 -4,0 z M 92,112 l 4,0 0,4 -4,0 z M 100,112 l 4,0 0,4 -4,0 z M 104,112 l 4,0 0,4 -4,0 z M 108,112 l 4,0 0,4 -4,0 z M 124,112 l 4,0 0,4 -4,0 z M 132,112 l 4,0 0,4 -4,0 z M 136,112 l 4,0 0,4 -4,0 z M 140,112 l 4,0 0,4 -4,0 z M 144,112 l 4,0 0,4 -4,0 z M 152,112 l 4,0 0,4 -4,0 z M 164,112 l 4,0 0,4 -4,0 z M 172,112 l 4,0 0,4 -4,0 z M 180,112 l 4,0 0,4 -4,0 z M 196,112 l 4,0 0,4 -4,0 z M 212,112 l 4,0 0,4 -4,0 z M 216,112 l 4,0 0,4 -4,0 z M 220,112 l 4,0 0,4 -4,0 z M 228,112 l 4,0 0,4 -4,0 z M 16,116 l 4,0 0,4 -4,0 z M 20,116 l 4,0 0,4 -4,0 z M 28,116 l 4,0 0,4 -4,0 z M 36,116 l 4,0 0,4 -4,0 z M 44,116 l 4,0 0,4 -4,0 z M 48,116 l 4,0 0,4 -4,0 z M 60,116 l 4,0 0,4 -4,0 z M 64,116 l 4,0 0,4 -4,0 z M 68,116 l 4,0 0,4 -4,0 z M 76,116 l 4,0 0,4 -4,0 z M 84,116 l 4,0 0,4 -4,0 z M 92,116 l 4,0 0,4 -4,0 z M 104,116 l 4,0 0,4 -4,0 z M 108,116 l 4,0 0,4 -4,0 z M 116,116 l 4,0 0,4 -4,0 z M 124,116 l 4,0 0,4 -4,0 z M 128,116 l 4,0 0,4 -4,0 z M 136,116 l 4,0 0,4 -4,0 z M 140,116 l 4,0 0,4 -4,0 z M 148,116 l 4,0 0,4 -4,0 z M 168,116 l 4,0 0,4 -4,0 z M 172,116 l 4,0 0,4 -4,0 z M 176,116 l 4,0 0,4 -4,0 z M 184,116 l 4,0 0,4 -4,0 z M 188,116 l 4,0 0,4 -4,0 z M 196,116 l 4,0 0,4 -4,0 z M 204,116 l 4,0 0,4 -4,0 z M 212,116 l 4,0 0,4 -4,0 z M 220,116 l 4,0 0,4 -4,0 z M 224,116 l 4,0 0,4 -4,0 z M 12,120 l 4,0 0,4 -4,0 z M 20,120 l 4,0 0,4 -4,0 z M 36,120 l 4,0 0,4 -4,0 z M 40,120 l 4,0 0,4 -4,0 z M 44,120 l 4,0 0,4 -4,0 z M 52,120 l 4,0 0,4 -4,0 z M 60,120 l 4,0 0,4 -4,0 z M 72,120 l 4,0 0,4 -4,0 z M 76,120 l 4,0 0,4 -4,0 z M 80,120 l 4,0 0,4 -4,0 z M 88,120 l 4,0 0,4 -4,0 z M 96,120 l 4,0 0,4 -4,0 z M 100,120 l 4,0 0,4 -4,0 z M 108,120 l 4,0 0,4 -4,0 z M 124,120 l 4,0 0,4 -4,0 z M 132,120 l 4,0 0,4 -4,0 z M 136,120 l 4,0 0,4 -4,0 z M 156,120 l 4,0 0,4 -4,0 z M 164,120 l 4,0 0,4 -4,0 z M 168,120 l 4,0 0,4 -4,0 z M 172,120 l 4,0 0,4 -4,0 z M 180,120 l 4,0 0,4 -4,0 z M 184,120 l 4,0 0,4 -4,0 z M 192,120 l 4,0 0,4 -4,0 z M 196,120 l 4,0 0,4 -4,0 z M 212,120 l 4,0 0,4 -4,0 z M 220,120 l 4,0 0,4 -4,0 z M 8,124 l 4,0 0,4 -4,0 z M 12,124 l 4,0 0,4 -4,0 z M 16,124 l 4,0 0,4 -4,0 z M 20,124 l 4,0 0,4 -4,0 z M 24,124 l 4,0 0,4 -4,0 z M 28,124 l 4,0 0,4 -4,0 z M 32,124 l 4,0 0,4 -4,0 z M 36,124 l 4,0 0,4 -4,0 z M 44,124 l 4,0 0,4 -4,0 z M 52,124 l 4,0 0,4 -4,0 z M 60,124 l 4,0 0,4 -4,0 z M 68,124 l 4,0 0,4 -4,0 z M 72,124 l 4,0 0,4 -4,0 z M 76,124 l 4,0 0,4 -4,0 z M 80,124 l 4,0 0,4 -4,0 z M 84,124 l 4,0 0,4 -4,0 z M 96,124 l 4,0 0,4 -4,0 z M 100,124 l 4,0 0,4 -4,0 z M 104,124 l 4,0 0,4 -4,0 z M 108,124 l 4,0 0,4 -4,0 z M 112,124 l 4,0 0,4 -4,0 z M 116,124 l 4,0 0,4 -4,0 z M 120,124 l 4,0 0,4 -4,0 z M 124,124 l 4,0 0,4 -4,0 z M 128,124 l 4,0 0,4 -4,0 z M 136,124 l 4,0 0,4 -4,0 z M 156,124 l 4,0 0,4 -4,0 z M 160,124 l 4,0 0,4 -4,0 z M 172,124 l 4,0 0,4 -4,0 z M 176,124 l 4,0 0,4 -4,0 z M 180,124 l 4,0 0,4 -4,0 z M 184,124 l 4,0 0,4 -4,0 z M 196,124 l 4,0 0,4 -4,0 z M 200,124 l 4,0 0,4 -4,0 z M 204,124 l 4,0 0,4 -4,0 z M 208,124 l 4,0 0,4 -4,0 z M 212,124 l 4,0 0,4 -4,0 z M 224,124 l 4,0 0,4 -4,0 z M 4,128 l 4,0 0,4 -4,0 z M 8,128 l 4,0 0,4 -4,0 z M 16,128 l 4,0 0,4 -4,0 z M 20,128 l 4,0 0,4 -4,0 z M 32,128 l 4,0 0,4 -4,0 z M 40,128 l 4,0 0,4 -4,0 z M 44,128 l 4,0 0,4 -4,0 z M 52,128 l 4,0 0,4 -4,0 z M 56,128 l 4,0 0,4 -4,0 z M 68,128 l 4,0 0,4 -4,0 z M 80,128 l 4,0 0,4 -4,0 z M 88,128 l 4,0 0,4 -4,0 z M 92,128 l 4,0 0,4 -4,0 z M 96,128 l 4,0 0,4 -4,0 z M 100,128 l 4,0 0,4 -4,0 z M 104,128 l 4,0 0,4 -4,0 z M 112,128 l 4,0 0,4 -4,0 z M 116,128 l 4,0 0,4 -4,0 z M 120,128 l 4,0 0,4 -4,0 z M 136,128 l 4,0 0,4 -4,0 z M 140,128 l 4,0 0,4 -4,0 z M 156,128 l 4,0 0,4 -4,0 z M 160,128 l 4,0 0,4 -4,0 z M 164,128 l 4,0 0,4 -4,0 z M 172,128 l 4,0 0,4 -4,0 z M 184,128 l 4,0 0,4 -4,0 z M 192,128 l 4,0 0,4 -4,0 z M 196,128 l 4,0 0,4 -4,0 z M 204,128 l 4,0 0,4 -4,0 z M 208,128 l 4,0 0,4 -4,0 z M 228,128 l 4,0 0,4 -4,0 z M 16,132 l 4,0 0,4 -4,0 z M 28,132 l 4,0 0,4 -4,0 z M 32,132 l 4,0 0,4 -4,0 z M 44,132 l 4,0 0,4 -4,0 z M 52,132 l 4,0 0,4 -4,0 z M 56,132 l 4,0 0,4 -4,0 z M 60,132 l 4,0 0,4 -4,0 z M 64,132 l 4,0 0,4 -4,0 z M 68,132 l 4,0 0,4 -4,0 z M 76,132 l 4,0 0,4 -4,0 z M 80,132 l 4,0 0,4 -4,0 z M 92,132 l 4,0 0,4 -4,0 z M 96,132 l 4,0 0,4 -4,0 z M 100,132 l 4,0 0,4 -4,0 z M 120,132 l 4,0 0,4 -4,0 z M 128,132 l 4,0 0,4 -4,0 z M 132,132 l 4,0 0,4 -4,0 z M 136,132 l 4,0 0,4 -4,0 z M 140,132 l 4,0 0,4 -4,0 z M 152,132 l 4,0 0,4 -4,0 z M 160,132 l 4,0 0,4 -4,0 z M 168,132 l 4,0 0,4 -4,0 z M 172,132 l 4,0 0,4 -4,0 z M 180,132 l 4,0 0,4 -4,0 z M 184,132 l 4,0 0,4 -4,0 z M 192,132 l 4,0 0,4 -4,0 z M 196,132 l 4,0 0,4 -4,0 z M 200,132 l 4,0 0,4 -4,0 z M 204,132 l 4,0 0,4 -4,0 z M 212,132 l 4,0 0,4 -4,0 z M 4,136 l 4,0 0,4 -4,0 z M 8,136 l 4,0 0,4 -4,0 z M 12,136 l 4,0 0,4 -4,0 z M 24,136 l 4,0 0,4 -4,0 z M 36,136 l 4,0 0,4 -4,0 z M 48,136 l 4,0 0,4 -4,0 z M 56,136 l 4,0 0,4 -4,0 z M 64,136 l 4,0 0,4 -4,0 z M 72,136 l 4,0 0,4 -4,0 z M 76,136 l 4,0 0,4 -4,0 z M 80,136 l 4,0 0,4 -4,0 z M 88,136 l 4,0 0,4 -4,0 z M 108,136 l 4,0 0,4 -4,0 z M 112,136 l 4,0 0,4 -4,0 z M 116,136 l 4,0 0,4 -4,0 z M 132,136 l 4,0 0,4 -4,0 z M 136,136 l 4,0 0,4 -4,0 z M 148,136 l 4,0 0,4 -4,0 z M 160,136 l 4,0 0,4 -4,0 z M 168,136 l 4,0 0,4 -4,0 z M 172,136 l 4,0 0,4 -4,0 z M 176,136 l 4,0 0,4 -4,0 z M 188,136 l 4,0 0,4 -4,0 z M 196,136 l 4,0 0,4 -4,0 z M 200,136 l 4,0 0,4 -4,0 z M 204,136 l 4,0 0,4 -4,0 z M 8,140 l 4,0 0,4 -4,0 z M 12,140 l 4,0 0,4 -4,0 z M 20,140 l 4,0 0,4 -4,0 z M 24,140 l 4,0 0,4 -4,0 z M 28,140 l 4,0 0,4 -4,0 z M 32,140 l 4,0 0,4 -4,0 z M 40,140 l 4,0 0,4 -4,0 z M 48,140 l 4,0 0,4 -4,0 z M 56,140 l 4,0 0,4 -4,0 z M 64,140 l 4,0 0,4 -4,0 z M 68,140 l 4,0 0,4 -4,0 z M 72,140 l 4,0 0,4 -4,0 z M 88,140 l 4,0 0,4 -4,0 z M 104,140 l 4,0 0,4 -4,0 z M 108,140 l 4,0 0,4 -4,0 z M 120,140 l 4,0 0,4 -4,0 z M 132,140 l 4,0 0,4 -4,0 z M 136,140 l 4,0 0,4 -4,0 z M 160,140 l 4,0 0,4 -4,0 z M 164,140 l 4,0 0,4 -4,0 z M 172,140 l 4,0 0,4 -4,0 z M 176,140 l 4,0 0,4 -4,0 z M 184,140 l 4,0 0,4 -4,0 z M 188,140 l 4,0 0,4 -4,0 z M 196,140 l 4,0 0,4 -4,0 z M 208,140 l 4,0 0,4 -4,0 z M 212,140 l 4,0 0,4 -4,0 z M 220,140 l 4,0 0,4 -4,0 z M 224,140 l 4,0 0,4 -4,0 z M 228,140 l 4,0 0,4 -4,0 z M 4,144 l 4,0 0,4 -4,0 z M 36,144 l 4,0 0,4 -4,0 z M 40,144 l 4,0 0,4 -4,0 z M 44,144 l 4,0 0,4 -4,0 z M 76,144 l 4,0 0,4 -4,0 z M 80,144 l 4,0 0,4 -4,0 z M 84,144 l 4,0 0,4 -4,0 z M 88,144 l 4,0 0,4 -4,0 z M 96,144 l 4,0 0,4 -4,0 z M 100,144 l 4,0 0,4 -4,0 z M 112,144 l 4,0 0,4 -4,0 z M 116,144 l 4,0 0,4 -4,0 z M 124,144 l 4,0 0,4 -4,0 z M 144,144 l 4,0 0,4 -4,0 z M 148,144 l 4,0 0,4 -4,0 z M 160,144 l 4,0 0,4 -4,0 z M 164,144 l 4,0 0,4 -4,0 z M 172,144 l 4,0 0,4 -4,0 z M 180,144 l 4,0 0,4 -4,0 z M 184,144 l 4,0 0,4 -4,0 z M 188,144 l 4,0 0,4 -4,0 z M 204,144 l 4,0 0,4 -4,0 z M 212,144 l 4,0 0,4 -4,0 z M 216,144 l 4,0 0,4 -4,0 z M 220,144 l 4,0 0,4 -4,0 z M 12,148 l 4,0 0,4 -4,0 z M 20,148 l 4,0 0,4 -4,0 z M 24,148 l 4,0 0,4 -4,0 z M 28,148 l 4,0 0,4 -4,0 z M 32,148 l 4,0 0,4 -4,0 z M 36,148 l 4,0 0,4 -4,0 z M 40,148 l 4,0 0,4 -4,0 z M 48,148 l 4,0 0,4 -4,0 z M 56,148 l 4,0 0,4 -4,0 z M 60,148 l 4,0 0,4 -4,0 z M 64,148 l 4,0 0,4 -4,0 z M 76,148 l 4,0 0,4 -4,0 z M 80,148 l 4,0 0,4 -4,0 z M 88,148 l 4,0 0,4 -4,0 z M 100,148 l 4,0 0,4 -4,0 z M 112,148 l 4,0 0,4 -4,0 z M 128,148 l 4,0 0,4 -4,0 z M 144,148 l 4,0 0,4 -4,0 z M 148,148 l 4,0 0,4 -4,0 z M 152,148 l 4,0 0,4 -4,0 z M 160,148 l 4,0 0,4 -4,0 z M 164,148 l 4,0 0,4 -4,0 z M 168,148 l 4,0 0,4 -4,0 z M 172,148 l 4,0 0,4 -4,0 z M 184,148 l 4,0 0,4 -4,0 z M 188,148 l 4,0 0,4 -4,0 z M 200,148 l 4,0 0,4 -4,0 z M 216,148 l 4,0 0,4 -4,0 z M 224,148 l 4,0 0,4 -4,0 z M 4,152 l 4,0 0,4 -4,0 z M 8,152 l 4,0 0,4 -4,0 z M 16,152 l 4,0 0,4 -4,0 z M 20,152 l 4,0 0,4 -4,0 z M 24,152 l 4,0 0,4 -4,0 z M 32,152 l 4,0 0,4 -4,0 z M 36,152 l 4,0 0,4 -4,0 z M 40,152 l 4,0 0,4 -4,0 z M 60,152 l 4,0 0,4 -4,0 z M 68,152 l 4,0 0,4 -4,0 z M 92,152 l 4,0 0,4 -4,0 z M 96,152 l 4,0 0,4 -4,0 z M 108,152 l 4,0 0,4 -4,0 z M 116,152 l 4,0 0,4 -4,0 z M 132,152 l 4,0 0,4 -4,0 z M 144,152 l 4,0 0,4 -4,0 z M 152,152 l 4,0 0,4 -4,0 z M 160,152 l 4,0 0,4 -4,0 z M 168,152 l 4,0 0,4 -4,0 z M 172,152 l 4,0 0,4 -4,0 z M 192,152 l 4,0 0,4 -4,0 z M 204,152 l 4,0 0,4 -4,0 z M 208,152 l 4,0 0,4 -4,0 z M 220,152 l 4,0 0,4 -4,0 z M 228,152 l 4,0 0,4 -4,0 z M 4,156 l 4,0 0,4 -4,0 z M 8,156 l 4,0 0,4 -4,0 z M 20,156 l 4,0 0,4 -4,0 z M 28,156 l 4,0 0,4 -4,0 z M 44,156 l 4,0 0,4 -4,0 z M 52,156 l 4,0 0,4 -4,0 z M 56,156 l 4,0 0,4 -4,0 z M 60,156 l 4,0 0,4 -4,0 z M 64,156 l 4,0 0,4 -4,0 z M 68,156 l 4,0 0,4 -4,0 z M 76,156 l 4,0 0,4 -4,0 z M 80,156 l 4,0 0,4 -4,0 z M 104,156 l 4,0 0,4 -4,0 z M 108,156 l 4,0 0,4 -4,0 z M 112,156 l 4,0 0,4 -4,0 z M 116,156 l 4,0 0,4 -4,0 z M 124,156 l 4,0 0,4 -4,0 z M 128,156 l 4,0 0,4 -4,0 z M 136,156 l 4,0 0,4 -4,0 z M 140,156 l 4,0 0,4 -4,0 z M 144,156 l 4,0 0,4 -4,0 z M 148,156 l 4,0 0,4 -4,0 z M 160,156 l 4,0 0,4 -4,0 z M 168,156 l 4,0 0,4 -4,0 z M 176,156 l 4,0 0,4 -4,0 z M 188,156 l 4,0 0,4 -4,0 z M 200,156 l 4,0 0,4 -4,0 z M 204,156 l 4,0 0,4 -4,0 z M 220,156 l 4,0 0,4 -4,0 z M 224,156 l 4,0 0,4 -4,0 z M 8,160 l 4,0 0,4 -4,0 z M 12,160 l 4,0 0,4 -4,0 z M 20,160 l 4,0 0,4 -4,0 z M 32,160 l 4,0 0,4 -4,0 z M 36,160 l 4,0 0,4 -4,0 z M 40,160 l 4,0 0,4 -4,0 z M 48,160 l 4,0 0,4 -4,0 z M 56,160 l 4,0 0,4 -4,0 z M 60,160 l 4,0 0,4 -4,0 z M 68,160 l 4,0 0,4 -4,0 z M 76,160 l 4,0 0,4 -4,0 z M 88,160 l 4,0 0,4 -4,0 z M 92,160 l 4,0 0,4 -4,0 z M 96,160 l 4,0 0,4 -4,0 z M 104,160 l 4,0 0,4 -4,0 z M 116,160 l 4,0 0,4 -4,0 z M 120,160 l 4,0 0,4 -4,0 z M 124,160 l 4,0 0,4 -4,0 z M 140,160 l 4,0 0,4 -4,0 z M 148,160 l 4,0 0,4 -4,0 z M 152,160 l 4,0 0,4 -4,0 z M 156,160 l 4,0 0,4 -4,0 z M 160,160 l 4,0 0,4 -4,0 z M 164,160 l 4,0 0,4 -4,0 z M 172,160 l 4,0 0,4 -4,0 z M 184,160 l 4,0 0,4 -4,0 z M 188,160 l 4,0 0,4 -4,0 z M 192,160 l 4,0 0,4 -4,0 z M 200,160 l 4,0 0,4 -4,0 z M 208,160 l 4,0 0,4 -4,0 z M 212,160 l 4,0 0,4 -4,0 z M 216,160 l 4,0 0,4 -4,0 z M 220,160 l 4,0 0,4 -4,0 z M 224,160 l 4,0 0,4 -4,0 z M 4,164 l 4,0 0,4 -4,0 z M 12,164 l 4,0 0,4 -4,0 z M 24,164 l 4,0 0,4 -4,0 z M 28,164 l 4,0 0,4 -4,0 z M 32,164 l 4,0 0,4 -4,0 z M 36,164 l 4,0 0,4 -4,0 z M 40,164 l 4,0 0,4 -4,0 z M 44,164 l 4,0 0,4 -4,0 z M 56,164 l 4,0 0,4 -4,0 z M 60,164 l 4,0 0,4 -4,0 z M 68,164 l 4,0 0,4 -4,0 z M 72,164 l 4,0 0,4 -4,0 z M 84,164 l 4,0 0,4 -4,0 z M 104,164 l 4,0 0,4 -4,0 z M 108,164 l 4,0 0,4 -4,0 z M 116,164 l 4,0 0,4 -4,0 z M 124,164 l 4,0 0,4 -4,0 z M 128,164 l 4,0 0,4 -4,0 z M 132,164 l 4,0 0,4 -4,0 z M 136,164 l 4,0 0,4 -4,0 z M 140,164 l 4,0 0,4 -4,0 z M 144,164 l 4,0 0,4 -4,0 z M 148,164 l 4,0 0,4 -4,0 z M 156,164 l 4,0 0,4 -4,0 z M 160,164 l 4,0 0,4 -4,0 z M 176,164 l 4,0 0,4 -4,0 z M 180,164 l 4,0 0,4 -4,0 z M 184,164 l 4,0 0,4 -4,0 z M 188,164 l 4,0 0,4 -4,0 z M 212,164 l 4,0 0,4 -4,0 z M 216,164 l 4,0 0,4 -4,0 z M 4,168 l 4,0 0,4 -4,0 z M 8,168 l 4,0 0,4 -4,0 z M 16,168 l 4,0 0,4 -4,0 z M 20,168 l 4,0 0,4 -4,0 z M 24,168 l 4,0 0,4 -4,0 z M 40,168 l 4,0 0,4 -4,0 z M 44,168 l 4,0 0,4 -4,0 z M 52,168 l 4,0 0,4 -4,0 z M 56,168 l 4,0 0,4 -4,0 z M 68,168 l 4,0 0,4 -4,0 z M 76,168 l 4,0 0,4 -4,0 z M 92,168 l 4,0 0,4 -4,0 z M 100,168 l 4,0 0,4 -4,0 z M 104,168 l 4,0 0,4 -4,0 z M 112,168 l 4,0 0,4 -4,0 z M 124,168 l 4,0 0,4 -4,0 z M 132,168 l 4,0 0,4 -4,0 z M 140,168 l 4,0 0,4 -4,0 z M 144,168 l 4,0 0,4 -4,0 z M 148,168 l 4,0 0,4 -4,0 z M 152,168 l 4,0 0,4 -4,0 z M 160,168 l 4,0 0,4 -4,0 z M 172,168 l 4,0 0,4 -4,0 z M 180,168 l 4,0 0,4 -4,0 z M 188,168 l 4,0 0,4 -4,0 z M 192,168 l 4,0 0,4 -4,0 z M 220,168 l 4,0 0,4 -4,0 z M 228,168 l 4,0 0,4 -4,0 z M 8,172 l 4,0 0,4 -4,0 z M 16,172 l 4,0 0,4 -4,0 z M 20,172 l 4,0 0,4 -4,0 z M 28,172 l 4,0 0,4 -4,0 z M 32,172 l 4,0 0,4 -4,0 z M 40,172 l 4,0 0,4 -4,0 z M 48,172 l 4,0 0,4 -4,0 z M 52,172 l 4,0 0,4 -4,0 z M 56,172 l 4,0 0,4 -4,0 z M 64,172 l 4,0 0,4 -4,0 z M 72,172 l 4,0 0,4 -4,0 z M 80,172 l 4,0 0,4 -4,0 z M 84,172 l 4,0 0,4 -4,0 z M 88,172 l 4,0 0,4 -4,0 z M 96,172 l 4,0 0,4 -4,0 z M 100,172 l 4,0 0,4 -4,0 z M 108,172 l 4,0 0,4 -4,0 z M 112,172 l 4,0 0,4 -4,0 z M 120,172 l 4,0 0,4 -4,0 z M 124,172 l 4,0 0,4 -4,0 z M 128,172 l 4,0 0,4 -4,0 z M 132,172 l 4,0 0,4 -4,0 z M 136,172 l 4,0 0,4 -4,0 z M 144,172 l 4,0 0,4 -4,0 z M 152,172 l 4,0 0,4 -4,0 z M 156,172 l 4,0 0,4 -4,0 z M 160,172 l 4,0 0,4 -4,0 z M 168,172 l 4,0 0,4 -4,0 z M 172,172 l 4,0 0,4 -4,0 z M 180,172 l 4,0 0,4 -4,0 z M 184,172 l 4,0 0,4 -4,0 z M 188,172 l 4,0 0,4 -4,0 z M 196,172 l 4,0 0,4 -4,0 z M 208,172 l 4,0 0,4 -4,0 z M 216,172 l 4,0 0,4 -4,0 z M 224,172 l 4,0 0,4 -4,0 z M 4,176 l 4,0 0,4 -4,0 z M 8,176 l 4,0 0,4 -4,0 z M 12,176 l 4,0 0,4 -4,0 z M 16,176 l 4,0 0,4 -4,0 z M 20,176 l 4,0 0,4 -4,0 z M 36,176 l 4,0 0,4 -4,0 z M 44,176 l 4,0 0,4 -4,0 z M 48,176 l 4,0 0,4 -4,0 z M 56,176 l 4,0 0,4 -4,0 z M 64,176 l 4,0 0,4 -4,0 z M 84,176 l 4,0 0,4 -4,0 z M 100,176 l 4,0 0,4 -4,0 z M 104,176 l 4,0 0,4 -4,0 z M 124,176 l 4,0 0,4 -4,0 z M 128,176 l 4,0 0,4 -4,0 z M 132,176 l 4,0 0,4 -4,0 z M 144,176 l 4,0 0,4 -4,0 z M 152,176 l 4,0 0,4 -4,0 z M 160,176 l 4,0 0,4 -4,0 z M 164,176 l 4,0 0,4 -4,0 z M 172,176 l 4,0 0,4 -4,0 z M 180,176 l 4,0 0,4 -4,0 z M 196,176 l 4,0 0,4 -4,0 z M 216,176 l 4,0 0,4 -4,0 z M 220,176 l 4,0 0,4 -4,0 z M 12,180 l 4,0 0,4 -4,0 z M 20,180 l 4,0 0,4 -4,0 z M 28,180 l 4,0 0,4 -4,0 z M 32,180 l 4,0 0,4 -4,0 z M 40,180 l 4,0 0,4 -4,0 z M 60,180 l 4,0 0,4 -4,0 z M 64,180 l 4,0 0,4 -4,0 z M 68,180 l 4,0 0,4 -4,0 z M 72,180 l 4,0 0,4 -4,0 z M 84,180 l 4,0 0,4 -4,0 z M 88,180 l 4,0 0,4 -4,0 z M 108,180 l 4,0 0,4 -4,0 z M 112,180 l 4,0 0,4 -4,0 z M 116,180 l 4,0 0,4 -4,0 z M 124,180 l 4,0 0,4 -4,0 z M 128,180 l 4,0 0,4 -4,0 z M 136,180 l 4,0 0,4 -4,0 z M 140,180 l 4,0 0,4 -4,0 z M 148,180 l 4,0 0,4 -4,0 z M 156,180 l 4,0 0,4 -4,0 z M 172,180 l 4,0 0,4 -4,0 z M 176,180 l 4,0 0,4 -4,0 z M 184,180 l 4,0 0,4 -4,0 z M 188,180 l 4,0 0,4 -4,0 z M 200,180 l 4,0 0,4 -4,0 z M 204,180 l 4,0 0,4 -4,0 z M 208,180 l 4,0 0,4 -4,0 z M 212,180 l 4,0 0,4 -4,0 z M 216,180 l 4,0 0,4 -4,0 z M 224,180 l 4,0 0,4 -4,0 z M 228,180 l 4,0 0,4 -4,0 z M 4,184 l 4,0 0,4 -4,0 z M 12,184 l 4,0 0,4 -4,0 z M 16,184 l 4,0 0,4 -4,0 z M 20,184 l 4,0 0,4 -4,0 z M 44,184 l 4,0 0,4 -4,0 z M 56,184 l 4,0 0,4 -4,0 z M 76,184 l 4,0 0,4 -4,0 z M 80,184 l 4,0 0,4 -4,0 z M 96,184 l 4,0 0,4 -4,0 z M 100,184 l 4,0 0,4 -4,0 z M 120,184 l 4,0 0,4 -4,0 z M 124,184 l 4,0 0,4 -4,0 z M 128,184 l 4,0 0,4 -4,0 z M 132,184 l 4,0 0,4 -4,0 z M 136,184 l 4,0 0,4 -4,0 z M 140,184 l 4,0 0,4 -4,0 z M 160,184 l 4,0 0,4 -4,0 z M 164,184 l 4,0 0,4 -4,0 z M 172,184 l 4,0 0,4 -4,0 z M 176,184 l 4,0 0,4 -4,0 z M 196,184 l 4,0 0,4 -4,0 z M 212,184 l 4,0 0,4 -4,0 z M 224,184 l 4,0 0,4 -4,0 z M 4,188 l 4,0 0,4 -4,0 z M 12,188 l 4,0 0,4 -4,0 z M 24,188 l 4,0 0,4 -4,0 z M 28,188 l 4,0 0,4 -4,0 z M 44,188 l 4,0 0,4 -4,0 z M 56,188 l 4,0 0,4 -4,0 z M 60,188 l 4,0 0,4 -4,0 z M 68,188 l 4,0 0,4 -4,0 z M 72,188 l 4,0 0,4 -4,0 z M 76,188 l 4,0 0,4 -4,0 z M 92,188 l 4,0 0,4 -4,0 z M 100,188 l 4,0 0,4 -4,0 z M 108,188 l 4,0 0,4 -4,0 z M 112,188 l 4,0 0,4 -4,0 z M 116,188 l 4,0 0,4 -4,0 z M 124,188 l 4,0 0,4 -4,0 z M 128,188 l 4,0 0,4 -4,0 z M 132,188 l 4,0 0,4 -4,0 z M 148,188 l 4,0 0,4 -4,0 z M 152,188 l 4,0 0,4 -4,0 z M 164,188 l 4,0 0,4 -4,0 z M 172,188 l 4,0 0,4 -4,0 z M 180,188 l 4,0 0,4 -4,0 z M 184,188 l 4,0 0,4 -4,0 z M 188,188 l 4,0 0,4 -4,0 z M 192,188 l 4,0 0,4 -4,0 z M 220,188 l 4,0 0,4 -4,0 z M 224,188 l 4,0 0,4 -4,0 z M 4,192 l 4,0 0,4 -4,0 z M 8,192 l 4,0 0,4 -4,0 z M 12,192 l 4,0 0,4 -4,0 z M 16,192 l 4,0 0,4 -4,0 z M 20,192 l 4,0 0,4 -4,0 z M 32,192 l 4,0 0,4 -4,0 z M 44,192 l 4,0 0,4 -4,0 z M 48,192 l 4,0 0,4 -4,0 z M 56,192 l 4,0 0,4 -4,0 z M 64,192 l 4,0 0,4 -4,0 z M 88,192 l 4,0 0,4 -4,0 z M 96,192 l 4,0 0,4 -4,0 z M 100,192 l 4,0 0,4 -4,0 z M 104,192 l 4,0 0,4 -4,0 z M 108,192 l 4,0 0,4 -4,0 z M 112,192 l 4,0 0,4 -4,0 z M 116,192 l 4,0 0,4 -4,0 z M 120,192 l 4,0 0,4 -4,0 z M 128,192 l 4,0 0,4 -4,0 z M 140,192 l 4,0 0,4 -4,0 z M 156,192 l 4,0 0,4 -4,0 z M 160,192 l 4,0 0,4 -4,0 z M 164,192 l 4,0 0,4 -4,0 z M 184,192 l 4,0 0,4 -4,0 z M 196,192 l 4,0 0,4 -4,0 z M 208,192 l 4,0 0,4 -4,0 z M 212,192 l 4,0 0,4 -4,0 z M 224,192 l 4,0 0,4 -4,0 z M 28,196 l 4,0 0,4 -4,0 z M 40,196 l 4,0 0,4 -4,0 z M 44,196 l 4,0 0,4 -4,0 z M 48,196 l 4,0 0,4 -4,0 z M 80,196 l 4,0 0,4 -4,0 z M 88,196 l 4,0 0,4 -4,0 z M 100,196 l 4,0 0,4 -4,0 z M 104,196 l 4,0 0,4 -4,0 z M 108,196 l 4,0 0,4 -4,0 z M 112,196 l 4,0 0,4 -4,0 z M 116,196 l 4,0 0,4 -4,0 z M 120,196 l 4,0 0,4 -4,0 z M 124,196 l 4,0 0,4 -4,0 z M 132,196 l 4,0 0,4 -4,0 z M 152,196 l 4,0 0,4 -4,0 z M 160,196 l 4,0 0,4 -4,0 z M 164,196 l 4,0 0,4 -4,0 z M 172,196 l 4,0 0,4 -4,0 z M 176,196 l 4,0 0,4 -4,0 z M 184,196 l 4,0 0,4 -4,0 z M 196,196 l 4,0 0,4 -4,0 z M 200,196 l 4,0 0,4 -4,0 z M 204,196 l 4,0 0,4 -4,0 z M 208,196 l 4,0 0,4 -4,0 z M 212,196 l 4,0 0,4 -4,0 z M 224,196 l 4,0 0,4 -4,0 z M 36,200 l 4,0 0,4 -4,0 z M 40,200 l 4,0 0,4 -4,0 z M 44,200 l 4,0 0,4 -4,0 z M 56,200 l 4,0 0,4 -4,0 z M 60,200 l 4,0 0,4 -4,0 z M 72,200 l 4,0 0,4 -4,0 z M 92,200 l 4,0 0,4 -4,0 z M 100,200 l 4,0 0,4 -4,0 z M 104,200 l 4,0 0,4 -4,0 z M 108,200 l 4,0 0,4 -4,0 z M 124,200 l 4,0 0,4 -4,0 z M 128,200 l 4,0 0,4 -4,0 z M 132,200 l 4,0 0,4 -4,0 z M 136,200 l 4,0 0,4 -4,0 z M 144,200 l 4,0 0,4 -4,0 z M 148,200 l 4,0 0,4 -4,0 z M 152,200 l 4,0 0,4 -4,0 z M 156,200 l 4,0 0,4 -4,0 z M 184,200 l 4,0 0,4 -4,0 z M 188,200 l 4,0 0,4 -4,0 z M 196,200 l 4,0 0,4 -4,0 z M 212,200 l 4,0 0,4 -4,0 z M 216,200 l 4,0 0,4 -4,0 z M 220,200 l 4,0 0,4 -4,0 z M 224,200 l 4,0 0,4 -4,0 z M 4,204 l 4,0 0,4 -4,0 z M 8,204 l 4,0 0,4 -4,0 z M 12,204 l 4,0 0,4 -4,0 z M 16,204 l 4,0 0,4 -4,0 z M 20,204 l 4,0 0,4 -4,0 z M 24,204 l 4,0 0,4 -4,0 z M 28,204 l 4,0 0,4 -4,0 z M 36,204 l 4,0 0,4 -4,0 z M 40,204 l 4,0 0,4 -4,0 z M 44,204 l 4,0 0,4 -4,0 z M 52,204 l 4,0 0,4 -4,0 z M 68,204 l 4,0 0,4 -4,0 z M 72,204 l 4,0 0,4 -4,0 z M 84,204 l 4,0 0,4 -4,0 z M 88,204 l 4,0 0,4 -4,0 z M 108,204 l 4,0 0,4 -4,0 z M 116,204 l 4,0 0,4 -4,0 z M 124,204 l 4,0 0,4 -4,0 z M 128,204 l 4,0 0,4 -4,0 z M 136,204 l 4,0 0,4 -4,0 z M 140,204 l 4,0 0,4 -4,0 z M 156,204 l 4,0 0,4 -4,0 z M 160,204 l 4,0 0,4 -4,0 z M 164,204 l 4,0 0,4 -4,0 z M 196,204 l 4,0 0,4 -4,0 z M 204,204 l 4,0 0,4 -4,0 z M 212,204 l 4,0 0,4 -4,0 z M 220,204 l 4,0 0,4 -4,0 z M 224,204 l 4,0 0,4 -4,0 z M 4,208 l 4,0 0,4 -4,0 z M 28,208 l 4,0 0,4 -4,0 z M 44,208 l 4,0 0,4 -4,0 z M 84,208 l 4,0 0,4 -4,0 z M 108,208 l 4,0 0,4 -4,0 z M 124,208 l 4,0 0,4 -4,0 z M 132,208 l 4,0 0,4 -4,0 z M 136,208 l 4,0 0,4 -4,0 z M 140,208 l 4,0 0,4 -4,0 z M 144,208 l 4,0 0,4 -4,0 z M 152,208 l 4,0 0,4 -4,0 z M 160,208 l 4,0 0,4 -4,0 z M 164,208 l 4,0 0,4 -4,0 z M 172,208 l 4,0 0,4 -4,0 z M 176,208 l 4,0 0,4 -4,0 z M 180,208 l 4,0 0,4 -4,0 z M 184,208 l 4,0 0,4 -4,0 z M 196,208 l 4,0 0,4 -4,0 z M 212,208 l 4,0 0,4 -4,0 z M 216,208 l 4,0 0,4 -4,0 z M 220,208 l 4,0 0,4 -4,0 z M 4,212 l 4,0 0,4 -4,0 z M 12,212 l 4,0 0,4 -4,0 z M 16,212 l 4,0 0,4 -4,0 z M 20,212 l 4,0 0,4 -4,0 z M 28,212 l 4,0 0,4 -4,0 z M 36,212 l 4,0 0,4 -4,0 z M 40,212 l 4,0 0,4 -4,0 z M 60,212 l 4,0 0,4 -4,0 z M 72,212 l 4,0 0,4 -4,0 z M 76,212 l 4,0 0,4 -4,0 z M 96,212 l 4,0 0,4 -4,0 z M 100,212 l 4,0 0,4 -4,0 z M 104,212 l 4,0 0,4 -4,0 z M 108,212 l 4,0 0,4 -4,0 z M 112,212 l 4,0 0,4 -4,0 z M 116,212 l 4,0 0,4 -4,0 z M 120,212 l 4,0 0,4 -4,0 z M 124,212 l 4,0 0,4 -4,0 z M 128,212 l 4,0 0,4 -4,0 z M 132,212 l 4,0 0,4 -4,0 z M 140,212 l 4,0 0,4 -4,0 z M 164,212 l 4,0 0,4 -4,0 z M 180,212 l 4,0 0,4 -4,0 z M 188,212 l 4,0 0,4 -4,0 z M 196,212 l 4,0 0,4 -4,0 z M 200,212 l 4,0 0,4 -4,0 z M 204,212 l 4,0 0,4 -4,0 z M 208,212 l 4,0 0,4 -4,0 z M 212,212 l 4,0 0,4 -4,0 z M 216,212 l 4,0 0,4 -4,0 z M 224,212 l 4,0 0,4 -4,0 z M 4,216 l 4,0 0,4 -4,0 z M 12,216 l 4,0 0,4 -4,0 z M 16,216 l 4,0 0,4 -4,0 z M 20,216 l 4,0 0,4 -4,0 z M 28,216 l 4,0 0,4 -4,0 z M 36,216 l 4,0 0,4 -4,0 z M 52,216 l 4,0 0,4 -4,0 z M 60,216 l 4,0 0,4 -4,0 z M 64,216 l 4,0 0,4 -4,0 z M 80,216 l 4,0 0,4 -4,0 z M 84,216 l 4,0 0,4 -4,0 z M 88,216 l 4,0 0,4 -4,0 z M 100,216 l 4,0 0,4 -4,0 z M 108,216 l 4,0 0,4 -4,0 z M 124,216 l 4,0 0,4 -4,0 z M 132,216 l 4,0 0,4 -4,0 z M 152,216 l 4,0 0,4 -4,0 z M 160,216 l 4,0 0,4 -4,0 z M 164,216 l 4,0 0,4 -4,0 z M 172,216 l 4,0 0,4 -4,0 z M 176,216 l 4,0 0,4 -4,0 z M 196,216 l 4,0 0,4 -4,0 z M 200,216 l 4,0 0,4 -4,0 z M 204,216 l 4,0 0,4 -4,0 z M 212,216 l 4,0 0,4 -4,0 z M 216,216 l 4,0 0,4 -4,0 z M 220,216 l 4,0 0,4 -4,0 z M 4,220 l 4,0 0,4 -4,0 z M 12,220 l 4,0 0,4 -4,0 z M 16,220 l 4,0 0,4 -4,0 z M 20,220 l 4,0 0,4 -4,0 z M 28,220 l 4,0 0,4 -4,0 z M 36,220 l 4,0 0,4 -4,0 z M 40,220 l 4,0 0,4 -4,0 z M 44,220 l 4,0 0,4 -4,0 z M 84,220 l 4,0 0,4 -4,0 z M 88,220 l 4,0 0,4 -4,0 z M 92,220 l 4,0 0,4 -4,0 z M 96,220 l 4,0 0,4 -4,0 z M 100,220 l 4,0 0,4 -4,0 z M 108,220 l 4,0 0,4 -4,0 z M 120,220 l 4,0 0,4 -4,0 z M 124,220 l 4,0 0,4 -4,0 z M 128,220 l 4,0 0,4 -4,0 z M 136,220 l 4,0 0,4 -4,0 z M 140,220 l 4,0 0,4 -4,0 z M 144,220 l 4,0 0,4 -4,0 z M 148,220 l 4,0 0,4 -4,0 z M 152,220 l 4,0 0,4 -4,0 z M 160,220 l 4,0 0,4 -4,0 z M 176,220 l 4,0 0,4 -4,0 z M 180,220 l 4,0 0,4 -4,0 z M 184,220 l 4,0 0,4 -4,0 z M 188,220 l 4,0 0,4 -4,0 z M 200,220 l 4,0 0,4 -4,0 z M 204,220 l 4,0 0,4 -4,0 z M 212,220 l 4,0 0,4 -4,0 z M 216,220 l 4,0 0,4 -4,0 z M 4,224 l 4,0 0,4 -4,0 z M 28,224 l 4,0 0,4 -4,0 z M 36,224 l 4,0 0,4 -4,0 z M 56,224 l 4,0 0,4 -4,0 z M 64,224 l 4,0 0,4 -4,0 z M 80,224 l 4,0 0,4 -4,0 z M 84,224 l 4,0 0,4 -4,0 z M 88,224 l 4,0 0,4 -4,0 z M 100,224 l 4,0 0,4 -4,0 z M 112,224 l 4,0 0,4 -4,0 z M 124,224 l 4,0 0,4 -4,0 z M 128,224 l 4,0 0,4 -4,0 z M 136,224 l 4,0 0,4 -4,0 z M 148,224 l 4,0 0,4 -4,0 z M 152,224 l 4,0 0,4 -4,0 z M 160,224 l 4,0 0,4 -4,0 z M 168,224 l 4,0 0,4 -4,0 z M 172,224 l 4,0 0,4 -4,0 z M 180,224 l 4,0 0,4 -4,0 z M 184,224 l 4,0 0,4 -4,0 z M 192,224 l 4,0 0,4 -4,0 z M 200,224 l 4,0 0,4 -4,0 z M 208,224 l 4,0 0,4 -4,0 z M 212,224 l 4,0 0,4 -4,0 z M 228,224 l 4,0 0,4 -4,0 z M 4,228 l 4,0 0,4 -4,0 z M 8,228 l 4,0 0,4 -4,0 z M 12,228 l 4,0 0,4 -4,0 z M 16,228 l 4,0 0,4 -4,0 z M 20,228 l 4,0 0,4 -4,0 z M 24,228 l 4,0 0,4 -4,0 z M 28,228 l 4,0 0,4 -4,0 z M 36,228 l 4,0 0,4 -4,0 z M 52,228 l 4,0 0,4 -4,0 z M 56,228 l 4,0 0,4 -4,0 z M 60,228 l 4,0 0,4 -4,0 z M 64,228 l 4,0 0,4 -4,0 z M 68,228 l 4,0 0,4 -4,0 z M 72,228 l 4,0 0,4 -4,0 z M 84,228 l 4,0 0,4 -4,0 z M 92,228 l 4,0 0,4 -4,0 z M 104,228 l 4,0 0,4 -4,0 z M 116,228 l 4,0 0,4 -4,0 z M 120,228 l 4,0 0,4 -4,0 z M 124,228 l 4,0 0,4 -4,0 z M 144,228 l 4,0 0,4 -4,0 z M 148,228 l 4,0 0,4 -4,0 z M 152,228 l 4,0 0,4 -4,0 z M 156,228 l 4,0 0,4 -4,0 z M 172,228 l 4,0 0,4 -4,0 z M 176,228 l 4,0 0,4 -4,0 z M 180,228 l 4,0 0,4 -4,0 z M 184,228 l 4,0 0,4 -4,0 z M 192,228 l 4,0 0,4 -4,0 z M 196,228 l 4,0 0,4 -4,0 z M 200,228 l 4,0 0,4 -4,0 z M 204,228 l 4,0 0,4 -4,0 z M 208,228 l 4,0 0,4 -4,0 z M 212,228 l 4,0 0,4 -4,0 z M 220,228 l 4,0 0,4 -4,0 z " />
	</g>
</svg>
